<svg xmlns="http://www.w3.org/2000/svg" xmlns:xlink="http://www.w3.org/1999/xlink" viewBox="0 0 994.45 289"><defs><style>.cls-1,.cls-29{fill:none;}.cls-2{isolation:isolate;}.cls-3{fill:#fff;}.cls-4{clip-path:url(#clip-path);}.cls-5{fill:url(#linear-gradient);}.cls-6{fill:#eae6ff;}.cls-7{fill:url(#linear-gradient-2);}.cls-8{fill:url(#linear-gradient-3);}.cls-9{fill:#ffd5b6;}.cls-10{fill:#ffa70f;}.cls-11{fill:#fcbdb4;}.cls-12{fill:#fc9680;}.cls-13{fill:#363263;}.cls-14{fill:#443f7d;}.cls-15,.cls-26,.cls-28{fill:#fce438;}.cls-16{fill:#80d3d8;}.cls-17,.cls-27{fill:#ffc610;}.cls-18{fill:#1f1f47;}.cls-19{fill:#d3d0ea;}.cls-20{fill:#001329;}.cls-21{fill:#645dba;}.cls-22{fill:url(#linear-gradient-4);}.cls-23{fill:url(#linear-gradient-5);}.cls-24{fill:url(#linear-gradient-6);}.cls-25{fill:#f4b300;}.cls-26{opacity:0.66;}.cls-27{font-size:27.76px;font-family:JosefinSans-Bold, JosefinSans Bold;font-weight:700;}.cls-28{opacity:0.61;mix-blend-mode:screen;}.cls-29{stroke:#443f7d;stroke-miterlimit:10;stroke-width:0.29px;}.cls-30{fill:#5654af;}.cls-31{fill:#4949a5;}.cls-32{fill:#fcafa7;}.cls-33{fill:#3bd2ff;opacity:0.51;mix-blend-mode:multiply;}.cls-34{fill:url(#Degradado_sin_nombre_2);}.cls-35{fill:url(#Degradado_sin_nombre_2-2);}.cls-36{fill:#c4c5f3;}</style><clipPath id="clip-path"><rect class="cls-1" width="994.45" height="289" rx="10.71" ry="10.71"/></clipPath><linearGradient id="linear-gradient" x1="-5.63" y1="226.53" x2="126.26" y2="226.53" gradientUnits="userSpaceOnUse"><stop offset="0.19" stop-color="#c4c5f3"/><stop offset="0.71" stop-color="#dbdbf1"/></linearGradient><linearGradient id="linear-gradient-2" x1="794.93" y1="70.99" x2="946.78" y2="333.99" gradientUnits="userSpaceOnUse"><stop offset="0.29" stop-color="#dbdbf1"/><stop offset="0.81" stop-color="#c4c5f3"/></linearGradient><linearGradient id="linear-gradient-3" x1="795.51" y1="65.83" x2="960.19" y2="65.83" gradientUnits="userSpaceOnUse"><stop offset="0.14" stop-color="#645dba"/><stop offset="0.81" stop-color="#8076ed"/></linearGradient><linearGradient id="linear-gradient-4" x1="835.42" y1="272.71" x2="835.42" y2="179.52" xlink:href="#linear-gradient-3"/><linearGradient id="linear-gradient-5" x1="895.37" y1="272.71" x2="895.37" y2="150.34" xlink:href="#linear-gradient-3"/><linearGradient id="linear-gradient-6" x1="955.32" y1="272.71" x2="955.32" y2="129.43" xlink:href="#linear-gradient-3"/><linearGradient id="Degradado_sin_nombre_2" x1="885.67" y1="138.14" x2="895.94" y2="148.4" gradientUnits="userSpaceOnUse"><stop offset="0" stop-color="#e2f3f8"/><stop offset="1" stop-color="#d7e4ff"/></linearGradient><linearGradient id="Degradado_sin_nombre_2-2" x1="-2272.22" y1="138.14" x2="-2261.95" y2="148.4" gradientTransform="matrix(-1, 0, 0, 1, -1367.1, 0)" xlink:href="#Degradado_sin_nombre_2"/></defs><title>buffet-bg</title><g class="cls-2"><g id="Layer_1" data-name="Layer 1"><rect class="cls-3" width="994.45" height="289" rx="11.04" ry="11.04"/><g class="cls-4"><path class="cls-5" d="M20.11,213.41c-8.42-4.93-11.37-12.86-10.78-24.79S5,169.47-5.63,164.05V289H126.26c-.15-11.64-3-22.86-9.45-32.27-10.3-15-26.66-24-43.57-29.62a207.7,207.7,0,0,0-28.26-7C36.52,218.58,27.68,217.84,20.11,213.41Z"/><path class="cls-6" d="M-5,192.52c-.59,11.93,2.36,19.87,10.78,24.79,7.57,4.43,16.42,5.17,24.87,6.72a207.71,207.71,0,0,1,28.26,7c16.91,5.62,33.27,14.64,43.57,29.62,5.74,8.35,8.61,18.13,9.29,28.36h14.54c-.15-11.64-3-22.86-9.45-32.27-10.3-15-26.66-24-43.57-29.62a207.71,207.71,0,0,0-28.26-7c-8.45-1.54-17.29-2.29-24.87-6.72-8.42-4.93-11.37-12.86-10.78-24.79S5,169.47-5.63,164.05V184.5A30.39,30.39,0,0,1-5,192.52Z"/><path class="cls-7" d="M1024.71-11c-.07-7.35-63.67,3.77-69.15,4.69C935-2.9,913.87,1.95,895.77,12.79c-14.53,8.7-27,21.7-32.75,37.87-6.35,17.84-6.66,37.27-17.87,53.29-26.87,38.42-87.89,35.11-128.87,40.23-44.36,5.54-68.74,47.84-75.9,87.95-3.46,19.35-1.36,38.31,3.11,56.86h381.22Z"/><path class="cls-6" d="M654,239.36c7.16-40.11,31.54-82.4,75.9-87.95,41-5.12,102-1.81,128.87-40.23,11.21-16,11.53-35.46,17.87-53.29C882.43,41.72,894.9,28.72,909.43,20,927.53,9.17,948.61,4.33,969.21.87c3.86-.65,36.47-6.34,55.5-7.1V-11c-.07-7.35-63.67,3.77-69.15,4.69C935-2.9,913.87,1.95,895.77,12.79c-14.53,8.7-27,21.7-32.75,37.87-6.35,17.84-6.66,37.27-17.87,53.29-26.87,38.42-87.89,35.11-128.87,40.23-44.36,5.54-68.74,47.84-75.9,87.95-3.46,19.35-1.36,38.31,3.11,56.86h12C652.23,272.76,651,256.21,654,239.36Z"/><path class="cls-8" d="M955.22,16.82l-21.83,6.66a3.84,3.84,0,0,0-1.6,6.39l.1.1a3.84,3.84,0,0,1-.07,5.5l-34.2,32.46a3.84,3.84,0,0,1-3.64.92l-33.6-9a6.82,6.82,0,0,0-5.82,1.1l-57.49,42.4a3.84,3.84,0,0,0-.81,5.37l3.53,4.79a3.84,3.84,0,0,0,5.37.81l53.35-39.35a3.84,3.84,0,0,1,3.28-.62l34.41,9.27a6.82,6.82,0,0,0,6.46-1.64l38.94-37A3.84,3.84,0,0,1,947,45h0a3.84,3.84,0,0,0,6.39-1.6L960,21.61A3.84,3.84,0,0,0,955.22,16.82Z"/><path class="cls-9" d="M811.12,153.66s-5.17.22-8-3.52l5.41,0-3.05-1s.44-1.06,2.36-.48l1.88.55a2.49,2.49,0,0,1,2.41,1.23Z"/><path class="cls-10" d="M814,151.22l-.85,3.17-2-.74s-.17-2.16,1-3.22Z"/><path class="cls-10" d="M846.74,133.29c-1.23-1.55-5.38-3-7.93,3.14-3,7.29-8.06,14.93-24.79,14.8l-.85,3.17s19.17,7.73,31.43-10.72C847.61,139.15,848.77,135.85,846.74,133.29Z"/><path class="cls-11" d="M837.17,115.57a5.12,5.12,0,0,0-.92,1,4,4,0,0,0-.82,2,9.73,9.73,0,0,1-.66,2.28l-.14.33a4,4,0,0,0-.24,1.43c0,.76.69,1.37.31,2.16l0,0c-.49,1-1.53,1.57-1.49,2s.82.58,1.1.62a.19.19,0,0,1,.16.18c0,.17-.15.26-.21.41a.64.64,0,0,0,0,.51.31.31,0,0,0,.17.14s.14,0,.14.08a.12.12,0,0,1,0,0,.8.8,0,0,0-.12.4.49.49,0,0,0,.08.28c.07.09.21.1.3.16s-.55,1,.2,1.83,2.88-.21,3.44-.28c.3,0,.65.26.79,1q0,.31.06.62a9.71,9.71,0,0,1-.28,2.38c-.2.89.55,1.38,1.34,1.18a16.7,16.7,0,0,0,3-1c1-.46,2-1,2.9-1.59a1.22,1.22,0,0,0,.41-.32c.5-.72-1.42-1.79-.56-2.91l.17-.22a5.36,5.36,0,0,0,1.18-3.2C847.52,121.69,843.23,117.82,837.17,115.57Z"/><path class="cls-12" d="M835.78,130c.26-.06.51-.13.75-.22a6.5,6.5,0,0,1,.74-.24h0a1.64,1.64,0,0,1-.72.32,5.52,5.52,0,0,1-.78.13Z"/><path class="cls-13" d="M833.7,165.27l-23.82,4.1-1.76,31,2.9-.8s8.54-17.37,4.11-26.15l3.9-5Z"/><path class="cls-14" d="M848.65,169.83s-1.37,7.66-14.41,10a25.29,25.29,0,0,1-19.11-4.06,1.72,1.72,0,0,0-2.64,1c-1.11,4-4.35,12.75-13.65,28l-2.74.75,10.51-38.1a2.58,2.58,0,0,1,2.46-1.89l24.63-.23Z"/><path class="cls-15" d="M833.7,165.27l4.48-25.66s0-4.49,5.16-6.65a3.57,3.57,0,0,1,3.91.45c4.46,4.08,6.55,24.35,1.39,36.43Z"/><rect class="cls-16" x="791.14" y="140.8" width="15.95" height="1.09" transform="translate(538.05 -627.04) rotate(61.2)"/><rect class="cls-13" x="789.85" y="141.22" width="18.2" height="1.24" transform="translate(538.39 -626.63) rotate(61.2)"/><polygon class="cls-14" points="802.85 150.1 819.47 151.58 819.26 150.36 803.54 148.96 802.85 150.1"/><path class="cls-9" d="M811,154.48s-5.17-.31-7.59-4.32l5.38.57-2.94-1.32s.55-1,2.4-.24l1.81.73a2.49,2.49,0,0,1,2.27,1.47Z"/><path class="cls-17" d="M814.16,152.35,813,155.42l-2-.94s.05-2.17,1.34-3.1Z"/><path class="cls-17" d="M848.53,137.84c-1.07-1.67-5-3.49-8.2,2.31-3.78,6.94-9.54,14-26.17,12.2L813,155.42s18.28,9.64,32.36-7.47C848.81,143.75,850.3,140.6,848.53,137.84Z"/><path class="cls-18" d="M812.07,197.07c-.57,1.57-.93,1.92-2,1.9a1,1,0,0,1-.82-.47,1.63,1.63,0,0,0-1.83-.66.48.48,0,0,0-.27.38,2.41,2.41,0,0,1-.73,1.18c-.94,1-2.33,1.34-3.21,2.37a1.14,1.14,0,0,0-.27.9h0a1.19,1.19,0,0,0,0,.16v0l0,.13v0l.08.14,0,0,.08.11,0,0,.11.11,0,0,.11.08,0,0,.14.07h0l.13,0h0l.17,0h.23l.18,0h0l7.55-2.26a.94.94,0,0,0,.56-.46,1,1,0,0,0,.07-.17.94.94,0,0,0,0-.55l-.49-1.62C812.43,196.86,812.07,197.07,812.07,197.07Z"/><path class="cls-18" d="M800.11,202.49c-.68,1.5-1.25,1.71-2.29,1.45a1,1,0,0,1-.69-.65,1.62,1.62,0,0,0-1.63-1.06.48.48,0,0,0-.34.31,2.41,2.41,0,0,1-1,1c-1.13.72-2.58.78-3.66,1.58a1.14,1.14,0,0,0-.47.81h0a1.18,1.18,0,0,0,0,.16v0a1.24,1.24,0,0,0,0,.14v0a1.24,1.24,0,0,0,0,.15v0l.05.12v0l.09.13,0,0,.09.1,0,0,.12.1,0,0,.12.07,0,0,.16.06h0l.15,0h.24l7.87-.48a.94.94,0,0,0,.65-.32l.11-.15a.94.94,0,0,0,.12-.35,1,1,0,0,0,0-.19l-.06-.92a4,4,0,0,1,.18-1.39C800.45,202.45,800.11,202.49,800.11,202.49Z"/><path class="cls-18" d="M849.59,119.84c-1-7.52-11.16-6.2-13.2-4.17-2.67-1.49-3.43,2.32-1.43,4.52-.79,3.8,7.06,4.16,7.06,4.16-1.1,1.91.44,3.88.44,3.88a3,3,0,0,0-.2,3,2.73,2.73,0,0,1,.18-.37c-.11.22-.18.37-.18.37s1.09,1.39,3.68,1C856,129.91,849.59,119.84,849.59,119.84Zm-3.35,11.7a2,2,0,0,1-.08.2Z"/><path class="cls-18" d="M948.73,72.36a11.46,11.46,0,0,0-.12,1.21,12.26,12.26,0,0,0,.53,3.87c1,3.55,2.37,12.39.24,19.57-2.5,8.44.67,16,10.64,12.81,0,0,2.51-5.71-.35-9.95,0,0,.32-7.08-2.59-10.5,0,0,4.13-3-.31-7.8A7.84,7.84,0,0,1,954.38,78a10.28,10.28,0,0,1,1.36-9l.72-1.06h0A5.75,5.75,0,0,0,948.73,72.36Z"/><path class="cls-9" d="M981.47,103.16s5.17.22,8-3.52l-5.41,0,3.05-1s-.44-1.06-2.36-.48l-1.87.55a2.49,2.49,0,0,0-2.41,1.23Z"/><path class="cls-19" d="M978.57,100.73l.85,3.17,2-.74s.17-2.16-1-3.22Z"/><path class="cls-19" d="M945.85,82.79c1.23-1.55,5.38-3,7.93,3.14,3,7.29,8.06,14.93,24.79,14.8l.85,3.17S960.25,111.63,948,93.18C945,88.65,943.81,85.36,945.85,82.79Z"/><path class="cls-11" d="M955.34,64.89a5.3,5.3,0,0,1,1,1.06,4.09,4.09,0,0,1,.85,2,10.07,10.07,0,0,0,.68,2.36l.14.34a4.08,4.08,0,0,1,.25,1.48c0,.79-.72,1.42-.32,2.24l0,0c.5,1,1.59,1.63,1.54,2.11s-.84.6-1.14.65a.2.2,0,0,0-.17.19c0,.18.16.27.22.42a.66.66,0,0,1,0,.53.32.32,0,0,1-.17.15s-.15,0-.15.08a.12.12,0,0,0,0,0,.83.83,0,0,1,.13.42.51.51,0,0,1-.08.29c-.08.09-.22.1-.31.17s.57,1.06-.2,1.89-3-.22-3.57-.29c-.32,0-.67.27-.82,1.06q0,.32-.06.65a23.35,23.35,0,0,0,.25,4c.21.92-.53-.07-1.35-.28a17.3,17.3,0,0,1-3.13-1c-1-.48-2.05-1.08-3-1.64a1.27,1.27,0,0,1-.42-.34c-.52-.74,1.47-1.85.58-3h0a6,6,0,0,1-1.39-3.7C944.71,71.15,949.13,67.2,955.34,64.89Z"/><path class="cls-12" d="M956.8,79.48a5.52,5.52,0,0,1-.78-.13,1.64,1.64,0,0,1-.72-.32h0a6.52,6.52,0,0,1,.74.24c.25.08.5.16.75.22Z"/><path class="cls-13" d="M958.88,114.77l23.82,4.1,1.76,31-2.9-.8s-8.54-17.37-4.11-26.15l-3.9-5Z"/><path class="cls-14" d="M943.94,119.33s1.37,7.66,14.41,10a25.29,25.29,0,0,0,19.11-4.06,1.72,1.72,0,0,1,2.64,1c1.11,4,4.35,12.75,13.65,28l2.74.75L986,116.89a2.58,2.58,0,0,0-2.46-1.89l-24.63-.23Z"/><path class="cls-3" d="M958.88,114.77,954.4,89.11s0-4.49-5.16-6.65a3.57,3.57,0,0,0-3.91.45c-4.46,4.08-6.55,24.35-1.39,36.43Z"/><rect class="cls-16" x="985.49" y="90.31" width="15.95" height="1.09" transform="translate(1551.64 -735.99) rotate(118.8)"/><rect class="cls-13" x="984.53" y="90.72" width="18.2" height="1.24" transform="translate(1552.32 -735.42) rotate(118.8)"/><polygon class="cls-14" points="989.74 99.61 973.12 101.08 973.33 99.86 989.05 98.46 989.74 99.61"/><path class="cls-9" d="M981.56,104s5.17-.31,7.59-4.32l-5.38.57,2.94-1.31s-.55-1-2.4-.24l-1.81.73a2.49,2.49,0,0,0-2.27,1.47Z"/><path class="cls-19" d="M978.43,101.85l1.17,3.07,2-.94s-.05-2.17-1.34-3.1Z"/><path class="cls-6" d="M944.05,87.34c1.07-1.67,5.05-3.49,8.2,2.31,3.78,6.94,9.54,14,26.17,12.2l1.17,3.07s-18.28,9.64-32.36-7.47C943.78,93.26,942.29,90.1,944.05,87.34Z"/><path class="cls-18" d="M980.44,146.57c.73,1.49,1,1.92,2.07,1.9a1,1,0,0,0,.82-.47,1.63,1.63,0,0,1,1.83-.66.48.48,0,0,1,.27.38,2.41,2.41,0,0,0,.73,1.18c.94,1,2.33,1.34,3.21,2.37a1.14,1.14,0,0,1,.27.9h0a1.18,1.18,0,0,1,0,.16v0l0,.13v0l-.08.14,0,0-.08.11,0,0-.11.11,0,0-.11.08,0,0-.14.07h0l-.13,0h0l-.17,0h-.23l-.18,0h0l-7.55-2.26a.94.94,0,0,1-.56-.46,1,1,0,0,1-.07-.17.94.94,0,0,1,0-.37,1,1,0,0,1,0-.19l.39-1.29a1.6,1.6,0,0,0,0-.66C980.2,146.39,980.44,146.57,980.44,146.57Z"/><path class="cls-18" d="M992.86,152.76c.88,1.56,1.25,1.71,2.29,1.44a1,1,0,0,0,.69-.65,1.63,1.63,0,0,1,1.63-1.06.48.48,0,0,1,.34.31,2.41,2.41,0,0,0,1,1c1.13.72,2.58.78,3.66,1.58a1.14,1.14,0,0,1,.47.81h0a1.2,1.2,0,0,1,0,.16v0a1.24,1.24,0,0,1,0,.14v0a1.23,1.23,0,0,1,0,.15v0l-.05.12v0l-.09.13,0,0-.09.1,0,0-.12.1,0,0-.12.07,0,0-.16.06h0l-.15,0h-.24L993.8,157a.94.94,0,0,1-.65-.32l-.11-.15a.94.94,0,0,1-.13-.54l.07-1.17a2.27,2.27,0,0,0-.11-.89C992.45,152.7,992.86,152.76,992.86,152.76Z"/><path class="cls-18" d="M946.53,66.53a11.42,11.42,0,0,0-.68,1,12.26,12.26,0,0,0-1.37,3.66c-.8,3.6-3.79,12-9.08,17.34-6.21,6.24-7,14.4,3.29,16.32,0,0,4.92-3.83,4.41-8.93,0,0,3.64-6.08,2.7-10.47,0,0,5-.64,3.43-7a7.84,7.84,0,0,1-.39-4.29,10.28,10.28,0,0,1,5.48-7.29l1.14-.59h0A5.75,5.75,0,0,0,946.53,66.53Z"/><path class="cls-18" d="M948.12,78.66a3.11,3.11,0,0,0,3-.47s0-.12-.11-.31a2.18,2.18,0,0,1,.11.31,2.42,2.42,0,0,0,.11-2.39,3,3,0,0,0,.7-3c.14.31,2.83-.12,3.11-.18A4.24,4.24,0,0,0,958.29,70a3.87,3.87,0,0,0,.3-2.22c-.34-1.37-2-2.12-3.16-2.6a9,9,0,0,0-5.08-.53,5.31,5.31,0,0,0-2.5,1.17,4.62,4.62,0,0,0-.92,1.11c-.25.43-.32,1.17-.61,1.52C946.33,68.5,940.33,75.92,948.12,78.66Zm-.12-.4a1.58,1.58,0,0,1,0-.17Z"/><path class="cls-9" d="M732.07,162.35s5.17-.31,7.59-4.32l-5.38.57,2.94-1.31s-.55-1-2.4-.24l-1.81.73a2.49,2.49,0,0,0-2.27,1.47Z"/><path class="cls-14" d="M728.94,160.22l1.17,3.07,2-.94s-.05-2.17-1.34-3.1Z"/><path class="cls-13" d="M694.57,145.71c1.07-1.67,5.05-3.49,8.2,2.31,3.78,6.94,9.54,14,26.17,12.2l1.17,3.07s-18.28,9.64-32.36-7.47C694.29,151.62,692.8,148.47,694.57,145.71Z"/><rect class="cls-20" x="730.38" y="150.9" width="6.59" height="12.8" rx="0.84" ry="0.84" transform="translate(810.78 -589.07) rotate(83.8)"/><rect class="cls-3" x="730.85" y="152.57" width="5.65" height="9.47" transform="translate(810.76 -589.07) rotate(83.8)"/><path d="M739,157.41l-.15-1.34a.07.07,0,0,1,.06-.08h0a.07.07,0,0,1,.08.06l.15,1.34a.07.07,0,0,1-.06.08h0A.07.07,0,0,1,739,157.41Z"/><path class="cls-13" d="M739,157.39l-.14-1.31a.09.09,0,0,1,.08-.09h0a.09.09,0,0,1,.09.08l.14,1.31a.09.09,0,0,1-.08.09h0A.09.09,0,0,1,739,157.39Z"/><circle class="cls-13" cx="739.39" cy="156.68" r="0.09" transform="translate(-12.62 81.03) rotate(-6.22)"/><circle class="cls-13" cx="728.17" cy="157.9" r="0.48" transform="translate(-12.8 79.61) rotate(-6.2)"/><path class="cls-15" d="M733.21,155.44l.18,2.11,1.36-1.62A2.21,2.21,0,0,0,733.21,155.44Z"/><path class="cls-21" d="M733.3,157.9h0l-.17-1.94a2,2,0,1,0,2.15,1.81Z"/><path class="cls-17" d="M734.58,156.35l-1.13,1.35,1.56-.82A2,2,0,0,0,734.58,156.35Z"/><path class="cls-17" d="M735,156.87l-1.56.82,1.76-.15A1.94,1.94,0,0,0,735,156.87Z"/><path class="cls-21" d="M735,155.85h0a2.47,2.47,0,0,0-2-.6,0,0,0,1,1,0-.08,2.55,2.55,0,0,1,2.07.62,0,0,0,0,1,0,.06Z"/><path class="cls-21" d="M733,155.35a0,0,0,0,1,0,0l0-.23a0,0,0,0,1,.08,0l0,.23a0,0,0,0,1,0,0Z"/><path class="cls-21" d="M735,155.94h0a0,0,0,0,1,0-.06l.16-.16a0,0,0,0,1,.06.06l-.16.16Z"/><path class="cls-13" d="M701.36,177.88h3.8L703,239.65h-2.84s-5.11-19.24-3.74-31.94c1.17-14.62-1.34-21-1.34-21"/><path class="cls-14" d="M703.09,177.88l-5.34,28.33a3.52,3.52,0,0,1-.57,1.36l-18.7,26.92-2.93-1.15s6.54-18.27,13.75-28.12a3.1,3.1,0,0,0,.49-2.64l-3.43-12.89a28.55,28.55,0,0,1-1.24-11.81Z"/><path class="cls-11" d="M703.44,121.14a5.1,5.1,0,0,1,.92,1,3.93,3.93,0,0,1,.82,2,9.69,9.69,0,0,0,.66,2.27l.14.33a3.93,3.93,0,0,1,.24,1.42c0,.76-.69,1.37-.31,2.16l0,0c.48,1,1.53,1.56,1.49,2s-.81.58-1.1.62a.19.19,0,0,0-.16.18c0,.17.15.26.21.41a.64.64,0,0,1,0,.51.31.31,0,0,1-.17.14s-.14,0-.14.08a.11.11,0,0,0,0,0,.8.8,0,0,1,.12.4.49.49,0,0,1-.08.28c-.07.09-.21.1-.3.16s.54,1-.2,1.82-2.87-.21-3.43-.28c-.3,0-.65.26-.79,1q0,.31-.06.62a9.28,9.28,0,0,0-.1,2.68c.2.88-.16,1.06-.95.87a16.64,16.64,0,0,1-3-1,19,19,0,0,1-2.23-.88c-.15-.09-.09.4-.19.25-.5-.71.53-3.06-.32-4.18h0a5.78,5.78,0,0,1-1.34-3.56C693.2,127.16,697.46,123.36,703.44,121.14Z"/><path class="cls-12" d="M706.07,134.26a6.55,6.55,0,0,1-.92-.16,1.88,1.88,0,0,1-.86-.38h0a6.7,6.7,0,0,1,.88.29c.29.1.59.19.89.26Z"/><path class="cls-20" d="M699.41,235.9c.88,1.56,1.25,1.71,2.29,1.44a1,1,0,0,0,.69-.65,1.62,1.62,0,0,1,1.63-1.06.48.48,0,0,1,.34.31,2.41,2.41,0,0,0,1,1c1.13.72,2.58.78,3.66,1.58a1.14,1.14,0,0,1,.47.81h0a1.19,1.19,0,0,1,0,.16v0a1.22,1.22,0,0,1,0,.14v0a1.22,1.22,0,0,1,0,.15v0l-.05.12v0l-.09.13,0,0-.09.1,0,0-.12.1,0,0-.12.07,0,0-.16.06h0l-.15,0h-.24l-7.87-.48a.94.94,0,0,1-.65-.32l-.11-.15a.94.94,0,0,1-.13-.54l.07-1.17a2.27,2.27,0,0,0-.11-.89C699,235.85,699.41,235.9,699.41,235.9Z"/><path class="cls-20" d="M676.19,230.79c-.09,1.79,0,2.06,1,2.39a1,1,0,0,0,.93-.18,1.62,1.62,0,0,1,1.94,0,.48.48,0,0,1,.13.45,2.41,2.41,0,0,0,.3,1.35c.57,1.22,1.76,2,2.25,3.29a1.14,1.14,0,0,1,0,.94h0l-.08.14,0,0-.09.11v0l-.12.11,0,0-.11.07,0,0-.14.07h0l-.13,0h0l-.16,0h-.21l-.16,0h0l-.14-.06,0,0-.16-.1h0l-6.4-4.6a.94.94,0,0,1-.38-.62,1,1,0,0,1,0-.18.94.94,0,0,1,.08-.36,1,1,0,0,1,.1-.17l.69-1a2.27,2.27,0,0,0,.38-.81C675.73,230.47,676.19,230.79,676.19,230.79Z"/><path class="cls-21" d="M684.87,179.21l20.29.36a222,222,0,0,0-2.69-34.66c-.32-2-1.63-5.62-6.09-5.16-4,.41-6.54,5.17-8.26,11.56C685.34,161.59,684.87,179.21,684.87,179.21Z"/><path class="cls-20" d="M706.25,124.86c.07,0,.15-.24.18-.3a5.21,5.21,0,0,0,.37-.85,4.63,4.63,0,0,0,.14-2.89,1,1,0,0,1-.41.66c-.33.26-.76,0-1.07-.13a9.2,9.2,0,0,0-1.32-.59,10.45,10.45,0,0,0-7.21.21,7.49,7.49,0,0,0-4.43,4.59,20.09,20.09,0,0,0-.93,3A6.67,6.67,0,0,0,693,135a10.86,10.86,0,0,0,1.08,1,1.95,1.95,0,0,0,2.55.37v-1.3a3.61,3.61,0,0,1-1.62-2.28c-.17-.86.29-1.78,1.31-1.56s1.1,1.08,1.32,2a7.57,7.57,0,0,0-.11-5l1.4.15-.19-.35c3.24.57,7.54.5,8.52-3.57Z"/><path class="cls-13" d="M694.39,140.36l.43-2.54s4.16.35,6.38,3.23l.39,1.26A54.12,54.12,0,0,0,694.39,140.36Z"/><path class="cls-9" d="M730.26,164.5s5.17-.31,7.59-4.32l-5.38.57,2.94-1.31s-.55-1-2.4-.24l-1.81.73a2.49,2.49,0,0,0-2.27,1.47Z"/><path class="cls-14" d="M727.13,162.37l1.17,3.07,2-.94s-.05-2.17-1.34-3.1Z"/><path class="cls-14" d="M692.76,147.86c1.07-1.67,5.05-3.49,8.2,2.31,3.78,6.94,9.54,14,26.17,12.2l1.17,3.07S710,175.08,695.94,158C692.48,153.77,691,150.62,692.76,147.86Z"/><path class="cls-22" d="M817.39,179.52h36a5.37,5.37,0,0,1,5.37,5.37v87.82a0,0,0,0,1,0,0H812a0,0,0,0,1,0,0V184.88A5.37,5.37,0,0,1,817.39,179.52Z"/><path class="cls-23" d="M877.34,150.34h36a5.37,5.37,0,0,1,5.37,5.37v117a0,0,0,0,1,0,0H872a0,0,0,0,1,0,0v-117A5.37,5.37,0,0,1,877.34,150.34Z"/><path class="cls-24" d="M937.3,129.43h36a5.37,5.37,0,0,1,5.37,5.37V272.71a0,0,0,0,1,0,0H931.93a0,0,0,0,1,0,0V134.8A5.37,5.37,0,0,1,937.3,129.43Z"/><rect class="cls-25" x="663.04" y="261.69" width="54.78" height="11.02" rx="2.24" ry="2.24"/><path class="cls-17" d="M668.54,271.39a4.19,4.19,0,0,1-4.19-4.19h0a4.19,4.19,0,0,1,4.19-4.19h43.76a4.19,4.19,0,0,1,4.19,4.19h0a4.19,4.19,0,0,1-4.19,4.19Z"/><rect class="cls-26" x="687.2" y="243.66" width="6.45" height="45.56" rx="2.92" ry="2.92" transform="translate(956.86 -423.99) rotate(90)"/><path class="cls-10" d="M715.57,271.9H665.28a2.24,2.24,0,0,1-2.24-2.24v.8a2.24,2.24,0,0,0,2.24,2.24h50.29a2.24,2.24,0,0,0,2.24-2.24v-.8A2.24,2.24,0,0,1,715.57,271.9Z"/><path class="cls-15" d="M715.57,261.69H665.28a2.24,2.24,0,0,0-2.24,2.24v.8a2.24,2.24,0,0,1,2.24-2.24h50.29a2.24,2.24,0,0,1,2.24,2.24v-.8A2.24,2.24,0,0,0,715.57,261.69Z"/><path class="cls-17" d="M667.94,272.4a.4.4,0,0,1-.4-.4v-8.93a.4.4,0,1,1,.8,0V272A.4.4,0,0,1,667.94,272.4Z"/><path class="cls-10" d="M667.94,262.66a.39.39,0,0,0-.2.06.4.4,0,0,1,.2.34V272a.4.4,0,0,1-.2.34.39.39,0,0,0,.2.06.4.4,0,0,0,.4-.4v-8.93A.4.4,0,0,0,667.94,262.66Z"/><path class="cls-17" d="M674.37,272.4a.4.4,0,0,1-.4-.4v-8.93a.4.4,0,1,1,.8,0V272A.4.4,0,0,1,674.37,272.4Z"/><path class="cls-10" d="M674.37,262.66a.39.39,0,0,0-.2.06.4.4,0,0,1,.2.34V272a.4.4,0,0,1-.2.34.39.39,0,0,0,.2.06.4.4,0,0,0,.4-.4v-8.93A.4.4,0,0,0,674.37,262.66Z"/><path class="cls-17" d="M680.79,272.4a.4.4,0,0,1-.4-.4v-8.93a.4.4,0,1,1,.8,0V272A.4.4,0,0,1,680.79,272.4Z"/><path class="cls-10" d="M680.79,262.66a.39.39,0,0,0-.2.06.4.4,0,0,1,.2.34V272a.4.4,0,0,1-.2.34.39.39,0,0,0,.2.06.4.4,0,0,0,.4-.4v-8.93A.4.4,0,0,0,680.79,262.66Z"/><path class="cls-17" d="M687.21,272.4a.4.4,0,0,1-.4-.4v-8.93a.4.4,0,1,1,.8,0V272A.4.4,0,0,1,687.21,272.4Z"/><path class="cls-10" d="M687.21,262.66a.39.39,0,0,0-.2.06.4.4,0,0,1,.2.34V272a.4.4,0,0,1-.2.34.39.39,0,0,0,.2.06.4.4,0,0,0,.4-.4v-8.93A.4.4,0,0,0,687.21,262.66Z"/><path class="cls-17" d="M693.64,272.4a.4.4,0,0,1-.4-.4v-8.93a.4.4,0,1,1,.8,0V272A.4.4,0,0,1,693.64,272.4Z"/><path class="cls-10" d="M693.64,262.66a.39.39,0,0,0-.2.06.4.4,0,0,1,.2.34V272a.4.4,0,0,1-.2.34.39.39,0,0,0,.2.06.4.4,0,0,0,.4-.4v-8.93A.4.4,0,0,0,693.64,262.66Z"/><path class="cls-17" d="M700.06,272.4a.4.4,0,0,1-.4-.4v-8.93a.4.4,0,1,1,.8,0V272A.4.4,0,0,1,700.06,272.4Z"/><path class="cls-10" d="M700.06,262.66a.39.39,0,0,0-.2.06.4.4,0,0,1,.2.34V272a.4.4,0,0,1-.2.34.39.39,0,0,0,.2.06.4.4,0,0,0,.4-.4v-8.93A.4.4,0,0,0,700.06,262.66Z"/><path class="cls-17" d="M706.49,272.4a.4.4,0,0,1-.4-.4v-8.93a.4.4,0,1,1,.8,0V272A.4.4,0,0,1,706.49,272.4Z"/><path class="cls-10" d="M706.49,262.66a.39.39,0,0,0-.2.06.4.4,0,0,1,.2.34V272a.4.4,0,0,1-.2.34.39.39,0,0,0,.2.06.4.4,0,0,0,.4-.4v-8.93A.4.4,0,0,0,706.49,262.66Z"/><path class="cls-17" d="M712.91,272.4a.4.4,0,0,1-.4-.4v-8.93a.4.4,0,1,1,.8,0V272A.4.4,0,0,1,712.91,272.4Z"/><path class="cls-10" d="M712.91,262.66a.39.39,0,0,0-.2.06.4.4,0,0,1,.2.34V272a.4.4,0,0,1-.2.34.39.39,0,0,0,.2.06.4.4,0,0,0,.4-.4v-8.93A.4.4,0,0,0,712.91,262.66Z"/><rect class="cls-25" x="661.56" y="250.67" width="54.78" height="11.02" rx="2.24" ry="2.24"/><path class="cls-17" d="M667.07,260.37a4.19,4.19,0,0,1-4.19-4.19h0a4.19,4.19,0,0,1,4.19-4.19h43.76a4.19,4.19,0,0,1,4.19,4.19h0a4.19,4.19,0,0,1-4.19,4.19Z"/><rect class="cls-26" x="685.73" y="232.64" width="6.45" height="45.56" rx="2.92" ry="2.92" transform="translate(944.37 -433.53) rotate(90)"/><path class="cls-10" d="M714.1,260.89H663.81a2.24,2.24,0,0,1-2.24-2.24v.8a2.24,2.24,0,0,0,2.24,2.24H714.1a2.24,2.24,0,0,0,2.24-2.24v-.8A2.24,2.24,0,0,1,714.1,260.89Z"/><path class="cls-15" d="M714.1,250.67H663.81a2.24,2.24,0,0,0-2.24,2.24v.8a2.24,2.24,0,0,1,2.24-2.24H714.1a2.24,2.24,0,0,1,2.24,2.24v-.8A2.24,2.24,0,0,0,714.1,250.67Z"/><path class="cls-17" d="M666.47,261.38a.4.4,0,0,1-.4-.4V252a.4.4,0,0,1,.8,0V261A.4.4,0,0,1,666.47,261.38Z"/><path class="cls-10" d="M666.47,251.64a.39.39,0,0,0-.2.06.4.4,0,0,1,.2.34V261a.4.4,0,0,1-.2.34.39.39,0,0,0,.2.06.4.4,0,0,0,.4-.4V252A.4.4,0,0,0,666.47,251.64Z"/><path class="cls-17" d="M672.9,261.38a.4.4,0,0,1-.4-.4V252a.4.4,0,0,1,.8,0V261A.4.4,0,0,1,672.9,261.38Z"/><path class="cls-10" d="M672.9,251.64a.39.39,0,0,0-.2.06.4.4,0,0,1,.2.34V261a.4.4,0,0,1-.2.34.39.39,0,0,0,.2.06.4.4,0,0,0,.4-.4V252A.4.4,0,0,0,672.9,251.64Z"/><path class="cls-17" d="M679.32,261.38a.4.4,0,0,1-.4-.4V252a.4.4,0,0,1,.8,0V261A.4.4,0,0,1,679.32,261.38Z"/><path class="cls-10" d="M679.32,251.64a.39.39,0,0,0-.2.06.4.4,0,0,1,.2.34V261a.4.4,0,0,1-.2.34.39.39,0,0,0,.2.06.4.4,0,0,0,.4-.4V252A.4.4,0,0,0,679.32,251.64Z"/><path class="cls-17" d="M685.74,261.38a.4.4,0,0,1-.4-.4V252a.4.4,0,0,1,.8,0V261A.4.4,0,0,1,685.74,261.38Z"/><path class="cls-10" d="M685.74,251.64a.39.39,0,0,0-.2.06.4.4,0,0,1,.2.34V261a.4.4,0,0,1-.2.34.39.39,0,0,0,.2.06.4.4,0,0,0,.4-.4V252A.4.4,0,0,0,685.74,251.64Z"/><path class="cls-17" d="M692.17,261.38a.4.4,0,0,1-.4-.4V252a.4.4,0,0,1,.8,0V261A.4.4,0,0,1,692.17,261.38Z"/><path class="cls-10" d="M692.17,251.64a.39.39,0,0,0-.2.06.4.4,0,0,1,.2.34V261a.4.4,0,0,1-.2.34.39.39,0,0,0,.2.06.4.4,0,0,0,.4-.4V252A.4.4,0,0,0,692.17,251.64Z"/><path class="cls-17" d="M698.59,261.38a.4.4,0,0,1-.4-.4V252a.4.4,0,0,1,.8,0V261A.4.4,0,0,1,698.59,261.38Z"/><path class="cls-10" d="M698.59,251.64a.39.39,0,0,0-.2.06.4.4,0,0,1,.2.34V261a.4.4,0,0,1-.2.34.39.39,0,0,0,.2.06.4.4,0,0,0,.4-.4V252A.4.4,0,0,0,698.59,251.64Z"/><path class="cls-17" d="M705,261.38a.4.4,0,0,1-.4-.4V252a.4.4,0,0,1,.8,0V261A.4.4,0,0,1,705,261.38Z"/><path class="cls-10" d="M705,251.64a.39.39,0,0,0-.2.06.4.4,0,0,1,.2.34V261a.4.4,0,0,1-.2.34.39.39,0,0,0,.2.06.4.4,0,0,0,.4-.4V252A.4.4,0,0,0,705,251.64Z"/><path class="cls-17" d="M711.44,261.38a.4.4,0,0,1-.4-.4V252a.4.4,0,0,1,.8,0V261A.4.4,0,0,1,711.44,261.38Z"/><path class="cls-10" d="M711.44,251.64a.39.39,0,0,0-.2.06.4.4,0,0,1,.2.34V261a.4.4,0,0,1-.2.34.39.39,0,0,0,.2.06.4.4,0,0,0,.4-.4V252A.4.4,0,0,0,711.44,251.64Z"/><rect class="cls-25" x="667.2" y="239.66" width="54.78" height="11.02" rx="2.24" ry="2.24"/><path class="cls-17" d="M672.71,249.36a4.19,4.19,0,0,1-4.19-4.19h0a4.19,4.19,0,0,1,4.19-4.19h43.76a4.19,4.19,0,0,1,4.19,4.19h0a4.19,4.19,0,0,1-4.19,4.19Z"/><rect class="cls-26" x="691.37" y="221.63" width="6.45" height="45.56" rx="2.92" ry="2.92" transform="translate(939 -450.19) rotate(90)"/><path class="cls-10" d="M719.74,249.87H669.45a2.24,2.24,0,0,1-2.24-2.24v.8a2.24,2.24,0,0,0,2.24,2.24h50.29a2.24,2.24,0,0,0,2.24-2.24v-.8A2.24,2.24,0,0,1,719.74,249.87Z"/><path class="cls-15" d="M719.74,239.66H669.45a2.24,2.24,0,0,0-2.24,2.24v.8a2.24,2.24,0,0,1,2.24-2.24h50.29A2.24,2.24,0,0,1,722,242.7v-.8A2.24,2.24,0,0,0,719.74,239.66Z"/><path class="cls-17" d="M672.11,250.36a.4.4,0,0,1-.4-.4V241a.4.4,0,0,1,.8,0V250A.4.4,0,0,1,672.11,250.36Z"/><path class="cls-10" d="M672.11,240.63a.39.39,0,0,0-.2.06.4.4,0,0,1,.2.34V250a.4.4,0,0,1-.2.34.39.39,0,0,0,.2.06.4.4,0,0,0,.4-.4V241A.4.4,0,0,0,672.11,240.63Z"/><path class="cls-17" d="M678.53,250.36a.4.4,0,0,1-.4-.4V241a.4.4,0,0,1,.8,0V250A.4.4,0,0,1,678.53,250.36Z"/><path class="cls-10" d="M678.53,240.63a.39.39,0,0,0-.2.06.4.4,0,0,1,.2.34V250a.4.4,0,0,1-.2.34.39.39,0,0,0,.2.06.4.4,0,0,0,.4-.4V241A.4.4,0,0,0,678.53,240.63Z"/><path class="cls-17" d="M685,250.36a.4.4,0,0,1-.4-.4V241a.4.4,0,0,1,.8,0V250A.4.4,0,0,1,685,250.36Z"/><path class="cls-10" d="M685,240.63a.39.39,0,0,0-.2.06.4.4,0,0,1,.2.34V250a.4.4,0,0,1-.2.34.39.39,0,0,0,.2.06.4.4,0,0,0,.4-.4V241A.4.4,0,0,0,685,240.63Z"/><path class="cls-17" d="M691.38,250.36a.4.4,0,0,1-.4-.4V241a.4.4,0,0,1,.8,0V250A.4.4,0,0,1,691.38,250.36Z"/><path class="cls-10" d="M691.38,240.63a.39.39,0,0,0-.2.06.4.4,0,0,1,.2.34V250a.4.4,0,0,1-.2.34.39.39,0,0,0,.2.06.4.4,0,0,0,.4-.4V241A.4.4,0,0,0,691.38,240.63Z"/><path class="cls-17" d="M697.8,250.36a.4.4,0,0,1-.4-.4V241a.4.4,0,0,1,.8,0V250A.4.4,0,0,1,697.8,250.36Z"/><path class="cls-10" d="M697.8,240.63a.39.39,0,0,0-.2.06.4.4,0,0,1,.2.34V250a.4.4,0,0,1-.2.34.39.39,0,0,0,.2.06.4.4,0,0,0,.4-.4V241A.4.4,0,0,0,697.8,240.63Z"/><path class="cls-17" d="M704.23,250.36a.4.4,0,0,1-.4-.4V241a.4.4,0,0,1,.8,0V250A.4.4,0,0,1,704.23,250.36Z"/><path class="cls-10" d="M704.23,240.63a.39.39,0,0,0-.2.06.4.4,0,0,1,.2.34V250a.4.4,0,0,1-.2.34.39.39,0,0,0,.2.06.4.4,0,0,0,.4-.4V241A.4.4,0,0,0,704.23,240.63Z"/><path class="cls-17" d="M710.65,250.36a.4.4,0,0,1-.4-.4V241a.4.4,0,0,1,.8,0V250A.4.4,0,0,1,710.65,250.36Z"/><path class="cls-10" d="M710.65,240.63a.39.39,0,0,0-.2.06.4.4,0,0,1,.2.34V250a.4.4,0,0,1-.2.34.39.39,0,0,0,.2.06.4.4,0,0,0,.4-.4V241A.4.4,0,0,0,710.65,240.63Z"/><path class="cls-17" d="M717.08,250.36a.4.4,0,0,1-.4-.4V241a.4.4,0,0,1,.8,0V250A.4.4,0,0,1,717.08,250.36Z"/><path class="cls-10" d="M717.08,240.63a.39.39,0,0,0-.2.06.4.4,0,0,1,.2.34V250a.4.4,0,0,1-.2.34.39.39,0,0,0,.2.06.4.4,0,0,0,.4-.4V241A.4.4,0,0,0,717.08,240.63Z"/><rect class="cls-25" x="728.85" y="261.69" width="54.78" height="11.02" rx="2.24" ry="2.24"/><path class="cls-17" d="M734.36,271.39a4.19,4.19,0,0,1-4.19-4.19h0a4.19,4.19,0,0,1,4.19-4.19h43.76a4.19,4.19,0,0,1,4.19,4.19h0a4.19,4.19,0,0,1-4.19,4.19Z"/><rect class="cls-26" x="753.02" y="243.66" width="6.45" height="45.56" rx="2.92" ry="2.92" transform="translate(1022.68 -489.81) rotate(90)"/><path class="cls-10" d="M781.39,271.9H731.1a2.24,2.24,0,0,1-2.24-2.24v.8a2.24,2.24,0,0,0,2.24,2.24h50.29a2.24,2.24,0,0,0,2.24-2.24v-.8A2.24,2.24,0,0,1,781.39,271.9Z"/><path class="cls-15" d="M781.39,261.69H731.1a2.24,2.24,0,0,0-2.24,2.24v.8a2.24,2.24,0,0,1,2.24-2.24h50.29a2.24,2.24,0,0,1,2.24,2.24v-.8A2.24,2.24,0,0,0,781.39,261.69Z"/><path class="cls-17" d="M733.76,272.4a.4.4,0,0,1-.4-.4v-8.93a.4.4,0,1,1,.8,0V272A.4.4,0,0,1,733.76,272.4Z"/><path class="cls-10" d="M733.76,262.66a.39.39,0,0,0-.2.06.4.4,0,0,1,.2.34V272a.4.4,0,0,1-.2.34.39.39,0,0,0,.2.06.4.4,0,0,0,.4-.4v-8.93A.4.4,0,0,0,733.76,262.66Z"/><path class="cls-17" d="M740.19,272.4a.4.4,0,0,1-.4-.4v-8.93a.4.4,0,1,1,.8,0V272A.4.4,0,0,1,740.19,272.4Z"/><path class="cls-10" d="M740.19,262.66a.39.39,0,0,0-.2.06.4.4,0,0,1,.2.34V272a.4.4,0,0,1-.2.34.39.39,0,0,0,.2.06.4.4,0,0,0,.4-.4v-8.93A.4.4,0,0,0,740.19,262.66Z"/><path class="cls-17" d="M746.61,272.4a.4.4,0,0,1-.4-.4v-8.93a.4.4,0,1,1,.8,0V272A.4.4,0,0,1,746.61,272.4Z"/><path class="cls-10" d="M746.61,262.66a.39.39,0,0,0-.2.06.4.4,0,0,1,.2.34V272a.4.4,0,0,1-.2.34.39.39,0,0,0,.2.06.4.4,0,0,0,.4-.4v-8.93A.4.4,0,0,0,746.61,262.66Z"/><path class="cls-17" d="M753,272.4a.4.4,0,0,1-.4-.4v-8.93a.4.4,0,1,1,.8,0V272A.4.4,0,0,1,753,272.4Z"/><path class="cls-10" d="M753,262.66a.39.39,0,0,0-.2.06.4.4,0,0,1,.2.34V272a.4.4,0,0,1-.2.34.39.39,0,0,0,.2.06.4.4,0,0,0,.4-.4v-8.93A.4.4,0,0,0,753,262.66Z"/><path class="cls-17" d="M759.46,272.4a.4.4,0,0,1-.4-.4v-8.93a.4.4,0,1,1,.8,0V272A.4.4,0,0,1,759.46,272.4Z"/><path class="cls-10" d="M759.46,262.66a.39.39,0,0,0-.2.06.4.4,0,0,1,.2.34V272a.4.4,0,0,1-.2.34.39.39,0,0,0,.2.06.4.4,0,0,0,.4-.4v-8.93A.4.4,0,0,0,759.46,262.66Z"/><path class="cls-17" d="M765.88,272.4a.4.4,0,0,1-.4-.4v-8.93a.4.4,0,1,1,.8,0V272A.4.4,0,0,1,765.88,272.4Z"/><path class="cls-10" d="M765.88,262.66a.39.39,0,0,0-.2.06.4.4,0,0,1,.2.34V272a.4.4,0,0,1-.2.34.39.39,0,0,0,.2.06.4.4,0,0,0,.4-.4v-8.93A.4.4,0,0,0,765.88,262.66Z"/><path class="cls-17" d="M772.3,272.4a.4.4,0,0,1-.4-.4v-8.93a.4.4,0,1,1,.8,0V272A.4.4,0,0,1,772.3,272.4Z"/><path class="cls-10" d="M772.3,262.66a.39.39,0,0,0-.2.06.4.4,0,0,1,.2.34V272a.4.4,0,0,1-.2.34.39.39,0,0,0,.2.06.4.4,0,0,0,.4-.4v-8.93A.4.4,0,0,0,772.3,262.66Z"/><path class="cls-17" d="M778.73,272.4a.4.4,0,0,1-.4-.4v-8.93a.4.4,0,1,1,.8,0V272A.4.4,0,0,1,778.73,272.4Z"/><path class="cls-10" d="M778.73,262.66a.39.39,0,0,0-.2.06.4.4,0,0,1,.2.34V272a.4.4,0,0,1-.2.34.39.39,0,0,0,.2.06.4.4,0,0,0,.4-.4v-8.93A.4.4,0,0,0,778.73,262.66Z"/><rect class="cls-25" x="727.38" y="250.67" width="54.78" height="11.02" rx="2.24" ry="2.24"/><path class="cls-17" d="M732.89,260.37a4.19,4.19,0,0,1-4.19-4.19h0a4.19,4.19,0,0,1,4.19-4.19h43.76a4.19,4.19,0,0,1,4.19,4.19h0a4.19,4.19,0,0,1-4.19,4.19Z"/><rect class="cls-26" x="751.55" y="232.64" width="6.45" height="45.56" rx="2.92" ry="2.92" transform="translate(1010.19 -499.35) rotate(90)"/><path class="cls-10" d="M779.92,260.89H729.63a2.24,2.24,0,0,1-2.24-2.24v.8a2.24,2.24,0,0,0,2.24,2.24h50.29a2.24,2.24,0,0,0,2.24-2.24v-.8A2.24,2.24,0,0,1,779.92,260.89Z"/><path class="cls-15" d="M779.92,250.67H729.63a2.24,2.24,0,0,0-2.24,2.24v.8a2.24,2.24,0,0,1,2.24-2.24h50.29a2.24,2.24,0,0,1,2.24,2.24v-.8A2.24,2.24,0,0,0,779.92,250.67Z"/><path class="cls-17" d="M732.29,261.38a.4.4,0,0,1-.4-.4V252a.4.4,0,0,1,.8,0V261A.4.4,0,0,1,732.29,261.38Z"/><path class="cls-10" d="M732.29,251.64a.39.39,0,0,0-.2.06.4.4,0,0,1,.2.34V261a.4.4,0,0,1-.2.34.39.39,0,0,0,.2.06.4.4,0,0,0,.4-.4V252A.4.4,0,0,0,732.29,251.64Z"/><path class="cls-17" d="M738.71,261.38a.4.4,0,0,1-.4-.4V252a.4.4,0,0,1,.8,0V261A.4.4,0,0,1,738.71,261.38Z"/><path class="cls-10" d="M738.71,251.64a.39.39,0,0,0-.2.06.4.4,0,0,1,.2.34V261a.4.4,0,0,1-.2.34.39.39,0,0,0,.2.06.4.4,0,0,0,.4-.4V252A.4.4,0,0,0,738.71,251.64Z"/><path class="cls-17" d="M745.14,261.38a.4.4,0,0,1-.4-.4V252a.4.4,0,0,1,.8,0V261A.4.4,0,0,1,745.14,261.38Z"/><path class="cls-10" d="M745.14,251.64a.39.39,0,0,0-.2.06.4.4,0,0,1,.2.34V261a.4.4,0,0,1-.2.34.39.39,0,0,0,.2.06.4.4,0,0,0,.4-.4V252A.4.4,0,0,0,745.14,251.64Z"/><path class="cls-17" d="M751.56,261.38a.4.4,0,0,1-.4-.4V252a.4.4,0,0,1,.8,0V261A.4.4,0,0,1,751.56,261.38Z"/><path class="cls-10" d="M751.56,251.64a.39.39,0,0,0-.2.06.4.4,0,0,1,.2.34V261a.4.4,0,0,1-.2.34.39.39,0,0,0,.2.06.4.4,0,0,0,.4-.4V252A.4.4,0,0,0,751.56,251.64Z"/><path class="cls-17" d="M758,261.38a.4.4,0,0,1-.4-.4V252a.4.4,0,0,1,.8,0V261A.4.4,0,0,1,758,261.38Z"/><path class="cls-10" d="M758,251.64a.39.39,0,0,0-.2.06.4.4,0,0,1,.2.34V261a.4.4,0,0,1-.2.34.39.39,0,0,0,.2.06.4.4,0,0,0,.4-.4V252A.4.4,0,0,0,758,251.64Z"/><path class="cls-17" d="M764.41,261.38a.4.4,0,0,1-.4-.4V252a.4.4,0,0,1,.8,0V261A.4.4,0,0,1,764.41,261.38Z"/><path class="cls-10" d="M764.41,251.64a.39.39,0,0,0-.2.06.4.4,0,0,1,.2.34V261a.4.4,0,0,1-.2.34.39.39,0,0,0,.2.06.4.4,0,0,0,.4-.4V252A.4.4,0,0,0,764.41,251.64Z"/><path class="cls-17" d="M770.83,261.38a.4.4,0,0,1-.4-.4V252a.4.4,0,0,1,.8,0V261A.4.4,0,0,1,770.83,261.38Z"/><path class="cls-10" d="M770.83,251.64a.39.39,0,0,0-.2.06.4.4,0,0,1,.2.34V261a.4.4,0,0,1-.2.34.39.39,0,0,0,.2.06.4.4,0,0,0,.4-.4V252A.4.4,0,0,0,770.83,251.64Z"/><path class="cls-17" d="M777.26,261.38a.4.4,0,0,1-.4-.4V252a.4.4,0,0,1,.8,0V261A.4.4,0,0,1,777.26,261.38Z"/><path class="cls-10" d="M777.26,251.64a.39.39,0,0,0-.2.06.4.4,0,0,1,.2.34V261a.4.4,0,0,1-.2.34.39.39,0,0,0,.2.06.4.4,0,0,0,.4-.4V252A.4.4,0,0,0,777.26,251.64Z"/><rect class="cls-25" x="730.69" y="239.66" width="54.78" height="11.02" rx="2.24" ry="2.24"/><path class="cls-17" d="M736.2,249.36a4.19,4.19,0,0,1-4.19-4.19h0A4.19,4.19,0,0,1,736.2,241H780a4.19,4.19,0,0,1,4.19,4.19h0a4.19,4.19,0,0,1-4.19,4.19Z"/><rect class="cls-26" x="754.86" y="221.63" width="6.45" height="45.56" rx="2.92" ry="2.92" transform="translate(1002.49 -513.68) rotate(90)"/><path class="cls-10" d="M783.23,249.87H732.94a2.24,2.24,0,0,1-2.24-2.24v.8a2.24,2.24,0,0,0,2.24,2.24h50.29a2.24,2.24,0,0,0,2.24-2.24v-.8A2.24,2.24,0,0,1,783.23,249.87Z"/><path class="cls-15" d="M783.23,239.66H732.94a2.24,2.24,0,0,0-2.24,2.24v.8a2.24,2.24,0,0,1,2.24-2.24h50.29a2.24,2.24,0,0,1,2.24,2.24v-.8A2.24,2.24,0,0,0,783.23,239.66Z"/><path class="cls-17" d="M735.6,250.36a.4.4,0,0,1-.4-.4V241a.4.4,0,0,1,.8,0V250A.4.4,0,0,1,735.6,250.36Z"/><path class="cls-10" d="M735.6,240.63a.39.39,0,0,0-.2.06.4.4,0,0,1,.2.34V250a.4.4,0,0,1-.2.34.39.39,0,0,0,.2.06.4.4,0,0,0,.4-.4V241A.4.4,0,0,0,735.6,240.63Z"/><path class="cls-17" d="M742,250.36a.4.4,0,0,1-.4-.4V241a.4.4,0,0,1,.8,0V250A.4.4,0,0,1,742,250.36Z"/><path class="cls-10" d="M742,240.63a.39.39,0,0,0-.2.06.4.4,0,0,1,.2.34V250a.4.4,0,0,1-.2.34.39.39,0,0,0,.2.06.4.4,0,0,0,.4-.4V241A.4.4,0,0,0,742,240.63Z"/><path class="cls-17" d="M748.45,250.36a.4.4,0,0,1-.4-.4V241a.4.4,0,0,1,.8,0V250A.4.4,0,0,1,748.45,250.36Z"/><path class="cls-10" d="M748.45,240.63a.39.39,0,0,0-.2.06.4.4,0,0,1,.2.34V250a.4.4,0,0,1-.2.34.39.39,0,0,0,.2.06.4.4,0,0,0,.4-.4V241A.4.4,0,0,0,748.45,240.63Z"/><path class="cls-17" d="M754.87,250.36a.4.4,0,0,1-.4-.4V241a.4.4,0,0,1,.8,0V250A.4.4,0,0,1,754.87,250.36Z"/><path class="cls-10" d="M754.87,240.63a.39.39,0,0,0-.2.06.4.4,0,0,1,.2.34V250a.4.4,0,0,1-.2.34.39.39,0,0,0,.2.06.4.4,0,0,0,.4-.4V241A.4.4,0,0,0,754.87,240.63Z"/><path class="cls-17" d="M761.3,250.36a.4.4,0,0,1-.4-.4V241a.4.4,0,0,1,.8,0V250A.4.4,0,0,1,761.3,250.36Z"/><path class="cls-10" d="M761.3,240.63a.39.39,0,0,0-.2.06.4.4,0,0,1,.2.34V250a.4.4,0,0,1-.2.34.39.39,0,0,0,.2.06.4.4,0,0,0,.4-.4V241A.4.4,0,0,0,761.3,240.63Z"/><path class="cls-17" d="M767.72,250.36a.4.4,0,0,1-.4-.4V241a.4.4,0,0,1,.8,0V250A.4.4,0,0,1,767.72,250.36Z"/><path class="cls-10" d="M767.72,240.63a.39.39,0,0,0-.2.06.4.4,0,0,1,.2.34V250a.4.4,0,0,1-.2.34.39.39,0,0,0,.2.06.4.4,0,0,0,.4-.4V241A.4.4,0,0,0,767.72,240.63Z"/><path class="cls-17" d="M774.14,250.36a.4.4,0,0,1-.4-.4V241a.4.4,0,0,1,.8,0V250A.4.4,0,0,1,774.14,250.36Z"/><path class="cls-10" d="M774.14,240.63a.39.39,0,0,0-.2.06.4.4,0,0,1,.2.34V250a.4.4,0,0,1-.2.34.39.39,0,0,0,.2.06.4.4,0,0,0,.4-.4V241A.4.4,0,0,0,774.14,240.63Z"/><path class="cls-17" d="M780.57,250.36a.4.4,0,0,1-.4-.4V241a.4.4,0,0,1,.8,0V250A.4.4,0,0,1,780.57,250.36Z"/><path class="cls-10" d="M780.57,240.63a.39.39,0,0,0-.2.06.4.4,0,0,1,.2.34V250a.4.4,0,0,1-.2.34.39.39,0,0,0,.2.06.4.4,0,0,0,.4-.4V241A.4.4,0,0,0,780.57,240.63Z"/><rect class="cls-25" x="735" y="228.64" width="54.78" height="11.02" rx="2.24" ry="2.24"/><path class="cls-17" d="M740.5,238.34a4.19,4.19,0,0,1-4.19-4.19h0A4.19,4.19,0,0,1,740.5,230h43.76a4.19,4.19,0,0,1,4.19,4.19h0a4.19,4.19,0,0,1-4.19,4.19Z"/><rect class="cls-26" x="759.16" y="210.61" width="6.45" height="45.56" rx="2.92" ry="2.92" transform="translate(995.77 -529) rotate(90)"/><path class="cls-10" d="M787.53,238.85H737.24a2.24,2.24,0,0,1-2.24-2.24v.8a2.24,2.24,0,0,0,2.24,2.24h50.29a2.24,2.24,0,0,0,2.24-2.24v-.8A2.24,2.24,0,0,1,787.53,238.85Z"/><path class="cls-15" d="M787.53,228.64H737.24a2.24,2.24,0,0,0-2.24,2.24v.8a2.24,2.24,0,0,1,2.24-2.24h50.29a2.24,2.24,0,0,1,2.24,2.24v-.8A2.24,2.24,0,0,0,787.53,228.64Z"/><path class="cls-17" d="M739.9,239.35a.4.4,0,0,1-.4-.4V230a.4.4,0,0,1,.8,0v8.93A.4.4,0,0,1,739.9,239.35Z"/><path class="cls-10" d="M739.9,229.61a.39.39,0,0,0-.2.06.4.4,0,0,1,.2.34v8.93a.4.4,0,0,1-.2.34.39.39,0,0,0,.2.06.4.4,0,0,0,.4-.4V230A.4.4,0,0,0,739.9,229.61Z"/><path class="cls-17" d="M746.33,239.35a.4.4,0,0,1-.4-.4V230a.4.4,0,0,1,.8,0v8.93A.4.4,0,0,1,746.33,239.35Z"/><path class="cls-10" d="M746.33,229.61a.39.39,0,0,0-.2.06.4.4,0,0,1,.2.34v8.93a.4.4,0,0,1-.2.34.39.39,0,0,0,.2.06.4.4,0,0,0,.4-.4V230A.4.4,0,0,0,746.33,229.61Z"/><path class="cls-17" d="M752.75,239.35a.4.4,0,0,1-.4-.4V230a.4.4,0,0,1,.8,0v8.93A.4.4,0,0,1,752.75,239.35Z"/><path class="cls-10" d="M752.75,229.61a.39.39,0,0,0-.2.06.4.4,0,0,1,.2.34v8.93a.4.4,0,0,1-.2.34.39.39,0,0,0,.2.06.4.4,0,0,0,.4-.4V230A.4.4,0,0,0,752.75,229.61Z"/><path class="cls-17" d="M759.17,239.35a.4.4,0,0,1-.4-.4V230a.4.4,0,0,1,.8,0v8.93A.4.4,0,0,1,759.17,239.35Z"/><path class="cls-10" d="M759.17,229.61a.39.39,0,0,0-.2.06.4.4,0,0,1,.2.34v8.93a.4.4,0,0,1-.2.34.39.39,0,0,0,.2.06.4.4,0,0,0,.4-.4V230A.4.4,0,0,0,759.17,229.61Z"/><path class="cls-17" d="M765.6,239.35a.4.4,0,0,1-.4-.4V230a.4.4,0,0,1,.8,0v8.93A.4.4,0,0,1,765.6,239.35Z"/><path class="cls-10" d="M765.6,229.61a.39.39,0,0,0-.2.06.4.4,0,0,1,.2.34v8.93a.4.4,0,0,1-.2.34.39.39,0,0,0,.2.06.4.4,0,0,0,.4-.4V230A.4.4,0,0,0,765.6,229.61Z"/><path class="cls-17" d="M772,239.35a.4.4,0,0,1-.4-.4V230a.4.4,0,0,1,.8,0v8.93A.4.4,0,0,1,772,239.35Z"/><path class="cls-10" d="M772,229.61a.39.39,0,0,0-.2.06.4.4,0,0,1,.2.34v8.93a.4.4,0,0,1-.2.34.39.39,0,0,0,.2.06.4.4,0,0,0,.4-.4V230A.4.4,0,0,0,772,229.61Z"/><path class="cls-17" d="M778.44,239.35a.4.4,0,0,1-.4-.4V230a.4.4,0,0,1,.8,0v8.93A.4.4,0,0,1,778.44,239.35Z"/><path class="cls-10" d="M778.44,229.61a.39.39,0,0,0-.2.06.4.4,0,0,1,.2.34v8.93a.4.4,0,0,1-.2.34.39.39,0,0,0,.2.06.4.4,0,0,0,.4-.4V230A.4.4,0,0,0,778.44,229.61Z"/><path class="cls-17" d="M784.87,239.35a.4.4,0,0,1-.4-.4V230a.4.4,0,0,1,.8,0v8.93A.4.4,0,0,1,784.87,239.35Z"/><path class="cls-10" d="M784.87,229.61a.39.39,0,0,0-.2.06.4.4,0,0,1,.2.34v8.93a.4.4,0,0,1-.2.34.39.39,0,0,0,.2.06.4.4,0,0,0,.4-.4V230A.4.4,0,0,0,784.87,229.61Z"/><rect class="cls-25" x="729.92" y="217.62" width="54.78" height="11.02" rx="2.24" ry="2.24"/><path class="cls-17" d="M735.43,227.32a4.19,4.19,0,0,1-4.19-4.19h0a4.19,4.19,0,0,1,4.19-4.19h43.76a4.19,4.19,0,0,1,4.19,4.19h0a4.19,4.19,0,0,1-4.19,4.19Z"/><rect class="cls-26" x="754.08" y="199.59" width="6.45" height="45.56" rx="2.92" ry="2.92" transform="translate(979.68 -534.94) rotate(90)"/><path class="cls-10" d="M782.45,227.84H732.16a2.24,2.24,0,0,1-2.24-2.24v.8a2.24,2.24,0,0,0,2.24,2.24h50.29a2.24,2.24,0,0,0,2.24-2.24v-.8A2.24,2.24,0,0,1,782.45,227.84Z"/><path class="cls-15" d="M782.45,217.62H732.16a2.24,2.24,0,0,0-2.24,2.24v.8a2.24,2.24,0,0,1,2.24-2.24h50.29a2.24,2.24,0,0,1,2.24,2.24v-.8A2.24,2.24,0,0,0,782.45,217.62Z"/><path class="cls-17" d="M734.82,228.33a.4.4,0,0,1-.4-.4V219a.4.4,0,1,1,.8,0v8.93A.4.4,0,0,1,734.82,228.33Z"/><path class="cls-10" d="M734.82,218.59a.39.39,0,0,0-.2.06.4.4,0,0,1,.2.34v8.93a.4.4,0,0,1-.2.34.39.39,0,0,0,.2.06.4.4,0,0,0,.4-.4V219A.4.4,0,0,0,734.82,218.59Z"/><path class="cls-17" d="M741.25,228.33a.4.4,0,0,1-.4-.4V219a.4.4,0,1,1,.8,0v8.93A.4.4,0,0,1,741.25,228.33Z"/><path class="cls-10" d="M741.25,218.59a.39.39,0,0,0-.2.06.4.4,0,0,1,.2.34v8.93a.4.4,0,0,1-.2.34.39.39,0,0,0,.2.06.4.4,0,0,0,.4-.4V219A.4.4,0,0,0,741.25,218.59Z"/><path class="cls-17" d="M747.67,228.33a.4.4,0,0,1-.4-.4V219a.4.4,0,1,1,.8,0v8.93A.4.4,0,0,1,747.67,228.33Z"/><path class="cls-10" d="M747.67,218.59a.39.39,0,0,0-.2.06.4.4,0,0,1,.2.34v8.93a.4.4,0,0,1-.2.34.39.39,0,0,0,.2.06.4.4,0,0,0,.4-.4V219A.4.4,0,0,0,747.67,218.59Z"/><path class="cls-17" d="M754.1,228.33a.4.4,0,0,1-.4-.4V219a.4.4,0,1,1,.8,0v8.93A.4.4,0,0,1,754.1,228.33Z"/><path class="cls-10" d="M754.1,218.59a.39.39,0,0,0-.2.06.4.4,0,0,1,.2.34v8.93a.4.4,0,0,1-.2.34.39.39,0,0,0,.2.06.4.4,0,0,0,.4-.4V219A.4.4,0,0,0,754.1,218.59Z"/><path class="cls-17" d="M760.52,228.33a.4.4,0,0,1-.4-.4V219a.4.4,0,1,1,.8,0v8.93A.4.4,0,0,1,760.52,228.33Z"/><path class="cls-10" d="M760.52,218.59a.39.39,0,0,0-.2.06.4.4,0,0,1,.2.34v8.93a.4.4,0,0,1-.2.34.39.39,0,0,0,.2.06.4.4,0,0,0,.4-.4V219A.4.4,0,0,0,760.52,218.59Z"/><path class="cls-17" d="M766.94,228.33a.4.4,0,0,1-.4-.4V219a.4.4,0,1,1,.8,0v8.93A.4.4,0,0,1,766.94,228.33Z"/><path class="cls-10" d="M766.94,218.59a.39.39,0,0,0-.2.06.4.4,0,0,1,.2.34v8.93a.4.4,0,0,1-.2.34.39.39,0,0,0,.2.06.4.4,0,0,0,.4-.4V219A.4.4,0,0,0,766.94,218.59Z"/><path class="cls-17" d="M773.37,228.33a.4.4,0,0,1-.4-.4V219a.4.4,0,1,1,.8,0v8.93A.4.4,0,0,1,773.37,228.33Z"/><path class="cls-10" d="M773.37,218.59a.39.39,0,0,0-.2.06.4.4,0,0,1,.2.34v8.93a.4.4,0,0,1-.2.34.39.39,0,0,0,.2.06.4.4,0,0,0,.4-.4V219A.4.4,0,0,0,773.37,218.59Z"/><path class="cls-17" d="M779.79,228.33a.4.4,0,0,1-.4-.4V219a.4.4,0,1,1,.8,0v8.93A.4.4,0,0,1,779.79,228.33Z"/><path class="cls-10" d="M779.79,218.59a.39.39,0,0,0-.2.06.4.4,0,0,1,.2.34v8.93a.4.4,0,0,1-.2.34.39.39,0,0,0,.2.06.4.4,0,0,0,.4-.4V219A.4.4,0,0,0,779.79,218.59Z"/><circle class="cls-15" cx="757.31" cy="194.15" r="24.3"/><circle class="cls-17" cx="757.31" cy="194.15" r="23.24"/><circle class="cls-15" cx="757.31" cy="194.15" r="17.14"/><circle class="cls-10" cx="757.31" cy="174.11" r="1.1"/><circle class="cls-25" cx="757.26" cy="174.1" r="1"/><circle class="cls-10" cx="766.05" cy="176.12" r="1.1" transform="translate(273.25 788.5) rotate(-64.12)"/><circle class="cls-25" cx="766.02" cy="176.09" r="1" transform="translate(273.23 788.42) rotate(-64.12)"/><circle class="cls-10" cx="773.05" cy="181.74" r="1.1" transform="translate(53.39 517.48) rotate(-38.24)"/><circle class="cls-25" cx="773.03" cy="181.7" r="1" transform="translate(53.42 517.49) rotate(-38.24)"/><circle class="cls-10" cx="776.88" cy="189.86" r="1.1" transform="translate(-22.63 170.73) rotate(-12.36)"/><circle class="cls-25" cx="776.88" cy="189.81" r="1" transform="translate(-22.62 170.72) rotate(-12.36)"/><circle class="cls-10" cx="776.79" cy="198.83" r="1.1" transform="matrix(0.23, -0.97, 0.97, 0.23, 401.89, 907.63)"/><circle class="cls-25" cx="776.81" cy="198.79" r="1" transform="translate(401.93 907.61) rotate(-76.48)"/><circle class="cls-10" cx="772.79" cy="206.87" r="1.1" transform="translate(122.45 672.76) rotate(-50.6)"/><circle class="cls-25" cx="772.83" cy="206.84" r="1" transform="translate(122.47 672.76) rotate(-50.6)"/><circle class="cls-10" cx="765.69" cy="212.35" r="1.1" transform="translate(-18.63 339.72) rotate(-24.72)"/><circle class="cls-25" cx="765.73" cy="212.34" r="1" transform="translate(-18.62 339.73) rotate(-24.72)"/><circle class="cls-10" cx="756.9" cy="214.19" r="1.1" transform="translate(527.52 966.63) rotate(-88.85)"/><circle class="cls-25" cx="756.95" cy="214.2" r="1" transform="translate(527.52 966.67) rotate(-88.84)"/><circle class="cls-10" cx="748.2" cy="212" r="1.1" transform="translate(219.28 782.08) rotate(-62.97)"/><circle class="cls-25" cx="748.23" cy="212.03" r="1" transform="translate(219.26 782.12) rotate(-62.96)"/><circle class="cls-10" cx="741.32" cy="206.23" r="1.1" transform="translate(25.59 488.76) rotate(-37.09)"/><circle class="cls-25" cx="741.34" cy="206.28" r="1" transform="translate(25.56 488.76) rotate(-37.09)"/><circle class="cls-10" cx="737.65" cy="198.04" r="1.1" transform="translate(-24.43 147.15) rotate(-11.21)"/><circle class="cls-25" cx="737.65" cy="198.09" r="1" transform="translate(-24.43 147.11) rotate(-11.2)"/><circle class="cls-10" cx="737.92" cy="189.07" r="1.1" transform="translate(368.08 855.03) rotate(-75.33)"/><circle class="cls-25" cx="737.9" cy="189.11" r="1" transform="translate(368.02 855.03) rotate(-75.32)"/><circle class="cls-10" cx="742.08" cy="181.12" r="1.1" transform="translate(122 627.2) rotate(-49.45)"/><circle class="cls-25" cx="742.04" cy="181.15" r="1" transform="translate(121.99 627.22) rotate(-49.45)"/><circle class="cls-10" cx="749.29" cy="175.78" r="1.1" transform="translate(-7.78 314.27) rotate(-23.57)"/><circle class="cls-25" cx="749.25" cy="175.79" r="1" transform="translate(-7.79 314.25) rotate(-23.57)"/><text class="cls-27" transform="translate(749.09 204.11)">$</text><path class="cls-17" d="M975.51,81.44a3.69,3.69,0,0,0,1.38,2.88h6.22a3.67,3.67,0,0,0,1.38-2.87h0a4.76,4.76,0,0,1,1.37-3.32,8.17,8.17,0,1,0-11.67,0,4.67,4.67,0,0,1,1.33,3.27Z"/><path class="cls-25" d="M985.07,72.44a8.12,8.12,0,0,1-2.31,5.69,4.76,4.76,0,0,0-1.37,3.32h0A3.67,3.67,0,0,1,980,84.32h3.08a3.67,3.67,0,0,0,1.38-2.87h0a4.76,4.76,0,0,1,1.37-3.32,8.17,8.17,0,0,0-7.39-13.71A8.17,8.17,0,0,1,985.07,72.44Z"/><path class="cls-28" d="M987.75,72.44a8.12,8.12,0,0,1-2.31,5.69,4.76,4.76,0,0,0-1.37,3.32h0a3.67,3.67,0,0,1-1.38,2.87h.41a3.67,3.67,0,0,0,1.38-2.87h0a4.76,4.76,0,0,1,1.37-3.32,8.17,8.17,0,0,0-6.06-13.86A8.16,8.16,0,0,1,987.75,72.44Z"/><path class="cls-15" d="M975.51,81.44a3.69,3.69,0,0,0,1.38,2.88h.82a3.69,3.69,0,0,1-1.31-2.83h0a4.67,4.67,0,0,0-1.33-3.27,8.16,8.16,0,0,1,5.58-13.89h.27a8.28,8.28,0,0,0-1.15,0,8.16,8.16,0,0,0-5.58,13.89,4.67,4.67,0,0,1,1.33,3.27Z"/><ellipse class="cls-28" cx="977.7" cy="70.02" rx="5.26" ry="3.79" transform="matrix(0.62, -0.79, 0.79, 0.62, 318.21, 795.19)"/><ellipse class="cls-28" cx="976.94" cy="77" rx="1.54" ry="2.13" transform="translate(92.4 498.81) rotate(-30)"/><path class="cls-14" d="M980.44,86.94h-1a2.62,2.62,0,0,1-2.62-2.62h6.22A2.62,2.62,0,0,1,980.44,86.94Z"/><path class="cls-21" d="M982,85.21h-4.08a.17.17,0,0,1-.17-.17h0a.17.17,0,0,1,.17-.17H982a.17.17,0,0,1,.17.17h0A.17.17,0,0,1,982,85.21Z"/><path class="cls-21" d="M982,85.84H978a.17.17,0,0,1-.17-.17h0a.17.17,0,0,1,.17-.17H982a.17.17,0,0,1,.17.17h0A.17.17,0,0,1,982,85.84Z"/><path class="cls-29" d="M980.7,84.32l.77-6.33a1.13,1.13,0,0,1,1.12-1h0a1.13,1.13,0,0,1,1.13,1.13h0a1.13,1.13,0,0,1-1.13,1.13H977.3a1.13,1.13,0,0,1-1.13-1.13h0A1.13,1.13,0,0,1,977.3,77h0a1.13,1.13,0,0,1,1.12,1l.77,6.33"/><path class="cls-17" d="M808.51,136.41a3.69,3.69,0,0,0,1.38,2.88h6.22a3.67,3.67,0,0,0,1.38-2.87h0a4.76,4.76,0,0,1,1.37-3.32,8.17,8.17,0,1,0-11.67,0,4.67,4.67,0,0,1,1.33,3.27Z"/><path class="cls-25" d="M818.07,127.4a8.12,8.12,0,0,1-2.31,5.69,4.76,4.76,0,0,0-1.37,3.32h0a3.67,3.67,0,0,1-1.38,2.87h3.08a3.67,3.67,0,0,0,1.38-2.87h0a4.76,4.76,0,0,1,1.37-3.32,8.17,8.17,0,0,0-7.39-13.71A8.17,8.17,0,0,1,818.07,127.4Z"/><path class="cls-28" d="M820.74,127.4a8.12,8.12,0,0,1-2.31,5.69,4.76,4.76,0,0,0-1.37,3.32h0a3.67,3.67,0,0,1-1.38,2.87h.41a3.67,3.67,0,0,0,1.38-2.87h0a4.76,4.76,0,0,1,1.37-3.32,8.17,8.17,0,0,0-6.06-13.86A8.16,8.16,0,0,1,820.74,127.4Z"/><path class="cls-15" d="M808.51,136.41a3.69,3.69,0,0,0,1.38,2.88h.82a3.69,3.69,0,0,1-1.31-2.83h0a4.67,4.67,0,0,0-1.33-3.27,8.16,8.16,0,0,1,5.58-13.89h.27a8.17,8.17,0,0,0-9.08,7.68,8.16,8.16,0,0,0,2.34,6.16,4.67,4.67,0,0,1,1.33,3.27Z"/><ellipse class="cls-28" cx="810.69" cy="124.98" rx="5.26" ry="3.79" transform="translate(211.25 684.9) rotate(-51.81)"/><ellipse class="cls-28" cx="809.94" cy="131.96" rx="1.54" ry="2.13" transform="translate(42.53 422.64) rotate(-30)"/><path class="cls-14" d="M813.44,141.91h-1a2.62,2.62,0,0,1-2.62-2.62h6.22A2.62,2.62,0,0,1,813.44,141.91Z"/><path class="cls-21" d="M815,140.18h-4.08a.17.17,0,0,1-.17-.17h0a.17.17,0,0,1,.17-.17H815a.17.17,0,0,1,.17.17h0A.17.17,0,0,1,815,140.18Z"/><path class="cls-21" d="M815,140.8h-4.08a.17.17,0,0,1-.17-.17h0a.17.17,0,0,1,.17-.17H815a.17.17,0,0,1,.17.17h0A.17.17,0,0,1,815,140.8Z"/><path class="cls-29" d="M813.7,139.29l.77-6.33a1.13,1.13,0,0,1,1.12-1h0a1.13,1.13,0,0,1,1.13,1.13h0a1.13,1.13,0,0,1-1.13,1.13H810.3a1.13,1.13,0,0,1-1.13-1.13h0A1.13,1.13,0,0,1,810.3,132h0a1.13,1.13,0,0,1,1.12,1l.77,6.33"/><rect class="cls-14" x="800.45" y="259.68" width="189.84" height="13.03" rx="1.82" ry="1.82"/><ellipse id="_路徑_" data-name="&lt;路徑&gt;" class="cls-18" cx="895.24" cy="106.55" rx="8.64" ry="10.55"/><path id="_路徑_2" data-name="&lt;路徑&gt;" class="cls-18" d="M886.59,108.6v7.58c0,5.83,3.87,10.55,8.64,10.55h0c4.77,0,8.64-4.72,8.64-10.55V108.6c0-4-2.63-7.16-5.86-7.16h-5.56C889.22,101.45,886.59,104.65,886.59,108.6Z"/><path class="cls-30" d="M891.47,117.61s-7.41,5.88-8.75,13.36c-1.67,9.33,4.72,13.36,4.72,13.36l.78-4.7s-2.15-3-1.79-5.55a10.91,10.91,0,0,1,3-5.67S892.7,123.38,891.47,117.61Z"/><path class="cls-31" d="M889.69,124.2l1.5-6.34s-5.91,4.94-4.53,15.14h0a11.36,11.36,0,0,1,2.75-4.6l.09-.22Z"/><path class="cls-30" d="M899.44,117.61s7.41,5.88,8.75,13.36c1.67,9.33-4.72,13.36-4.72,13.36l-.78-4.7s2.15-3,1.79-5.55a10.91,10.91,0,0,0-3-5.67S898.2,123.38,899.44,117.61Z"/><path class="cls-31" d="M901.22,124.2l-1.5-6.34s5.91,4.94,4.52,15.14h0a11.36,11.36,0,0,0-2.75-4.6l-.09-.22Z"/><path class="cls-32" d="M900.32,118.29c-1.09-.46-2.9-1.5-2.89-3.28a4.93,4.93,0,0,1-1.7.5,3.35,3.35,0,0,1-1.69-.62s-1.47,2.71-3.33,3.46a.65.65,0,0,0-.39.65,5.85,5.85,0,0,0,5.4,4.82c2.17,0,4.64-2.15,5.27-4.11A1.16,1.16,0,0,0,900.32,118.29Z"/><path class="cls-30" d="M903.84,129a11.7,11.7,0,0,0-4.49-11.78c-.21-.15-1.6-.87-1.61-1a3.11,3.11,0,0,1-1.84,1.66,1.77,1.77,0,0,1-1.38,0c-1.39-.62-1.36-1.66-1.36-1.66,0,.17-1.39.89-1.61,1A11.7,11.7,0,0,0,887.07,129a7.33,7.33,0,0,0,1.21,2.3,6,6,0,0,1,1.08,3c.13,2.5-.76,4.72-1.52,7.1a20.27,20.27,0,0,0,7.2,1.32h.32a22.88,22.88,0,0,0,7.72-1.32c-.76-2.38-1.64-4.6-1.52-7.1C901.67,132.22,903.37,131,903.84,129Z"/><path class="cls-33" d="M888.39,133.85c.12,2,.28,4.11.47,6.42l4,.54,9.44-1a11.66,11.66,0,0,0,1.23-1.32c.13-1.68.25-3.25.34-4.73A24.46,24.46,0,0,1,888.39,133.85Z"/><path class="cls-3" d="M886.33,131.28h18.13a1.58,1.58,0,0,1,1.58,1.58v12.76a0,0,0,0,1,0,0H884.75a0,0,0,0,1,0,0V132.86A1.58,1.58,0,0,1,886.33,131.28Z"/><path class="cls-34" d="M895.35,144.6a26.67,26.67,0,0,0-10.61-6.15v2Z"/><path class="cls-35" d="M895.43,144.6A26.67,26.67,0,0,1,906,138.45v2Z"/><path class="cls-13" d="M916.33,144.87a2.66,2.66,0,0,0,.76-3.75,6.47,6.47,0,0,0-5.83-2.66c-4.4.07-8.53,2.06-12.34,4.07a94.75,94.75,0,0,1-12.2,5.2c-.6.21-6,1.5-6,2.19v2.76c0-.13,10.87-1.4,11.55-1.49,4.32-.63,8.63-1.33,12.89-2.27C909.1,148,912.89,147.07,916.33,144.87Z"/><path class="cls-14" d="M895.12,144.37c-1.83-.79-3.65-1.61-5.47-2.42-3.68-1.64-7.34-3.42-11.45-3.49-2.3,0-5.45.87-6.15,3.42-.41,1.5.67,2.6,1.91,3.23a38.15,38.15,0,0,0,9.88,3.49c11,2.46,26.16,4.09,26.16,4.09v-2.76a20,20,0,0,0-3-1.08c-2-.73-4-1.46-6.06-2.16S897,145.2,895.12,144.37Z"/><path class="cls-18" d="M910,152.68s6.45,1.31,8.07,1.14,1.06-4,.31-4.5-3,1-4.63.38c-1.3-.52-3.75.21-3.75.21Z"/><path class="cls-18" d="M880.71,152.66s-6.45,1.31-8.07,1.14-1.06-4-.31-4.5,3,1,4.63.38c1.3-.52,3.75.21,3.75.21Z"/><path class="cls-11" d="M901.09,101a1.16,1.16,0,0,0-.77-1c-1.25-.44-3.81-1.27-4.86-1.13-1.05-.13-3.62.7-4.86,1.13a1.16,1.16,0,0,0-.77,1c-.18,2.19-.64,8.6.07,10.78s4,3.55,5.18,4a1.14,1.14,0,0,0,.78,0c1.15-.42,4.47-1.79,5.18-4S901.28,103.24,901.09,101Z"/><path id="_路徑_3" data-name="&lt;路徑&gt;" class="cls-18" d="M896.28,97.35s-.82,4.75,6.24,11C902.52,108.31,903.83,99,896.28,97.35Z"/><path id="_路徑_4" data-name="&lt;路徑&gt;" class="cls-18" d="M897.93,97.53c-2.3-1.35-5-.63-6.89,1.16-4,3.68-3.06,9.77-3.06,14.95a34.59,34.59,0,0,0,.51,7.18,4.72,4.72,0,0,0,2.88,3.48c-2.49-3.19-2.61-8.32-2.61-10.74v-2.33a5,5,0,0,1,2.49-4.59A11.41,11.41,0,0,0,897.93,97.53Z"/><path class="cls-36" d="M778.21,125.65l1.63-9.75-6.55-1.09a13.5,13.5,0,0,0-.73-2.34l4.83-4.57-6.79-7.18-4.85,4.59c-.36-.17-.72-.32-1.09-.45l-.13-6.68-9.88.19.13,6.65c-.38.16-.72.37-1.09.56l-5.05-4.4-6.49,7.45,5,4.4a13.42,13.42,0,0,0-.62,2.33L740,116.72l2,9.67,6.51-1.36a13.61,13.61,0,0,0,1.52,1.9l-2.85,6,8.94,4.22,2.86-6.06c.31,0,.61.09.92.09a13.37,13.37,0,0,0,1.47-.15l3.11,5.95,8.76-4.58-3.11-5.94a13.55,13.55,0,0,0,1.42-1.94Zm-18.27-.23a7.74,7.74,0,1,1,7.74-7.74A7.74,7.74,0,0,1,759.94,125.42Z"/><path class="cls-36" d="M798.82,89.67,799.6,85l-3.15-.53a6.48,6.48,0,0,0-.35-1.12l2.32-2.2-3.26-3.45-2.33,2.21c-.17-.08-.35-.15-.52-.22l-.06-3.21-4.75.09.06,3.19c-.18.08-.35.18-.52.27l-2.43-2.11-3.12,3.58,2.42,2.11a6.43,6.43,0,0,0-.3,1.12l-3.14.66,1,4.65,3.13-.66a6.54,6.54,0,0,0,.73.91l-1.37,2.9,4.29,2,1.37-2.91c.15,0,.29,0,.44,0a6.43,6.43,0,0,0,.71-.07l1.49,2.86,4.21-2.2L795,90.07a6.51,6.51,0,0,0,.68-.93ZM790,89.56a3.72,3.72,0,1,1,3.72-3.72A3.72,3.72,0,0,1,790,89.56Z"/></g></g></g></svg>