<svg xmlns="http://www.w3.org/2000/svg" viewBox="0 0 186.99 49.72"><defs><style>.cls-1{fill:#633389;}.cls-2{fill:#3cacdd;}.cls-3{fill:#6c4a93;}</style></defs><title>工作區域 2</title><g id="Layer_1" data-name="Layer 1"><path class="cls-1" d="M65.86,22.32l1.59,5.26H64.27Zm2.66,8.73L70,35.5h4.86L68.64,18.37H63.18L57,35.5h4.74l1.44-4.44Z"/><path class="cls-1" d="M78.66,17.26H74.19V30.81c0,1,0,1.66,0,2.36.1,1.76,1.27,2.58,3.32,2.58,1,0,1.79,0,2.61-.12v-3c-1.17,0-1.39-.12-1.46-.65a7.74,7.74,0,0,1,0-1.22Z"/><path class="cls-1" d="M87.54,32.82c-1.34,0-2.7-.89-2.7-3.55V28.7c0-2.78,1.19-3.77,2.83-3.77s2.8,1.39,2.8,3.87C90.47,31.5,89.28,32.82,87.54,32.82ZM89.2,21.9a6.06,6.06,0,0,0-3.37.82l-1,1.46V22.25H80.37V40.36h4.47V33.78l.87,1.41a6.87,6.87,0,0,0,3.05.65c3.4,0,6.28-2.56,6.28-7.27C95,24.65,92.8,21.9,89.2,21.9Z"/><path class="cls-1" d="M108.8,25.5c-.35-2.31-2-3.6-4.69-3.6a5.53,5.53,0,0,0-3,.77L99.95,24.3V17.13H95.48V35.5h4.47V29.24c0-3,1-4.32,2.33-4.32a2,2,0,0,1,2.13,2c0,.67,0,1.39,0,1.81V35.5h4.47V28A17.45,17.45,0,0,0,108.8,25.5Z"/><path class="cls-1" d="M115.45,32.82c-.89,0-1.51-.45-1.51-1.24,0-1.32,1.44-1.84,3.45-1.69v.87A2,2,0,0,1,115.45,32.82Zm2.28,2.68h4.37a22.81,22.81,0,0,1-.25-3.35V28.42c0-.82,0-1.59-.07-2.26-.2-2.41-1.64-4.27-5.83-4.27-3.35,0-6.1,1.76-6.13,4.86l4.22,0c.07-1.14.67-1.81,1.71-1.81a1.46,1.46,0,0,1,1.59,1.27,7.37,7.37,0,0,1,0,1v.2h-.84c-4.49,0-7.17,1.74-7.17,4.57a3.94,3.94,0,0,0,4.24,3.92,6.06,6.06,0,0,0,3.28-.89l.55-1.39Z"/><path class="cls-2" d="M129.71,18c-3.4,0-6.48,1.86-6.48,5.16s2.28,4.64,6.18,5.61c2.11.52,2.75,1.29,2.75,2.18s-.94,1.59-2.18,1.59a2.8,2.8,0,0,1-3-2.31h-4.47c.27,3.85,3.2,5.58,7.54,5.58,3.45,0,6.72-1.74,6.72-5.16,0-2.63-1.54-4.52-5.31-5.41-2.83-.67-3.62-1.34-3.62-2.43s.69-1.54,1.71-1.54c1.46,0,2.21.94,2.41,2.36h4.47C136.11,20.48,134.22,18,129.71,18Z"/><path class="cls-2" d="M142.46,25.12h2.93V22.34h-2.93V18.92H138v3.42h-2.11v2.78H138v5.53c0,.74,0,1.36,0,2.13.15,2,1.14,3.05,4.44,3.05a15,15,0,0,0,2.63-.22V32.84c-2.11.1-2.53-.2-2.63-1.54,0-.35,0-.84,0-1.29Z"/><path class="cls-2" d="M151.91,32.82c-1.59,0-2.56-1.32-2.56-3.95s1-3.95,2.56-3.95,2.56,1.29,2.56,3.95S153.5,32.82,151.91,32.82Zm0-10.92c-4.34,0-7.12,2.7-7.12,7s2.78,7,7.12,7,7.12-2.73,7.12-7S156.25,21.9,151.91,21.9Z"/><path class="cls-2" d="M165.7,21.9c-3.9,0-7,2.56-7,7.12,0,4.37,2.88,6.82,6.67,6.82,3.6,0,6.25-1.79,6.75-5.21h-4.39c-.25,1.44-1.09,2.18-2.11,2.18-1.51,0-2.36-1.24-2.36-4.07,0-2.56.82-3.82,2.31-3.82,1.12,0,2,.65,2.18,2.38h4.32C172,24.33,169.6,21.9,165.7,21.9Z"/><polygon class="cls-2" points="177.96 30.58 181.51 35.49 186.99 35.49 181.31 28.32 186.92 22.25 181.68 22.25 177.02 27.8 177.02 17.26 172.55 17.26 172.55 35.49 177.02 35.49 177.02 31.63 177.96 30.58"/><path class="cls-3" d="M40.78,38.21h0L36,29.84a.64.64,0,0,0-1-.14L32.7,32a.64.64,0,0,0-.11.78l4.5,7.95a.85.85,0,0,1-.24,1.11,20.78,20.78,0,0,1-23.16.56.64.64,0,0,0-.91.22L11.41,45a.65.65,0,0,0,.21.86,24.87,24.87,0,0,0,31-3.6.65.65,0,0,0,.1-.77Z"/><path class="cls-3" d="M18.92,29.61h-.37a.64.64,0,0,0,.56-.33l5.36-9.46a.45.45,0,0,1,.79,0l3.43,6a.64.64,0,0,0,1,.14L32,23.72a.64.64,0,0,0,.11-.77L25.26,10.79a.45.45,0,0,0-.79,0L14.35,28.65a.64.64,0,0,0,.56,1Z"/><path class="cls-2" d="M24.13,0A24.86,24.86,0,0,0,9.64,44.52a.64.64,0,0,0,.95-.2l5-8.88a.89.89,0,0,1,.77-.45H27.66a1,1,0,0,0,.73-.3l11.29-11.1a.25.25,0,0,1,.35,0l.47.47a.36.36,0,0,0,.62-.23l.36-4.72a.36.36,0,0,0-.4-.39l-4.79.3a.36.36,0,0,0-.22.62l.61.6a.25.25,0,0,1,0,.35l-10,9.85a1,1,0,0,1-.73.3H13.69a.89.89,0,0,0-.77.45l-4,7A20.77,20.77,0,1,1,41.75,37a.64.64,0,0,0,0,.69l1.51,2.66a.64.64,0,0,0,1.05.09A24.86,24.86,0,0,0,24.13,0Z"/></g></svg>