<svg xmlns="http://www.w3.org/2000/svg" viewBox="0 0 20.48 20.6"><defs><style>.cls-1{fill:#fff;}</style></defs><title>工作區域 4</title><g id="Layer_1" data-name="Layer 1"><path class="cls-1" d="M16.05,5.6a8.61,8.61,0,1,1-1.25-1.21l-1.9,1.9a5.94,5.94,0,1,0,1.26,1.2l-.62.62a5.07,5.07,0,1,1-1.26-1.2L9.86,9.33a1.84,1.84,0,1,0,1.32,1.14L9.93,11.72a.43.43,0,0,1-.63-.6l9.27-9.27a.43.43,0,0,0-.42-.73L17.94.3a.41.41,0,0,0-.68-.19L15.89,1.49a.92.92,0,0,0-.24.88l.24.93-.46.46A9.47,9.47,0,0,0,2.77,17.82a9.47,9.47,0,0,0,16.16-6.7A9.4,9.4,0,0,0,16.67,5Z"/><path class="cls-1" d="M20.17,2.47l-.93-.24L17,4.48l1.11.29A.92.92,0,0,0,19,4.53l1.37-1.37A.41.41,0,0,0,20.17,2.47Z"/></g></svg>