<svg xmlns="http://www.w3.org/2000/svg" viewBox="0 0 19.61 19.54"><defs><style>.cls-1{fill:#633389;}</style></defs><title>工作區域 2</title><g id="Layer_1" data-name="Layer 1"><path class="cls-1" d="M19.18,18.78H.88V.43A.44.44,0,0,0,0,.43V19.17a.4.4,0,0,0,.44.38H19.18a.39.39,0,1,0,0-.77Z"/><path class="cls-1" d="M2.47,8.42,4.95,9.78a.43.43,0,0,0,.53-.1l1.69-2L9,9.1a.43.43,0,0,0,.53,0l2-1.67,2.19,1.26a.43.43,0,0,0,.36,0l2.35-.83a.43.43,0,0,0,.21-.16l2.35-3.45a.43.43,0,0,0-.71-.48L16.07,7.13l-2,.72L11.76,6.54a.43.43,0,0,0-.48,0l-2,1.64L7.37,6.73a.43.43,0,0,0-.59.06L5,8.86,2.88,7.67a.43.43,0,0,0-.41.75Z"/><path class="cls-1" d="M18.59,11.22l-2.22.57-2.23-.88a.43.43,0,0,0-.38,0l-2.3,1.42-2-.43L7.31,10.75a.43.43,0,0,0-.55.12L4.9,13.37,2.57,14a.43.43,0,0,0,.11.84h.11l2.47-.64A.43.43,0,0,0,5.49,14l1.73-2.33,1.85,1,.12,0,2.27.48a.43.43,0,0,0,.31-.05L14,11.79l2.16.85a.43.43,0,0,0,.26,0l2.35-.61a.43.43,0,1,0-.21-.83Z"/></g></svg>