<svg xmlns="http://www.w3.org/2000/svg" viewBox="0 0 19.13 17.55"><defs><style>.cls-1{fill:#fff;}</style></defs><title>工作區域 5</title><g id="Layer_1" data-name="Layer 1"><path class="cls-1" d="M18,12.86a.44.44,0,0,0,.44-.44V1.12A.44.44,0,0,0,18,.68H1.12a.44.44,0,0,0-.44.44v11.3a.44.44,0,0,0,.44.44Zm-3.37,4.68H4.48a.63.63,0,0,1-.63-.63v-1a.63.63,0,0,1,.63-.63H7.64V13.54H1.12A1.12,1.12,0,0,1,0,12.42V1.12A1.12,1.12,0,0,1,1.12,0H18a1.12,1.12,0,0,1,1.12,1.12v11.3A1.12,1.12,0,0,1,18,13.54H11.48v1.72h3.16a.63.63,0,0,1,.63.63v1a.63.63,0,0,1-.63.63ZM4.53,16.87H14.6v-.94H11.15a.34.34,0,0,1-.34-.34V13.54H8.32V15.6a.34.34,0,0,1-.34.34H4.53v.94Zm4.32-5.56a.71.71,0,1,1,.71.71.71.71,0,0,1-.71-.71Zm8.4-1.55H1.88a.34.34,0,0,1-.34-.34V1.81a.34.34,0,0,1,.34-.34H17.25a.34.34,0,0,1,.34.34V9.42a.34.34,0,0,1-.34.34Zm-15-.67h14.7V2.15H2.21V9.08Z"/></g></svg>