<svg xmlns="http://www.w3.org/2000/svg" xmlns:xlink="http://www.w3.org/1999/xlink" viewBox="0 0 994.45 289"><defs><style>.cls-1,.cls-17,.cls-18,.cls-19,.cls-68,.cls-69{fill:none;}.cls-2{isolation:isolate;}.cls-24,.cls-25,.cls-26,.cls-3,.cls-30,.cls-31{fill:#fff;}.cls-4{clip-path:url(#clip-path);}.cls-16,.cls-36,.cls-48,.cls-5,.cls-6,.cls-9{fill:#00a4d6;}.cls-5{opacity:0.15;}.cls-17,.cls-19,.cls-6{opacity:0.1;}.cls-7{fill:#78e2ff;}.cls-8{fill:url(#Fading_Sky_2);}.cls-11,.cls-13,.cls-16,.cls-22,.cls-24,.cls-28,.cls-9{opacity:0.2;}.cls-34,.cls-36,.cls-46,.cls-54,.cls-62,.cls-9{mix-blend-mode:multiply;}.cls-10{fill:url(#Fading_Sky_2-2);}.cls-12,.cls-13{fill:#18bdf7;}.cls-14,.cls-20{fill:#4a63fe;}.cls-14{opacity:0.26;}.cls-15,.cls-26{opacity:0.8;}.cls-17,.cls-18,.cls-19{stroke:#00a4d6;}.cls-17,.cls-18,.cls-19,.cls-68,.cls-69{stroke-miterlimit:10;}.cls-17{stroke-width:1.63px;}.cls-18{stroke-width:0.41px;}.cls-18,.cls-27,.cls-30,.cls-36,.cls-47,.cls-56{opacity:0.5;}.cls-19{stroke-width:2.55px;}.cls-21{fill:#425de2;}.cls-22{fill:#60f4df;}.cls-23{fill:#3b5bd1;}.cls-25{opacity:0.39;}.cls-27,.cls-28,.cls-32{fill:#9cd7ff;}.cls-29,.cls-31,.cls-34,.cls-46{opacity:0.3;}.cls-33{mix-blend-mode:overlay;fill:url(#linear-gradient);}.cls-35,.cls-46,.cls-54{fill:#5fb0e7;}.cls-37{fill:#ffe1bd;}.cls-38{fill:#fccb95;}.cls-39{fill:#594a5f;}.cls-40{fill:#f9b253;}.cls-41{fill:#2c1e56;}.cls-42{fill:#39297f;}.cls-43{fill:#4c4199;}.cls-44{fill:#f29127;}.cls-45{fill:#00215b;}.cls-49{fill:#3a3a3a;}.cls-50{fill:#4c4051;}.cls-51{fill:#f4d4b3;}.cls-52{fill:#1c44b5;}.cls-53{fill:#ffd1ab;}.cls-55,.cls-56{fill:#aec1ff;}.cls-57{fill:#b8ecff;}.cls-58{fill:#15a7ce;}.cls-59{fill:#ebfaff;}.cls-60{fill:#b2ebf9;}.cls-61{fill:#80d4dd;}.cls-62{opacity:0.47;fill:url(#linear-gradient-2);}.cls-63{fill:#61c5f2;}.cls-64,.cls-67{opacity:0.58;}.cls-64{fill:url(#Fading_Sky_2-3);}.cls-65{fill:#39a7d8;}.cls-66{fill:#258baf;}.cls-67{fill:url(#Fading_Sky_2-4);}.cls-68,.cls-69{stroke:#00bfd8;stroke-width:0.43px;}.cls-69{stroke-linecap:round;}</style><clipPath id="clip-path"><rect class="cls-1" width="994.45" height="289" rx="10.71" ry="10.71"/></clipPath><linearGradient id="Fading_Sky_2" x1="851.37" y1="247.71" x2="824.77" y2="221.39" gradientUnits="userSpaceOnUse"><stop offset="0" stop-color="#2484c6"/><stop offset="1" stop-color="#2484c6" stop-opacity="0"/></linearGradient><linearGradient id="Fading_Sky_2-2" x1="885.42" y1="248.76" x2="916.63" y2="219.18" xlink:href="#Fading_Sky_2"/><linearGradient id="linear-gradient" x1="758.37" y1="153.72" x2="979.41" y2="153.72" xlink:href="#Fading_Sky_2"/><linearGradient id="linear-gradient-2" x1="871.91" y1="84.34" x2="873.42" y2="84.34" gradientUnits="userSpaceOnUse"><stop offset="0" stop-color="#f7941e"/><stop offset="1" stop-color="#f7941e" stop-opacity="0"/></linearGradient><linearGradient id="Fading_Sky_2-3" x1="966.46" y1="227.24" x2="986.33" y2="227.24" xlink:href="#Fading_Sky_2"/><linearGradient id="Fading_Sky_2-4" x1="990.63" y1="221.61" x2="1018.21" y2="221.61" xlink:href="#Fading_Sky_2"/></defs><title>peterLynch-bg</title><g class="cls-2"><g id="Layer_1" data-name="Layer 1"><rect class="cls-3" width="994.45" height="289" rx="11.04" ry="11.04"/><g class="cls-4"><path class="cls-5" d="M20.11,213.41c-8.42-4.93-11.37-12.86-10.78-24.79S5,169.47-5.63,164.05V289H126.26c-.15-11.64-3-22.86-9.45-32.27-10.3-15-26.66-24-43.57-29.62a207.7,207.7,0,0,0-28.26-7C36.52,218.58,27.68,217.84,20.11,213.41Z"/><path class="cls-5" d="M-5,192.52c-.59,11.93,2.36,19.87,10.78,24.79,7.57,4.43,16.42,5.17,24.87,6.72a207.71,207.71,0,0,1,28.26,7c16.91,5.62,33.27,14.64,43.57,29.62,5.74,8.35,8.61,18.13,9.29,28.36h14.54c-.15-11.64-3-22.86-9.45-32.27-10.3-15-26.66-24-43.57-29.62a207.71,207.71,0,0,0-28.26-7c-8.45-1.54-17.29-2.29-24.87-6.72-8.42-4.93-11.37-12.86-10.78-24.79S5,169.47-5.63,164.05V184.5A30.39,30.39,0,0,1-5,192.52Z"/><path class="cls-6" d="M1054.07-4.19S989.93-61.62,923.16,1.9c-74.06,70.45-33.4,194.87-95.48,198.38S743.53,187,703.81,211.81c-46.11,28.8-36,81.16-36,81.16h386.29Z"/><path class="cls-5" d="M1024.57,193.07s-23-26.07-58.27-17.08c-53,13.52-38.58,58.62-77.66,67.85s-150.63-10.31-188.55,0S660.37,293,660.37,293h364.19Z"/><path class="cls-7" d="M856.45,248.19l-3.39-11.5s5.16-21.86-5.7-22.85c-10.31-.93-7.55,18.76-7.22,20.86-.35-2.2-4.1-24.06-13.07-20.73-10,3.72,6.09,24,6.09,24-3.62-4.68-12.94-11.6-16.22-4.28-1.43,3.2,1.64,6.17,5.55,8.51-2.5-.59-5.08-.87-5.91.14-2.31,2.83,2.42,6.12,11.51,6.3,3.29.07,5-.62,5.76-1.51l.18.06Z"/><path class="cls-8" d="M856.45,248.19l-3.39-11.5s5.16-21.86-5.7-22.85c-10.31-.93-7.55,18.76-7.22,20.86-.35-2.2-4.1-24.06-13.07-20.73-10,3.72,6.09,24,6.09,24-3.62-4.68-12.94-11.6-16.22-4.28-1.43,3.2,1.64,6.17,5.55,8.51-2.5-.59-5.08-.87-5.91.14-2.31,2.83,2.42,6.12,11.51,6.3,3.29.07,5-.62,5.76-1.51l.18.06Z"/><path class="cls-9" d="M839.76,248.81s-11.29-4.37-8.57-8.13c1.72-2.37,5,1.66,5,1.66s-4.37-5.71-.59-7.45,6,4.78,6,4.78-1.46-5.77,1.53-6.58,3.21,5.77,3.21,5.77,3.86-5.19,6.15-1.05c2.08,3.76-4.24,11.24-4.24,11.24"/><path class="cls-7" d="M923.08,243.94c.19-2.08-4.47-2.08-8-1.7,4.76-2.7,8.9-6.2,7.33-9.7-3.28-7.33-14,.75-17.58,5.43,0,0,16.13-20.26,6.09-24-9-3.33-12.71,18.53-13.07,20.73.32-2.11,3.09-21.8-7.22-20.86-10.86,1-9.09,34.34-9.09,34.34S922.4,251.19,923.08,243.94Z"/><path class="cls-10" d="M923.08,243.94c.19-2.08-4.47-2.08-8-1.7,4.76-2.7,8.9-6.2,7.33-9.7-3.28-7.33-14,.75-17.58,5.43,0,0,16.13-20.26,6.09-24-9-3.33-12.71,18.53-13.07,20.73.32-2.11,3.09-21.8-7.22-20.86-10.86,1-9.09,34.34-9.09,34.34S922.4,251.19,923.08,243.94Z"/><path class="cls-9" d="M898,249.57s11.29-4.37,8.57-8.13c-1.72-2.37-5,1.66-5,1.66s4.37-5.71.59-7.45-6,4.78-6,4.78,1.46-5.77-1.53-6.58-3.21,5.77-3.21,5.77-3.86-5.19-6.15-1.05c-2.08,3.76,4.24,11.24,4.24,11.24"/><g class="cls-11"><path class="cls-12" d="M767.24,158.33a13.16,13.16,0,1,0,3,11.41,13,13,0,0,0,.29-2.75A13.1,13.1,0,0,0,767.24,158.33Zm.77,10.94a10.92,10.92,0,1,1,.24-2.29A11,11,0,0,1,768,169.28Z"/></g><path class="cls-13" d="M770.19,169.74a13.2,13.2,0,0,1-7,9l-1-2a11,11,0,0,0,5.82-7.5Z"/><path class="cls-14" d="M767.24,158.33l-1.69,1.47a10.92,10.92,0,0,0-16-.48l-1.6-1.57a13.16,13.16,0,0,1,19.32.58Z"/><g class="cls-15"><g class="cls-11"><path class="cls-12" d="M844.4,46.56a8.76,8.76,0,1,0,2,7.59,8.63,8.63,0,0,0,.19-1.83A8.72,8.72,0,0,0,844.4,46.56Zm.51,7.28a7.27,7.27,0,1,1,.16-1.52A7.3,7.3,0,0,1,844.91,53.84Z"/></g><path class="cls-13" d="M846.37,54.15a8.78,8.78,0,0,1-4.66,6L841,58.83a7.3,7.3,0,0,0,3.87-5Z"/><path class="cls-14" d="M844.4,46.56l-1.12,1a7.27,7.27,0,0,0-10.67-.32l-1.06-1a8.76,8.76,0,0,1,12.86.38Z"/></g><path class="cls-16" d="M746.65,201.2l1.34-1a8.28,8.28,0,0,0-2.55-2.55l-1,1.34a6.54,6.54,0,0,0-1.86-.77l.24-1.65a8.08,8.08,0,0,0-3.6,0l.24,1.65a6.54,6.54,0,0,0-1.86.77l-1-1.34a8.28,8.28,0,0,0-2.55,2.55l1.34,1a6.54,6.54,0,0,0-.77,1.86l-1.65-.24a8.08,8.08,0,0,0,0,3.6l1.65-.24a6.54,6.54,0,0,0,.77,1.86l-1.34,1a8.28,8.28,0,0,0,2.55,2.55l1-1.34a6.54,6.54,0,0,0,1.86.77l-.24,1.65a8.08,8.08,0,0,0,3.6,0l-.24-1.65a6.54,6.54,0,0,0,1.86-.77l1,1.34A8.28,8.28,0,0,0,748,209l-1.34-1a6.54,6.54,0,0,0,.77-1.86l1.65.24a8.08,8.08,0,0,0,0-3.6l-1.65.24A6.54,6.54,0,0,0,746.65,201.2ZM741,209a4.38,4.38,0,1,1,4.38-4.38A4.38,4.38,0,0,1,741,209Z"/><path class="cls-5" d="M1002.47,75.9l2-1.49a12.42,12.42,0,0,0-3.82-3.82l-1.49,2a9.81,9.81,0,0,0-2.79-1.16l.36-2.47a12.12,12.12,0,0,0-5.4,0l.36,2.47a9.81,9.81,0,0,0-2.79,1.16l-1.49-2a12.41,12.41,0,0,0-3.82,3.82l2,1.49a9.8,9.8,0,0,0-1.16,2.79L982,78.33a12.12,12.12,0,0,0,0,5.4l2.47-.36a9.8,9.8,0,0,0,1.16,2.79l-2,1.49a12.42,12.42,0,0,0,3.82,3.82l1.49-2a9.8,9.8,0,0,0,2.79,1.16l-.36,2.47a12.12,12.12,0,0,0,5.4,0l-.36-2.47a9.81,9.81,0,0,0,2.79-1.16l1.49,2a12.41,12.41,0,0,0,3.82-3.82l-2-1.49a9.81,9.81,0,0,0,1.16-2.79l2.47.36a12.12,12.12,0,0,0,0-5.4l-2.47.36A9.81,9.81,0,0,0,1002.47,75.9ZM994,87.6a6.57,6.57,0,1,1,6.57-6.57A6.57,6.57,0,0,1,994,87.6Z"/><circle class="cls-17" cx="810.41" cy="36.63" r="3.39"/><circle class="cls-18" cx="941.78" cy="48.94" r="3.39"/><circle class="cls-19" cx="855.15" cy="73.97" r="5.31"/><rect class="cls-20" x="758.37" y="84.56" width="221.05" height="138.31" rx="5.49" ry="5.49"/><polygon class="cls-20" points="891.38 246.34 846.4 246.34 851.28 227.13 852.39 222.78 854.54 214.34 883.23 214.34 885.38 222.78 886.49 227.13 891.38 246.34"/><polygon class="cls-21" points="886.49 227.13 851.28 227.13 852.39 222.78 885.38 222.78 886.49 227.13"/><path class="cls-21" d="M908.64,251.65h-79.5a3.45,3.45,0,0,1-3.45-3.45h0a3.45,3.45,0,0,1,3.45-3.45h79.5a3.45,3.45,0,0,1,3.45,3.45h0A3.45,3.45,0,0,1,908.64,251.65Z"/><rect class="cls-22" x="757.95" y="104.22" width="221.46" height="96.62"/><path class="cls-23" d="M868.88,216.6h0a5.11,5.11,0,0,1-5.1-5.1h0a5.11,5.11,0,0,1,5.1-5.1h0a5.11,5.11,0,0,1,5.1,5.1h0A5.11,5.11,0,0,1,868.88,216.6Z"/><rect class="cls-24" x="834.55" y="106.8" width="139.92" height="59.75" rx="2.67" ry="2.67"/><path class="cls-25" d="M970.71,138.79V161.5a1.84,1.84,0,0,1-1.84,1.83H839.63a1.84,1.84,0,0,1-1.84-1.83V111.62c11.94,0,17.88,4.46,21.37,10.32q.34.56.64,1.15c5.9,11.15,4.12,26.45,17.08,26.45a5.33,5.33,0,0,0,1.37-.17,3.81,3.81,0,0,0,.8-.26c8.72-3.67,7.36-29.74,22.87-29.55a10.46,10.46,0,0,1,7.74,3.34c.19.2.37.41.55.63,6.95,8.15,7,26.32,17.71,29.61,3.84,1.19,7.24-.42,10.59-3.09.21-.17.43-.34.64-.53,7.09-5.89,14.14-16,25.09-13.48l1,.24A22.88,22.88,0,0,1,970.71,138.79Z"/><path class="cls-26" d="M970.72,134.2a8.16,8.16,0,0,0-5.52,2.08c-2.64,2.34-4.05,6.33-5.44,10.23-2.08,5.84-4.22,11.86-10.48,11.86-.33,0-.68,0-1,0-4.08-.4-7.08-3.72-9.73-8.27-1.64-2.82-3.15-6.11-4.68-9.49-4.33-9.5-8.82-19.33-17.07-19.56h-.28a9,9,0,0,0-6.27,2.53c-3.49,3.18-5.72,8.92-7.89,14.54-3.22,8.31-6.54,16.91-14,17.08-5.39.11-7.84-1.92-10-5.78-.85-1.5-1.66-3.27-2.59-5.3a97.85,97.85,0,0,0-7.31-13.7,19.11,19.11,0,0,0-8.55-7.27c-8.65-3.77-18.83-1-22,0v-.85c3.4-1.07,12.91-3.51,21.37-.32a20,20,0,0,1,9.86,8,97.85,97.85,0,0,1,7.38,13.8c1,2.1,1.78,3.9,2.65,5.38,2.07,3.57,4.34,5.34,9.23,5.23,7-.16,10-8.13,13.3-16.56,2.21-5.72,4.47-11.57,8.09-14.88a9.78,9.78,0,0,1,7.12-2.71c8.78.24,13.36,10.3,17.8,20,1.51,3.31,3,6.54,4.58,9.3,2.54,4.41,5.39,7.61,9.17,8,6.45.64,8.5-5.15,10.67-11.28,1.35-3.82,2.74-7.71,5.24-10.19a8.9,8.9,0,0,1,6.46-2.65Z"/><rect class="cls-27" x="900.49" y="169.07" width="73.98" height="13.09" rx="2.27" ry="2.27"/><rect class="cls-24" x="900.49" y="184.9" width="73.98" height="13.09" rx="2.27" ry="2.27"/><rect class="cls-28" x="763.63" y="106.8" width="68.67" height="28.92" rx="2.67" ry="2.67"/><g class="cls-29"><rect class="cls-3" x="818.54" y="114.06" width="4.75" height="19.2" rx="0.67" ry="0.67"/><rect class="cls-3" x="825.07" y="109.57" width="4.75" height="23.7" rx="0.75" ry="0.75"/><rect class="cls-3" x="766.34" y="109.57" width="4.75" height="23.7" rx="0.75" ry="0.75"/><rect class="cls-3" x="772.87" y="115.18" width="4.75" height="18.08" rx="0.65" ry="0.65"/><rect class="cls-3" x="779.39" y="109.57" width="4.75" height="23.7" rx="0.75" ry="0.75"/><rect class="cls-3" x="785.92" y="120.18" width="4.75" height="13.08" rx="0.55" ry="0.55"/><rect class="cls-3" x="792.44" y="109.57" width="4.75" height="23.7" rx="0.75" ry="0.75"/><rect class="cls-3" x="798.97" y="114.06" width="4.75" height="19.2" rx="0.67" ry="0.67"/><rect class="cls-3" x="805.49" y="109.57" width="4.75" height="23.7" rx="0.75" ry="0.75"/><rect class="cls-3" x="812.02" y="115.18" width="4.75" height="18.08" rx="0.65" ry="0.65"/></g><rect class="cls-24" x="763.63" y="137.94" width="68.67" height="28.92" rx="2.67" ry="2.67"/><rect class="cls-24" x="763.63" y="169.07" width="68.67" height="28.92" rx="2.67" ry="2.67"/><path class="cls-30" d="M828.84,141.69a1.29,1.29,0,0,0-1.29,1.29,1.28,1.28,0,0,0,.18.64l-10.5,11.85a1.27,1.27,0,0,0-1,0l-11.3-11.1a1.29,1.29,0,1,0-2.34,0l-14.53,15.68a1.26,1.26,0,0,0-1.36-.07l-7.95-10.35a1.29,1.29,0,1,0-2.16-.12l-8.91,11.54a1.29,1.29,0,1,0,.63.51l8.88-11.5a1.23,1.23,0,0,0,.9,0l8.05,10.49a1.29,1.29,0,1,0,2.41.13L803.15,145a1.24,1.24,0,0,0,1.21,0L815.62,156a1.28,1.28,0,0,0-.17.62,1.29,1.29,0,1,0,2.39-.66l10.49-11.84a1.29,1.29,0,1,0,.51-2.47Z"/><rect class="cls-31" x="766.14" y="171.26" width="58.08" height="2.44" rx="1.16" ry="1.16"/><rect class="cls-31" x="766.14" y="175.62" width="52.25" height="2.44" rx="1.1" ry="1.1"/><path class="cls-31" d="M828.9,182.42H767.36a1.22,1.22,0,0,1-1.22-1.22h0a1.22,1.22,0,0,1,1.22-1.22H828.9a1.22,1.22,0,0,1,1.22,1.22h0A1.22,1.22,0,0,1,828.9,182.42Z"/><rect class="cls-31" x="766.14" y="184.34" width="46.48" height="2.44" rx="1.04" ry="1.04"/><rect class="cls-31" x="766.14" y="188.7" width="58.69" height="2.44" rx="1.17" ry="1.17"/><path class="cls-31" d="M828.9,195.51H767.36a1.22,1.22,0,0,1-1.22-1.22h0a1.22,1.22,0,0,1,1.22-1.22H828.9a1.22,1.22,0,0,1,1.22,1.22h0A1.22,1.22,0,0,1,828.9,195.51Z"/><path class="cls-27" d="M863.64,183.53a14.46,14.46,0,1,1-14.45-14.45,14.14,14.14,0,0,1,3.34.39,14.45,14.45,0,0,1,11.07,12.91Q863.64,183,863.64,183.53Z"/><path class="cls-32" d="M863.59,182.38l-14.4,1.15,3.34-14.06A14.45,14.45,0,0,1,863.59,182.38Z"/><path class="cls-27" d="M895.82,171.37H868a1,1,0,0,1-1-1h0a1,1,0,0,1,1-1h27.81a1,1,0,0,1,1,1h0A1,1,0,0,1,895.82,171.37Z"/><rect class="cls-27" x="867.05" y="173.26" width="25.55" height="1.9" rx="0.88" ry="0.88"/><rect class="cls-27" x="867.05" y="177.04" width="19.75" height="1.9" rx="0.78" ry="0.78"/><path class="cls-27" d="M895.82,182.74H868a1,1,0,0,1-1-1h0a1,1,0,0,1,1-1h27.81a1,1,0,0,1,1,1h0A1,1,0,0,1,895.82,182.74Z"/><rect class="cls-27" x="867.05" y="184.62" width="26.46" height="1.9" rx="0.9" ry="0.9"/><path class="cls-27" d="M895.82,190.31H868a1,1,0,0,1-1-1h0a1,1,0,0,1,1-1h27.81a1,1,0,0,1,1,1h0A1,1,0,0,1,895.82,190.31Z"/><rect class="cls-27" x="867.05" y="192.19" width="24.02" height="1.9" rx="0.86" ry="0.86"/><path class="cls-27" d="M895.82,197.89H868a1,1,0,0,1-1-1h0a1,1,0,0,1,1-1h27.81a1,1,0,0,1,1,1h0A1,1,0,0,1,895.82,197.89Z"/><rect class="cls-33" x="758.37" y="84.56" width="221.05" height="138.31" rx="5.49" ry="5.49"/><g class="cls-34"><path class="cls-35" d="M831,151.57c.07-.31-.28-.4-.66.21a3.47,3.47,0,0,1-2.34,1.56c-.07-.16.16-.22.33-.58s.07-.68-.11-.74-.44.41-.55.49l-1.19,1a2.57,2.57,0,0,0-.86,1.17s0,.15-.06.29c-2.65,2-11.39,4.54-12.57,5.26a20.61,20.61,0,0,1-4.36.2c0-.28,0-.45,0-.45a20.56,20.56,0,0,1-5.34-1.62,3.91,3.91,0,0,0-2.45-.49,3.36,3.36,0,0,0-.26-.4l0-.07c-.44-.51-1.09-.78-1.49-1.32a6.91,6.91,0,0,1,.28-2.78,11.82,11.82,0,0,1,2.39-2.3,2.45,2.45,0,0,0,.6-2.57,19.31,19.31,0,0,0-.9-3.42c-.2-.42-.56-.7-.75-1.07a1.49,1.49,0,0,1-.11-.2c.51-.58-1-4.78-5.6-4.67a8,8,0,0,0-3.41.64c-1,.52-2.19,1.46-2.12,2.39-1.64.32-1.86,2-2,2.61a8.31,8.31,0,0,0-.1,2.7c.17,1.33.67,2.6.93,3.91a5.74,5.74,0,0,1-.15,3.27c-.41,1-1.38,1.51-1.87,2.46a4.33,4.33,0,0,0,.06,3.92c.29.55.6,1,.85,1.48a48,48,0,0,0-1.34,4.94l-12.1,2.05a.66.66,0,0,0-.54.76l3,17.67a.66.66,0,0,0,.76.53l10.23-1.73a16.76,16.76,0,0,0,0,4.19c.16,1.2,1.37,4.49,1.56,5.68.42,2.73,1.29,6.73,1.25,9.83a6.81,6.81,0,0,0,.85.54,71.52,71.52,0,0,1,1.12,7.66c-.16,1.16-1.45,4.44-1.89,7.87,0,.14,0,.28,0,.45h6.71c.46-2.46.85-4.62,1.08-6.28h0c.06-.42.11-.78.15-1.12,0,0,0-.07,0-.1,0-.19,0-.36,0-.52s0-.59.07-.9c0-.09,0-.19,0-.28,0-.25,0-.51,0-.79,0-.07,0-.15,0-.23,0-.33,0-.68,0-1,0-.11,0-.22,0-.33,0-.28,0-.55,0-.84,0-.13,0-.26,0-.39v-.33l2,5.77a36.72,36.72,0,0,0-1.19,7.37h6.42c.2-3.71.37-6.8.43-8.27a64.25,64.25,0,0,0-.2-7.75h0a68.41,68.41,0,0,0,0-11.93,43.38,43.38,0,0,0-2.27-11l6.31-1.07a.64.64,0,0,0,.53-.75l-2.78-16.42a8.69,8.69,0,0,1,1,0,5.29,5.29,0,0,0,.14-.76c2.28-.2,4.18-.4,4.65-.49,3.7-.72,12.89-6.95,13.7-7.5a3.65,3.65,0,0,0,2.7-1.16,1.21,1.21,0,0,0,.2-.77c.26-.31.72-1.4-.07-1.17A3.35,3.35,0,0,0,831,151.57Z"/></g><ellipse class="cls-36" cx="797.23" cy="252.47" rx="18.08" ry="2.02"/><path class="cls-37" d="M795.37,188,786.76,181a16.13,16.13,0,0,0-.42,10c.79,2.51,0,4.29.38,5.48s3.31,16.9,3.15,18.07-1.45,4.44-1.89,7.86c-.53,4.12-.1,17.48-.5,21s2.89,4.08,3,2.87c1.29-10.28,5-26.35,5.42-31.48S795.93,200.34,795.37,188Z"/><path class="cls-38" d="M795.63,198.06l-3.47,8.51a18.87,18.87,0,0,1,2.77,8.76c.1,1.62,0,3.25.08,4.88a1.62,1.62,0,0,0,.06.35c.43-2.42.75-4.41.87-5.71a154.65,154.65,0,0,0-.12-16.8Z"/><path class="cls-37" d="M791,243s-.7,3.74-.47,4.21a6.53,6.53,0,0,0,1.81,2.31c.83.5,2.65,1.08,2.8,1.3a.56.56,0,0,1-.09.76,3.75,3.75,0,0,1-2.56.72c-2.46-.35-2.74-1.42-4.17-1.56-.25,0-.7.35-1.39,0a1.62,1.62,0,0,1-1-1.55,7,7,0,0,1,1-2.65,21.39,21.39,0,0,0,.6-4.24"/><path class="cls-39" d="M795.25,251.78c.17-.31.21-.77,0-.88a14.32,14.32,0,0,0-1.55-.88c-.48-.21-1.24-.38-1-.25s-.21.69-.65.67c-1.54-.06-2.7-1.05-3.58-1.25a3,3,0,0,1-1.9-2,5.9,5.9,0,0,0-.87,1.75,3,3,0,0,0-.16,1.33,3.07,3.07,0,0,1,.17,1.26,2.41,2.41,0,0,0,.92.31,3.59,3.59,0,0,0,1,0l.09-.8a3.6,3.6,0,0,1,.78.06,4.24,4.24,0,0,1,1.21.53c.18.21.33.58.57.7a4.9,4.9,0,0,0,2,.45C794,252.81,795,252.31,795.25,251.78Z"/><path class="cls-37" d="M807.75,251c-.18-.2-2.14-.5-3.06-.87a5.27,5.27,0,0,1-2.16-2,22,22,0,0,1-.17-4.08c.11-7.3,1.28-25.15,1.43-29.42.26-7.43-.78-15.08-3.75-27l-10.72-8.05s-2.92,5.57-1.87,10.85c.61,3.07,3.16,3.51,3.6,4.7s7.07,20.37,7.07,20.37a36.21,36.21,0,0,0-1.24,8.73c0,3.89,1.86,15.61,2.23,20.08a14.7,14.7,0,0,1,0,3.63c-.31.82-1.1,1.79-1.05,2.81a1.58,1.58,0,0,0,1.22,1.39c.76.23,1.17-.21,1.43-.23,1.5-.08,1.92.95,4.51.92a4.1,4.1,0,0,0,2.56-1.09A.55.55,0,0,0,807.75,251Z"/><path class="cls-39" d="M808,251.9c.14-.33.11-.8-.07-.88a14.84,14.84,0,0,0-1.71-.64c-.52-.13-1.33-.19-1-.1s-.13.71-.59.76c-1.6.17-2.92-.64-3.86-.7a2.46,2.46,0,0,1-2-1.71,6.18,6.18,0,0,0-.94,1.87,2.92,2.92,0,0,0,0,1.34,2.92,2.92,0,0,1,.34,1.22,2.55,2.55,0,0,0,1,.17,3.92,3.92,0,0,0,1-.16v-.8a3.91,3.91,0,0,1,.82-.06,2.71,2.71,0,0,1,1.32.45c.22.16.46.44.72.5a5.43,5.43,0,0,0,2.1.14C806.82,253.11,807.74,252.47,808,251.9Z"/><path class="cls-37" d="M824.85,157a3.64,3.64,0,0,0,2.72-1.17,1.21,1.21,0,0,0,.2-.77c.26-.31.71-1.4-.07-1.17a3.34,3.34,0,0,0,1.23-2.28c.07-.31-.28-.4-.66.21a3.48,3.48,0,0,1-2.35,1.57c-.07-.17.16-.22.33-.58s.06-.67-.11-.74-.44.4-.54.49l-1.19,1a2.48,2.48,0,0,0-.86,1.17c0,.09-.24,1,.15.87"/><path class="cls-37" d="M799,165.39c4,0,11.14-.73,12.12-.92,3.87-.76,13.76-7.54,13.76-7.54a1.88,1.88,0,0,0-1.32-2c-2.51,2-11.49,4.62-12.69,5.34-.78.47-13.33,0-13.33,0"/><path class="cls-40" d="M785.75,160.48a51,51,0,0,0-2.25,8.19l4.1.65V163.5"/><rect class="cls-41" x="772.36" y="166.54" width="34.58" height="19.23" rx="0.65" ry="0.65" transform="translate(-18.35 134.77) rotate(-9.64)"/><path class="cls-42" d="M806.54,181.71l-31,5.39a.57.57,0,0,1-.66-.47l-2.62-15.4a.57.57,0,0,1,.47-.66l31-5.39a.57.57,0,0,1,.66.47l2.62,15.4A.57.57,0,0,1,806.54,181.71Z"/><path class="cls-43" d="M777.19,185.67l-.52.09a.49.49,0,0,1-.57-.4l-2.25-13.27a.49.49,0,0,1,.4-.57l.52-.09a.49.49,0,0,1,.57.4l2.25,13.27A.49.49,0,0,1,777.19,185.67Z"/><path class="cls-43" d="M780,185.14l-.52.09a.49.49,0,0,1-.57-.4l-2.25-13.27a.49.49,0,0,1,.4-.57l.52-.09a.49.49,0,0,1,.57.4l2.25,13.27A.49.49,0,0,1,780,185.14Z"/><path class="cls-43" d="M782.75,184.6l-.52.09a.49.49,0,0,1-.57-.4L779.41,171a.49.49,0,0,1,.4-.57l.52-.09a.49.49,0,0,1,.57.4L783.15,184A.49.49,0,0,1,782.75,184.6Z"/><path class="cls-43" d="M785.53,184.07l-.52.09a.49.49,0,0,1-.57-.4l-2.25-13.27a.49.49,0,0,1,.4-.57l.52-.09a.49.49,0,0,1,.57.4l2.25,13.27A.49.49,0,0,1,785.53,184.07Z"/><path class="cls-43" d="M788.31,183.54l-.52.09a.49.49,0,0,1-.57-.4L785,170a.49.49,0,0,1,.4-.57l.52-.09a.49.49,0,0,1,.57.4L788.72,183A.49.49,0,0,1,788.31,183.54Z"/><path class="cls-43" d="M791.1,183l-.52.09a.49.49,0,0,1-.57-.4l-2.25-13.27a.49.49,0,0,1,.4-.57l.52-.09a.49.49,0,0,1,.57.4l2.25,13.27A.49.49,0,0,1,791.1,183Z"/><path class="cls-43" d="M793.88,182.47l-.52.09a.49.49,0,0,1-.57-.4l-2.25-13.27a.49.49,0,0,1,.4-.57l.52-.09a.49.49,0,0,1,.57.4l2.25,13.27A.49.49,0,0,1,793.88,182.47Z"/><path class="cls-43" d="M796.66,181.94l-.52.09a.49.49,0,0,1-.57-.4l-2.25-13.27a.49.49,0,0,1,.4-.57l.52-.09a.49.49,0,0,1,.57.4l2.25,13.27A.49.49,0,0,1,796.66,181.94Z"/><path class="cls-43" d="M799.44,181.41l-.52.09a.49.49,0,0,1-.57-.4l-2.25-13.27a.49.49,0,0,1,.4-.57l.52-.09a.49.49,0,0,1,.57.4l2.25,13.27A.49.49,0,0,1,799.44,181.41Z"/><path class="cls-43" d="M802.22,180.87l-.52.09a.49.49,0,0,1-.57-.4l-2.25-13.27a.49.49,0,0,1,.4-.57l.52-.09a.49.49,0,0,1,.57.4l2.25,13.27A.49.49,0,0,1,802.22,180.87Z"/><path class="cls-43" d="M805,180.34l-.52.09a.49.49,0,0,1-.57-.4l-2.25-13.27a.49.49,0,0,1,.4-.57l.52-.09a.49.49,0,0,1,.57.4l2.25,13.27A.49.49,0,0,1,805,180.34Z"/><path class="cls-39" d="M788.6,179.55c-3,2.55-4.09,6.79-3.5,11.31.16,1.2,1.37,4.48,1.55,5.68.42,2.72,1.3,6.72,1.24,9.83,4,2.88,12,2.63,15.68.48a67.52,67.52,0,0,0,0-11.93c-.43-7.84-3.93-15.15-4-15.8"/><path class="cls-40" d="M799.52,172.07a37.15,37.15,0,0,0,.19,5.94,11.85,11.85,0,0,1,.19,1.57.89.89,0,0,1-.31.61,4.33,4.33,0,0,1-2.15.83c-2.94.53-7.59.18-8.9.43s-2.5-.17-2.5-.92c0-.52.48-.81.52-1.84a60.89,60.89,0,0,0-.39-9.66,38,38,0,0,1-.5-13l9-2.55c.69.12.39,2.22,1.08,2.34.5.08,3.35,2.78,4.15,6a12.42,12.42,0,0,1,1,2.07,3.66,3.66,0,0,1,0,2.83A20,20,0,0,0,799.52,172.07Z"/><path class="cls-44" d="M799.52,172.07a37.15,37.15,0,0,0,.19,5.94,11.85,11.85,0,0,1,.19,1.57.89.89,0,0,1-.31.61h0c.27-.59-.37-3.54-.65-5.2a18.74,18.74,0,0,1,.39-6.9c.58-2,.81-3,.81-3s.46-.69.78-1.21a3.66,3.66,0,0,1,0,2.83A20,20,0,0,0,799.52,172.07Z"/><path class="cls-40" d="M798.56,157.92a3.93,3.93,0,0,1,2.65.45,20.51,20.51,0,0,0,5.35,1.62,26.19,26.19,0,0,1-.17,5.72,21.78,21.78,0,0,0-4.76.2c-3.68.4-8.59,2.84-8.59,2.84"/><path class="cls-37" d="M798.58,144c-.88-1.69-2.28-4.07-5.61-3.74s-6.2,2.44-6.16,4.94,1.73,5.51,2.39,7.24a11.38,11.38,0,0,1,.38,4.3l7.4-.27a8.28,8.28,0,0,1,.26-3.12,11.86,11.86,0,0,1,2.39-2.3,2.46,2.46,0,0,0,.61-2.57,19.22,19.22,0,0,0-.9-3.42C799.13,144.6,798.78,144.32,798.58,144Z"/><path class="cls-45" d="M798.45,157.42c-.45-.53-1.14-.8-1.53-1.37a3.09,3.09,0,0,1-.53-2,3.73,3.73,0,0,1,.44-1.13c.8-1.62.86-2.67-.29-4a4.56,4.56,0,0,1-.94-1.42c-.17-.49-.31-1,.16-1.31a.63.63,0,0,1,.85,0c.18.16.71,1.71.8.65a3.76,3.76,0,0,0-.42-3.1c-.11-.22-.6-1.07-.53-1.26a2.48,2.48,0,0,1,2,1.25c.51-.57-1-4.78-5.6-4.66a7.91,7.91,0,0,0-3.41.63c-1,.53-2.19,1.46-2.12,2.39-1.63.31-1.86,2-2,2.6a8.2,8.2,0,0,0-.1,2.7c.17,1.33.67,2.59.93,3.91a5.72,5.72,0,0,1-.15,3.27c-.41,1-1.37,1.51-1.87,2.46a4.29,4.29,0,0,0,.05,3.92c.64,1.21,1.44,2,1.23,3.48A4.74,4.74,0,0,0,787,169a4.88,4.88,0,0,0,3.53,1,8.16,8.16,0,0,0,2.89-.91c1.72-.94,3.26-1.54,4.38-4,.63-1.41-.29-1.61.27-3,.32-.81,1-1.48,1.08-2.38a3,3,0,0,0-.66-2.09Z"/><path class="cls-46" d="M958.08,222.55c-.24-.37-.51-.7-.78-1h0l0,0-.48-.55a12.37,12.37,0,0,1-3.1-6.6c0-4-.1-9.56-.15-13.48,0-1.1,0-2.08,0-2.85,0-.33,0-.61,0-.86,0,0,0-.32.12-.73s.15-.94.24-1.35.17-.94.25-1.49h0a15,15,0,0,0,0-4.35,4.83,4.83,0,0,1,1.47.32s-.59-2.1-1.21-4.61c-.23-.89-.45-1.82-.66-2.74a35.77,35.77,0,0,1-.8-4.49c-.14-2.09.46-5.17.87-8.6.1-.82.18-1.67.24-2.52s.1-1.64.1-2.47c0-.25,0-.5,0-.75a15.45,15.45,0,0,0-1.33-5.72c-.11-.25-.23-.5-.36-.73a23.5,23.5,0,0,0-2.71-4.11,2.5,2.5,0,0,0-.8-1.23,7.57,7.57,0,0,1-.21-2.51c1.25-.52,2.54-5.43,2-9q0-.32-.12-.61c-.72-3.09-2.72-4.31-4.19-4-3.18-3.88-8,.37-9.09.9a13.34,13.34,0,0,1-3.9,1.24,5.67,5.67,0,0,1-.87,0,1.77,1.77,0,0,1-.55-.08c.25,3.28,1.47,4.82,3,5.39a4.11,4.11,0,0,0,1,.25,5.73,5.73,0,0,0,.84,0,2.35,2.35,0,0,0,.48,1.78c.07.11.37.28.41.42a4,4,0,0,1,0,1.35.54.54,0,0,0,0,.11c-.07.34-.15.81-.21,1.25,0,.25,0,.5,0,.71a1.31,1.31,0,0,0,0,.41c.1.26.44.33.79.32l.39,0,.16.34a10,10,0,0,0,1.65,2.45,2.25,2.25,0,0,0,.6.15,7.8,7.8,0,0,0,3.46-.7,7.34,7.34,0,0,1,.27,1l-.53.18a14.36,14.36,0,0,0,0,1.82,6,6,0,0,0-.6.6,3.75,3.75,0,0,0-.33.41,2.81,2.81,0,0,0-.16.26,30.39,30.39,0,0,0-3.32,7.33c-.34,1.05-.64,2.13-.91,3.22l0,0-.51.08c-2.27.41-6.28,1.22-10.5,2.39l-1.2.34,0,.2c-.65,0-1.68-.09-2.28,0-.39,0-1.21.79-2,1.41s-1.18,1.34-1,1.45l.1,0a1.18,1.18,0,0,0,.58-.33.52.52,0,0,0,.33,0c.3-.09.76-.65,1-.81L924,171a1.52,1.52,0,0,1,.74,0,.36.36,0,0,1-.19.43c-.2.13-.68.19-.72.33s0,.39.69.26a3.69,3.69,0,0,0,1.43-.59,1.7,1.7,0,0,1,1-.31l0,.27s5.23,0,10.15-.07l.79,0q-.11.57-.2,1.15a1.89,1.89,0,0,1-.3,0l-1.78,0a.38.38,0,0,0-.14,0H919l-1.22-3.4-.91-2.52-1.16-3.22-2.1-5.83a.52.52,0,0,0-.65-.31l-.21.08a.51.51,0,0,0-.31.66l1.95,5.4,1.16,3.22.9,2.52,1.24,3.42c-.39-.33-.61-.37-.55,0a3.61,3.61,0,0,0,1.91,2.19,11.13,11.13,0,0,0,2.14.6,2,2,0,0,0,.85,0,8.3,8.3,0,0,1,1.53-.2l0,.54s5.4.58,9.14,1.12c1.54.22,3.05.35,4.45.42,0,.39-.09.79-.13,1.18-.14,1.35-.24,2.66-.33,3.88-.07,1-.13,1.88-.18,2.74-.19,3.59-.22,6.07-.37,6.38a3.37,3.37,0,0,0,2.08.57l.07,1h0c-.06.5-.2,2.53-.38,5.14-.06.9-.13,1.86-.2,2.85-.28,4.11-.61,8.75-.82,11.3a3.17,3.17,0,0,0-.19,1.25c0,.28,0,3.15,0,3.49.06,1.32.17,3.43.31,6h6.75c0-.24-.09-.49-.14-.72l0-.26c0-.15,0-.33-.06-.56-.37-3.15-.38-2.24.48-6.22l1.56-4c.93,3.3,1.7,6.11,2,7.77a.35.35,0,0,0,0,0l0,.25a2.06,2.06,0,0,0,.13.41l.06.14a4.31,4.31,0,0,0,.39.77s0,0,0,0c.38.61.9,1.4,1.5,2.33h8.59Z"/><g class="cls-47"><ellipse class="cls-48" cx="947.2" cy="251.19" rx="25.94" ry="1.39"/></g><path class="cls-37" d="M935.94,243.94a36.53,36.53,0,0,0,0,4.51c.15.66,2.21.73,2.46.38a34.86,34.86,0,0,0,.57-4.61"/><path class="cls-49" d="M939,249.42a14.39,14.39,0,0,1-.2,1.86h-2.48l-.12-.41a3.9,3.9,0,0,1-1.44.41h-2.1c-1.53,0-2.41-.2-2.45-.47-.16-1.13,1.67-1.08,2.15-1.08,1.37,0,2.86-.64,3.18-1.34.23-.5.13-.63.41-.54a.71.71,0,0,1,.43.37,1.26,1.26,0,0,0,1.3.71,1.5,1.5,0,0,0,.84-.4A.91.91,0,0,1,939,249.42Z"/><path class="cls-37" d="M961.77,244.39s.68,1.83,1,2.44,2.32-.14,2.42-.56-1.54-3.56-1.54-3.56"/><path class="cls-49" d="M965.92,246.61c.26.66.65,1.93.65,1.93l-1.88,1.12-.37-.28a3.67,3.67,0,0,1-1,1,8.07,8.07,0,0,1-1.86.77c-1.72.39-3,.2-3.19,0-.57-1,1.71-1.53,2.15-1.71a3.07,3.07,0,0,0,1.9-2.51c0-.56-.11-.64.19-.65,0,0,.58-.1.92.77,0,0,1.36-.24,1.7-1.09A.91.91,0,0,1,965.92,246.61Z"/><path class="cls-39" d="M951.27,197.13s.2-1.26.35-2.08c.51-2.6,1.3-7.83-3-12a32.55,32.55,0,0,1-9,2.52,14.81,14.81,0,0,1-3.9,0s-.21,4.28,1.07,15Z"/><path class="cls-39" d="M964.74,243.57a17.35,17.35,0,0,1-3.23,1.57l-.3-.52-.65-1.18h0l0-.06c-.72-1.25-1.5-2.58-2.33-3.95h0l0,0C953.69,232,948,223.8,946,220.55c0,0,0,0,0,0a5,5,0,0,1-.39-.77l-.06-.14a2.08,2.08,0,0,1-.13-.41l0-.25a.35.35,0,0,1,0,0,1.71,1.71,0,0,1,.41-1.46,1.44,1.44,0,0,1,.26-.23c1.09-.79,3.29-.61,5.1.67l.28.21.14.1a17.46,17.46,0,0,1,4.34,4.36C960,228.79,962.43,238.22,964.74,243.57Z"/><path class="cls-39" d="M951.51,218.83c.07,3.43-1.19,4.22-2.58,3.88a3.9,3.9,0,0,1-.72-.27,6.27,6.27,0,0,1-2.34-2.08s0,0,0,0a4.26,4.26,0,0,1-.31-.58l-.06-.14a2.08,2.08,0,0,1-.13-.41l0-.25a.35.35,0,0,1,0,0c-.34-1.71-1.14-4.65-2.12-8.07l-1.76-6.14c-1.83-6.33-3.56-12.54-3.51-14.35.18-6.53,7.76-1.33,11.4,1.22a5.54,5.54,0,0,1,1.95,4.67c0,1.62.18,17.53.24,22,0,.11,0,.22,0,.31S951.51,218.73,951.51,218.83Z"/><path class="cls-39" d="M951.45,214.32s.16,3.38,3.62,7.2c0,0-5-1.51-5.27-1.8a17.82,17.82,0,0,1-1.51-3.85C948.32,215.51,951.45,214.32,951.45,214.32Z"/><path class="cls-50" d="M960.52,243.36c-.72-1.25-1.5-2.58-2.33-3.95h0l0,0C953.69,232,948,223.8,946,220.55c0,0,0,0,0,0a5,5,0,0,1-.39-.77l-.06-.14a2.08,2.08,0,0,1-.13-.41l0-.25a.35.35,0,0,1,0,0c-.34-1.71-1.14-4.65-2.12-8.07l5.72-15.34H951s-2.35,7.08-3.31,10.28a48.66,48.66,0,0,0-1.3,10c-.18,4,4.74,10.81,6.15,13.29C954,231.73,960,242.35,960.52,243.36Z"/><path class="cls-39" d="M939.06,246.9h-.3a17,17,0,0,1-3.29-.24v-.6c.17-9.25-.86-24.38-1.05-29.17,0-.33,0-3.21,0-3.49-.09-4.12,4-.45,5.53,2.78a12.84,12.84,0,0,1,.84,2.48c.26,1.08.27,2.28.54,3.5C942.93,229.37,939.71,240.94,939.06,246.9Z"/><path class="cls-39" d="M948.86,197.1c0,.09-6.82,17-8.15,20.63h0a2.22,2.22,0,0,1-1.62,1.12c-1.83.45-4.53-.29-4.67-3.93a8.85,8.85,0,0,1,0-1.31c.31-2.94,1.36-19.2,1.53-20.77s.5-3.85,1.34-4.12C941.52,187.41,950.09,191.24,948.86,197.1Z"/><path class="cls-39" d="M941.78,214.83c-.93,4.32-.92,3.27-.54,6.5s-1-2.74-1-2.74l.87-2.19Z"/><path class="cls-51" d="M922.85,170.34a4.31,4.31,0,0,0-1-.08,3.28,3.28,0,0,1-.36.23v.18h-.07l-.75.48c-.06.05-.85.94-.85.94s.13.12.42,0,.76-.65,1-.81l.57-.37a1.13,1.13,0,0,1,1,.16C923.12,171.5,922.85,170.34,922.85,170.34Z"/><path class="cls-37" d="M927.08,169s-1.66.54-2.18.63-1.95-.08-2.71,0a7.54,7.54,0,0,0-2,1.42c-.62.7-1.18,1.34-1,1.44.35.21,1.22-.89,1.94-1.4a1.1,1.1,0,0,1,1.25-.2c.25.17.14.42-.07.56s-.69.19-.73.32,0,.39.69.26a3.65,3.65,0,0,0,1.43-.59,1.77,1.77,0,0,1,1-.31c.52-.06,3.06-.51,3.06-.51"/><path class="cls-40" d="M937.92,166.39l-.52,4.39-.06.44-.43,0-2,.06c-4.91.11-10.14.06-10.14.06l-.3-2a117.38,117.38,0,0,1,11.7-2.73Z"/><rect class="cls-52" x="912.82" y="156.73" width="1.25" height="16.96" rx="0.51" ry="0.51" transform="translate(-2.02 318.84) rotate(-19.78)"/><rect class="cls-52" x="915.63" y="172.47" width="18.22" height="1.29" rx="0.6" ry="0.6"/><path class="cls-44" d="M937.92,166.39l-.52,4.39-.48.46-2,.06a39.45,39.45,0,0,1,1.25-4.62Z"/><path class="cls-40" d="M953.32,189.51c-2.23-.91-5.56.1-11.85,1.63s-7.62.13-7.62.13c.23-.47.17-6.07.87-13,.14-1.49.34-3,.56-4.62.94-6.41,2.63-13.22,5.78-17.92,1.56-2.32,6-3.46,6-3.46,2.42,3,4.81,6.48,4.8,11.8s-1.41,10.52-1.21,13.58S953.32,189.51,953.32,189.51Z"/><path class="cls-44" d="M940.12,178.22a32.66,32.66,0,0,1-5.4.06c.14-1.49.34-3,.56-4.62h.21a2.62,2.62,0,0,0,2.47-2c.42-1.58,1.13-4.09,2.19-7.39,1.89-5.9,3.86-6.14,3.86-6.14s2.89-1.48,3,1.66S943.81,177.76,940.12,178.22Z"/><path class="cls-39" d="M948.51,198s2.14-.77,3.36-4.45l-1.32-2.33-2.81,1.31a20.59,20.59,0,0,0-.38,2.66C947.46,195.31,948.51,198,948.51,198Z"/><path class="cls-37" d="M922.4,174.67l-.19-1.57a12,12,0,0,1-2.08.1c-.67-.08-1.46-.43-2.43-.62s-1.18.21-1,.44,1.28.41,1.28.41.15.14-.44.14h-.62a2.53,2.53,0,0,1-.73-.33l-.34-.35c-.64-.67-1-.89-1-.43a3.6,3.6,0,0,0,1.91,2.19,11.17,11.17,0,0,0,2.14.6,1.93,1.93,0,0,0,.84,0,8.34,8.34,0,0,1,1.83-.22l.87,0C923.64,175.14,923,174.88,922.4,174.67Z"/><path class="cls-40" d="M943.69,157s-2,.23-3.86,6.14c-1.06,3.3-1.76,5.81-2.18,7.39a2.63,2.63,0,0,1-2.47,2l-13.82.36-.09,2.75s5.4.58,9.14,1.12a40.41,40.41,0,0,0,9.4.32c3.69-.45,7.31-16.67,7.14-18.32C946.66,156.1,943.69,157,943.69,157Z"/><path class="cls-53" d="M934.57,143s-.35.7.43,1.92c.07.11.38.28.41.41a4.58,4.58,0,0,1,0,1.46,13.15,13.15,0,0,0,2.79,5.44c1.34.59,3.95-.34,6.15-1.5.47,0,3.08-1.32,2.7-5a13.82,13.82,0,0,0-3.47-7.18c-.2-.08-5.91,1-6.14,1S934.57,143,934.57,143Z"/><path class="cls-41" d="M942.8,144.46a2.25,2.25,0,0,1-1.58-2.3c-.06-2-.32-2-1.52-.93s-9.33,5.39-10-3.7c.9.29,3.19-.18,5.33-1.21,1.11-.53,5.91-4.78,9.09-.9,1.56-.28,3.72,1.12,4.3,4.66s-.7,8.44-2,9c-.81.34-1.19-.49-1.49-2.16-.13-.87,2.15-2.56-.24-4.75A1.53,1.53,0,0,0,942.8,144.46Z"/><path class="cls-53" d="M946.44,149s-.22,2.55.72,3.34c-1.45,1.75-4.72,2-4.72,2s.74-1.2-.93-4.3S946.44,149,946.44,149Z"/><path class="cls-40" d="M942,154.74a14,14,0,0,1,0-1.82s3.15-1.08,4.66-1.37a2.56,2.56,0,0,1,.8,1.23A24.52,24.52,0,0,1,942,154.74Z"/><path class="cls-53" d="M935.51,146.31a10.57,10.57,0,0,0-.32,2.91c.2.57,1.6.2,1.6.2Z"/><rect class="cls-54" x="915.07" y="95.54" width="73.96" height="35.42" rx="2.27" ry="2.27"/><rect class="cls-3" x="913.44" y="93.91" width="73.96" height="35.42" rx="2.27" ry="2.27"/><path class="cls-55" d="M987.41,96.18v4.45h-74V96.18a2.27,2.27,0,0,1,2.28-2.27h69.41A2.27,2.27,0,0,1,987.41,96.18Z"/><path class="cls-56" d="M984.49,104.36v21.31H916.23v-6.81c2.75-3.78,6.52-6.29,15.13-1.2,8.28,4.89,8.25-10.86,17.71-10s12,14.93,19.31,4.14S984.49,104.36,984.49,104.36Z"/><rect class="cls-56" x="916.23" y="104.22" width="13.45" height="0.92"/><rect class="cls-56" x="916.23" y="105.85" width="22.73" height="0.92"/><rect class="cls-56" x="916.23" y="107.48" width="17.06" height="0.92"/><rect class="cls-56" x="916.23" y="109.11" width="20.59" height="0.92"/><rect class="cls-56" x="916.23" y="110.74" width="13.45" height="0.92"/><path class="cls-54" d="M816.1,84.56a22,22,0,0,1-41.24,0Z"/><path class="cls-12" d="M775.18,62.72a22,22,0,0,0-2.75,19.7l20.81-7.14Z"/><path class="cls-12" d="M796.39,51.23v22l16.18,14.9a22,22,0,0,0-16.18-36.9Z"/><path class="cls-40" d="M793.24,53.27a22,22,0,0,0-18.06,9.45l18.06,12.56Z"/><path class="cls-57" d="M789.15,96.88a22,22,0,0,0,20.27-6.71l-16.18-14.9Z"/><path class="cls-58" d="M772.43,82.41a22,22,0,0,0,16.72,14.47l4.09-21.61Z"/><path class="cls-54" d="M782.46,132.54H753.15a1.46,1.46,0,0,0-1.46,1.46v9.26a1.46,1.46,0,0,0,1.46,1.46h24.31c.12,1,.81,2.91,4.34,2.91,0,0-1.45-.27-1.76-2.91h2.43a1.46,1.46,0,0,0,1.46-1.46V134A1.46,1.46,0,0,0,782.46,132.54Z"/><path class="cls-59" d="M781.92,131.8H752.6a1.46,1.46,0,0,0-1.46,1.46v9.26A1.46,1.46,0,0,0,752.6,144h24.31c.12,1,.81,2.91,4.34,2.91,0,0-1.45-.27-1.76-2.91h2.42a1.46,1.46,0,0,0,1.46-1.46v-9.26A1.46,1.46,0,0,0,781.92,131.8Z"/><rect class="cls-60" x="752.11" y="132.94" width="30.08" height="1.26" rx="0.45" ry="0.45"/><rect class="cls-60" x="752.11" y="135.05" width="30.08" height="1.26" rx="0.45" ry="0.45"/><rect class="cls-60" x="752.11" y="137.17" width="30.08" height="1.26" rx="0.45" ry="0.45"/><rect class="cls-60" x="752.11" y="139.29" width="30.08" height="1.26" rx="0.45" ry="0.45"/><rect class="cls-60" x="752.11" y="141.4" width="30.08" height="1.26" rx="0.45" ry="0.45"/><path class="cls-54" d="M953,137.13H982.3a1.46,1.46,0,0,1,1.46,1.46v9.26a1.46,1.46,0,0,1-1.46,1.46H958c-.12,1-.81,2.91-4.34,2.91,0,0,1.45-.27,1.76-2.91H953a1.46,1.46,0,0,1-1.46-1.46v-9.26A1.46,1.46,0,0,1,953,137.13Z"/><path class="cls-59" d="M953.52,136.4h29.32a1.46,1.46,0,0,1,1.46,1.46v9.26a1.46,1.46,0,0,1-1.46,1.46H958.53c-.12,1-.81,2.91-4.34,2.91,0,0,1.45-.27,1.76-2.91h-2.42a1.46,1.46,0,0,1-1.46-1.46v-9.26A1.46,1.46,0,0,1,953.52,136.4Z"/><rect class="cls-61" x="974.07" y="137.69" width="9.26" height="9.57" rx="0.69" ry="0.69" transform="translate(1957.4 284.95) rotate(180)"/><rect class="cls-61" x="953.32" y="137.69" width="19.49" height="1.2" rx="0.35" ry="0.35" transform="translate(1926.13 276.59) rotate(180)"/><rect class="cls-61" x="957.59" y="139.78" width="15.22" height="1.2" rx="0.31" ry="0.31" transform="translate(1930.39 280.77) rotate(180)"/><rect class="cls-61" x="953.32" y="141.87" width="19.49" height="1.2" rx="0.35" ry="0.35" transform="translate(1926.13 284.95) rotate(180)"/><rect class="cls-61" x="954.91" y="143.96" width="17.9" height="1.2" rx="0.34" ry="0.34" transform="translate(1927.71 289.13) rotate(180)"/><rect class="cls-61" x="965.35" y="146.05" width="7.45" height="1.2" rx="0.22" ry="0.22" transform="translate(1938.16 293.31) rotate(180)"/><path class="cls-40" d="M898.42,84.57h-29.6a3.3,3.3,0,0,1,.29-1c.75-1.78,3.5-5.37,13.37-7l4.88-1S898.67,75.55,898.42,84.57Z"/><path class="cls-44" d="M888.61,84.57H868.82a3.3,3.3,0,0,1,.29-1,4.5,4.5,0,0,1,2.35,0l1.21.32h12.87C888,83.83,888.61,84.57,888.61,84.57Z"/><path class="cls-37" d="M881.35,76a4.79,4.79,0,0,1,.68,1.68,1.65,1.65,0,0,0,1.69,1.27c4.32-.24,4-2.94,4-2.94-.89-1.36-1.43-5.4-1.43-5.4"/><path class="cls-41" d="M871.23,63.56S871,69,873.48,68.91s0-6,0-6Z"/><path class="cls-37" d="M885.73,69.55a10.63,10.63,0,0,1,0,2.05,1.62,1.62,0,0,1,0,.22,1.73,1.73,0,0,1,0,.22c-.59,2.32-3.53,5.6-5.6,5.87a5.51,5.51,0,0,1-.8,0c-2.88-.13-4.56-2.49-5.53-5l-.1-.26a23.09,23.09,0,0,1-1.21-5.57c0-.2-.15-2.34.27-3s6.15-1.36,6.27-1.37,5.58.38,5.58.38A58.81,58.81,0,0,1,885.73,69.55Z"/><path class="cls-41" d="M886.62,69.46a9.11,9.11,0,0,1-.07,2,1.59,1.59,0,0,1,0,.22c-.37,2.32-3.22,5.93-6.41,6.22a6.82,6.82,0,0,1-.71.06c-3.46.14-4.66-2.47-5.62-5l-.1-.26s1.2,1.92,1.8,2-.14-.69,1.48-1.33A8,8,0,0,1,880.3,73c.68.09,1.89.44,2.32.5a.48.48,0,0,0,.25,0A7.86,7.86,0,0,0,885,69.79C885.13,69.31,886.17,69.38,886.62,69.46Z"/><path class="cls-41" d="M870.1,61.89s.18,4.17,7,2.5c1.88-.46,3.54-.89,4.47-.38,1.4,4.41,1.45,6.52,1.94,6.35s-1.06-3.88,1.08-3.48c1.64.3-.07,4.34-.07,4.34s2,.26,2.05-.66c0-.55.1-8.45-1.26-10.32a3.75,3.75,0,0,0-3-1.79s-1.71-1.44-5.75-.26a8.43,8.43,0,0,1-6.16-.19A8.07,8.07,0,0,0,870.1,61.89Z"/><path class="cls-54" d="M898.42,84.56s-.35,7.13-3.28,11.67h0l-.08.12a.43.43,0,0,0-.08.11c-.88,1.32-5.76,8.55-8.9,11.41-3.46,3.17-7.44,6.75-7.44,6.75l-.14-.13a9.84,9.84,0,0,0-1.14,1.23c-.27.48-.54,2.27-1.05,2.47a1.48,1.48,0,0,1-.24.06,1.64,1.64,0,0,1-.74.33,4.74,4.74,0,0,1-1.6-.16,3.22,3.22,0,0,1-.73.57,16,16,0,0,1-1.93,1c-.57.18-.67,0-.54-.36s1.21-1,1.6-1.27a6,6,0,0,0,1.29-1.71c.24-.53.24-.82,0-.82s-1,.45-1.55.57-.85,0-.57-.36a4.46,4.46,0,0,1,2-1.55,3.92,3.92,0,0,0,1.87-.75,5.87,5.87,0,0,0,1.05-1.27l-.23-.2s6.22-8.67,10.87-15.37l.31-.42A25.11,25.11,0,0,0,890,85.33a1.6,1.6,0,0,0-.79-.76Z"/><path class="cls-37" d="M876.18,111.53a10.89,10.89,0,0,1-1.66,2.23,3.89,3.89,0,0,1-1.87.75,4.49,4.49,0,0,0-2,1.54c-.27.33,0,.48.57.36s1.31-.57,1.55-.57.24.29,0,.83a6,6,0,0,1-1.3,1.71c-.39.3-1.48.91-1.6,1.27s0,.54.54.36a15.4,15.4,0,0,0,1.93-1,3.33,3.33,0,0,0,.73-.57,4.78,4.78,0,0,0,1.6.16,1.78,1.78,0,0,0,.75-.33,1.5,1.5,0,0,0,.24-.06c.51-.21.78-2,1.06-2.47a23.09,23.09,0,0,1,2.25-2.28Z"/><path class="cls-40" d="M894.5,96.24h0c2.93-4.54,3.93-11.67,3.93-11.67L894.68,82l-1.91.92c-1.2-.53-3.26-1.3-3.26-1.3l-.9,2.93a1.63,1.63,0,0,1,.79.76,25.19,25.19,0,0,1-2.88,11.17c-.1.14-.21.27-.31.42-4.65,6.69-10.87,15.37-10.87,15.37l2.66,2.34s4-3.58,7.44-6.75c3.14-2.87,8-10.1,8.9-11.41l.07-.11Z"/><path class="cls-54" d="M873.79,86.33l-.11,0c.12.13.19.22.22.26s0,.19,0,.19c-.14.15-.27.14-.45.13a.72.72,0,0,1-.34-.16.51.51,0,0,1-.42.1,1.43,1.43,0,0,1-.67-.47.14.14,0,0,1,0,.14.52.52,0,0,1-.46.13,1.5,1.5,0,0,1-.71-.52c-.1-.1-.23-.26-.38-.43l-.37-.25a1,1,0,0,0-.56-.18h0c-1.4,0-2-.64-3.75-.64h7.79l0,0a3.29,3.29,0,0,1-.47.09l0,0,.29.34c.31.38.72.87.8.95s0,.2,0,.2A.5.5,0,0,1,873.79,86.33Z"/><path class="cls-37" d="M873.46,86.33l-.11,0c.12.13.19.22.22.26s0,.19,0,.19c-.14.15-.27.14-.45.13a.72.72,0,0,1-.34-.16.51.51,0,0,1-.42.1,1.43,1.43,0,0,1-.67-.47.14.14,0,0,1,0,.14.52.52,0,0,1-.46.13,1.5,1.5,0,0,1-.71-.52c-.1-.1-.23-.26-.38-.43l-.37-.25a1,1,0,0,0-.56-.18h0c-1.4,0-2-.64-3.75-.64,0,0,4-1.93,6.44-.56a8.12,8.12,0,0,0,1,.11c.7,0,.5.37.28.48a3.29,3.29,0,0,1-.47.09l0,0,.29.34c.31.38.72.87.8.95s0,.2,0,.2A.5.5,0,0,1,873.46,86.33Z"/><path class="cls-62" d="M873.22,84.59a3.29,3.29,0,0,1-.47.09,6.72,6.72,0,0,0-.83-.68,8.12,8.12,0,0,0,1,.11C873.64,84.12,873.44,84.48,873.22,84.59Z"/><path class="cls-48" d="M1002.64,251.09c0,.83-6,1.49-13.36,1.49s-13.36-.67-13.36-1.49c0-.57,2.85-1.06,7.05-1.31l.22.81a.78.78,0,0,0,.75.58h9.82a.8.8,0,0,0,.76-.58l.22-.86C999.4,250,1002.64,250.48,1002.64,251.09Z"/><path class="cls-63" d="M983.94,233.34s-.46-4.78-6.74-7.13a12.76,12.76,0,0,0-10.74.44s.62-5.76,5.58-5.5,6,3.46,6,3.46,2.69-2.8,5.05-.73c2,1.73,1.65,5.15,1.65,5.15s1.86.23,1.59,3.19a7.22,7.22,0,0,1-.16,1"/><path class="cls-64" d="M983.94,233.34s-.46-4.78-6.74-7.13a12.76,12.76,0,0,0-10.74.44s.62-5.76,5.58-5.5,6,3.46,6,3.46,2.69-2.8,5.05-.73c2,1.73,1.65,5.15,1.65,5.15s1.86.23,1.59,3.19a7.22,7.22,0,0,1-.16,1"/><path class="cls-65" d="M987.44,233.29c-.07-14.93-7.57-21.57-7.64-21.64l.23-.26c.08.07,7.69,6.8,7.76,21.9Z"/><path class="cls-65" d="M980.22,211.81a4,4,0,0,1-2.5-.57,1.1,1.1,0,0,1,1.37-1.73A3.86,3.86,0,0,1,980.22,211.81Z"/><path class="cls-65" d="M980.83,212.41a4,4,0,0,1-1,2.35,1.1,1.1,0,1,1-1.44-1.67A3.86,3.86,0,0,1,980.83,212.41Z"/><path class="cls-65" d="M980.77,212.45a4,4,0,0,1,1.2-2.27,1.1,1.1,0,1,1,1.32,1.77A3.86,3.86,0,0,1,980.77,212.45Z"/><path class="cls-65" d="M983.09,215.45a4,4,0,0,1-1.3,2.21,1.1,1.1,0,1,1-1.24-1.83A3.86,3.86,0,0,1,983.09,215.45Z"/><path class="cls-65" d="M983,215.48a4,4,0,0,1,1.46-2.11,1.1,1.1,0,0,1,1.1,1.91A3.86,3.86,0,0,1,983,215.48Z"/><path class="cls-66" d="M989.88,233.25c-1.73-19.81,7.41-29.54,7.5-29.63l-.33-.32c-.09.1-9.37,10-7.63,30Z"/><path class="cls-66" d="M996.17,204.8a5.39,5.39,0,0,0-1.87-2.87,1.47,1.47,0,0,0-1.53,2.5A5.14,5.14,0,0,0,996.17,204.8Z"/><path class="cls-66" d="M993.47,209.06a5.39,5.39,0,0,0,2,2.78,1.47,1.47,0,0,0,1.42-2.57A5.14,5.14,0,0,0,993.47,209.06Z"/><path class="cls-66" d="M993.56,209.09a5.39,5.39,0,0,0-2.19-2.63,1.47,1.47,0,0,0-1.23,2.67A5.14,5.14,0,0,0,993.56,209.09Z"/><path class="cls-66" d="M991.57,213.87a5.39,5.39,0,0,0,2.24,2.59,1.47,1.47,0,0,0,1.18-2.69A5.14,5.14,0,0,0,991.57,213.87Z"/><path class="cls-66" d="M991.66,213.89a5.39,5.39,0,0,0-2.42-2.42,1.47,1.47,0,0,0-1,2.77A5.14,5.14,0,0,0,991.66,213.89Z"/><path class="cls-66" d="M990.25,218.55a5.39,5.39,0,0,0,2.64,2.18,1.47,1.47,0,1,0,.71-2.85A5.14,5.14,0,0,0,990.25,218.55Z"/><path class="cls-66" d="M990.34,218.55a5.39,5.39,0,0,0-2.79-2,1.47,1.47,0,0,0-.51,2.89A5.15,5.15,0,0,0,990.34,218.55Z"/><path class="cls-66" d="M989.61,223.38a5.39,5.39,0,0,0,2.83,1.92,1.47,1.47,0,1,0,.44-2.9A5.14,5.14,0,0,0,989.61,223.38Z"/><path class="cls-66" d="M989.69,223.38a5.39,5.39,0,0,0-3-1.71,1.47,1.47,0,1,0-.23,2.93A5.14,5.14,0,0,0,989.69,223.38Z"/><path class="cls-66" d="M989.4,229.23a5.39,5.39,0,0,0,2.83,1.92,1.47,1.47,0,1,0,.44-2.9A5.14,5.14,0,0,0,989.4,229.23Z"/><path class="cls-66" d="M989.49,229.23a5.39,5.39,0,0,0-3-1.71,1.47,1.47,0,1,0-.23,2.93A5.14,5.14,0,0,0,989.49,229.23Z"/><path class="cls-63" d="M991.3,233.34s-2.75-8.83,2.94-10.2c0,0,.29-11.85,8.71-8.84a6.07,6.07,0,0,1,6.12-4.41,4.65,4.65,0,0,1,4.67,4.91s4.47.7,4.47,4.45c0,0-21.91-6.17-23.79,14.09"/><path class="cls-67" d="M991.3,233.34s-2.75-8.83,2.94-10.2c0,0,.29-11.85,8.71-8.84a6.07,6.07,0,0,1,6.12-4.41,4.65,4.65,0,0,1,4.67,4.91s4.47.7,4.47,4.45c0,0-21.91-6.17-23.79,14.09"/><path class="cls-68" d="M979.12,235.2l4.07,15.39a.78.78,0,0,0,.75.58h9.82a.78.78,0,0,0,.75-.58l4.07-15.39a1.52,1.52,0,0,0-1.47-1.91H980.59A1.52,1.52,0,0,0,979.12,235.2Z"/><line class="cls-69" x1="994.6" y1="235.16" x2="991.88" y2="249.59"/></g></g></g></svg>