<svg xmlns="http://www.w3.org/2000/svg" xmlns:xlink="http://www.w3.org/1999/xlink" viewBox="0 0 994.45 289"><defs><style>.cls-1{fill:none;}.cls-2{isolation:isolate;}.cls-3{fill:#fff;}.cls-4{clip-path:url(#clip-path);}.cls-5{fill:#3ecccc;opacity:0.21;}.cls-6{fill:#80d6b9;opacity:0.16;}.cls-7{opacity:0.08;fill:url(#linear-gradient);}.cls-8{fill:#d5dbda;}.cls-9{fill:#efefef;}.cls-10{fill:#ffd04d;}.cls-11{fill:#00bfd8;}.cls-12{opacity:0.15;}.cls-12,.cls-14,.cls-17,.cls-34,.cls-55{mix-blend-mode:multiply;}.cls-13{opacity:0.26;}.cls-14,.cls-57{opacity:0.62;}.cls-15{fill:#66341b;}.cls-16{fill:#723e24;}.cls-17{opacity:0.3;}.cls-18{fill:#e8f6f7;}.cls-19{fill:#d0e0e2;}.cls-20{fill:#ffe1bd;}.cls-21{fill:#f4f4f4;}.cls-22{fill:#eaeaea;}.cls-23{fill:#3a3a3a;}.cls-24{fill:#e2e2e2;}.cls-25{fill:#f4d5b5;}.cls-26{fill:#632f00;}.cls-27{fill:#e8c5a0;}.cls-28{fill:#8c4200;}.cls-29{fill:#606060;}.cls-30{fill:#e5bb98;}.cls-31{fill:#d8d8d8;}.cls-32{fill:#09424c;}.cls-33{fill:#0c5a71;}.cls-34{opacity:0.1;}.cls-35{fill:#0b0b3a;}.cls-36,.cls-39{fill:#ce9006;}.cls-36{opacity:0.39;}.cls-37{fill:#d69507;}.cls-38,.cls-55{fill:#efaf11;}.cls-40{fill:#fafeff;}.cls-41{fill:#b4eff9;}.cls-42{fill:#75d9ef;}.cls-43{opacity:0.5;}.cls-44{fill:#282c2d;}.cls-45{fill:#d6d6d6;}.cls-46{fill:#525252;}.cls-47{fill:#a5a5af;}.cls-48{fill:#f1f2f2;}.cls-49{fill:#a7a9ac;}.cls-50{fill:#383838;}.cls-51{fill:#e6e7e8;}.cls-52{fill:#58595b;}.cls-53{fill:#594a42;}.cls-54{fill:#81553a;}.cls-55{opacity:0.55;}.cls-56{fill:#709e3e;}.cls-58{fill:#93bc6c;}.cls-59{fill:#4c2311;}.cls-60{fill:#1a1a47;}.cls-61,.cls-70{fill:#3d3d72;}.cls-61{opacity:0.54;}.cls-62{clip-path:url(#clip-path-2);}.cls-63{fill:#e1edf9;}.cls-64{fill:#c2e0f2;}.cls-65{fill:#ffd19f;}.cls-66{fill:#006466;}.cls-67{fill:#007d87;}.cls-68,.cls-69{fill:#00b3b7;}.cls-68{opacity:0.18;}.cls-69{opacity:0.45;}.cls-71{fill:#33305b;}</style><clipPath id="clip-path"><rect class="cls-1" width="994.45" height="289" rx="10.71" ry="10.71"/></clipPath><linearGradient id="linear-gradient" x1="988.84" y1="34.12" x2="846.27" y2="204.43" gradientUnits="userSpaceOnUse"><stop offset="0" stop-color="#fff"/><stop offset="0.38" stop-color="#7cdeeb"/><stop offset="0.76" stop-color="#00bfd8"/></linearGradient><clipPath id="clip-path-2"><path class="cls-1" d="M901,200.67l10.45,2.49,12.35.06L936.57,200l22.91,42.65-3.11,12.87s-72.32,5.21-74.25,3.57-11-10.41-12.25-13.83S901,200.67,901,200.67Z"/></clipPath></defs><title>snow-bg</title><g class="cls-2"><g id="Layer_1" data-name="Layer 1"><rect class="cls-3" width="994.45" height="289" rx="11.04" ry="11.04"/><g class="cls-4"><path class="cls-5" d="M433.71,291.69h566V197a278.32,278.32,0,0,0-30.89-5.86,315.47,315.47,0,0,0-61.24-2.31c-5.48.36-10.9.89-16.17,1.6l-3.33.47c-32.45,4.87-51.52,15.09-70.24,25.56l-8,4.47c-4,2.19-8,4.35-12.21,6.45A177.31,177.31,0,0,1,747,244c-39.31,6.92-87.56,4.22-131.67,6.68a548.91,548.91,0,0,0-111,17.78c-13,3.49-25.26,7.26-37,11.2l-4.85,1.65-1.21.42-2.83,1C450.07,285.62,441.84,288.65,433.71,291.69Z"/><path class="cls-6" d="M-37.26,244.76v49.16H1041V231.56c-34.52-1.43-68.47-3.88-102.13-6.76q-7.12-.6-14.21-1.24c-20.53-1.82-41-3.76-61.37-5.69q-16.11-1.53-32.22-3-9.83-.91-19.73-1.78c-21-1.85-42.27-3.57-63.72-5h0l-.41,0-3.8-.25-3.75-.25-3.77-.24-3.75-.23-3.8-.22-3-.17h0q-19.28-1.11-38.67-1.83c-25.53-.93-51.15-1.28-76.64-.82q-6.73.12-13.46.33-13.29.4-26.55,1.12c-22.41,1.24-43.84,3.17-64.67,5.56-2.76.31-5.5.64-8.24,1-14.53,1.76-28.79,3.75-42.85,5.86-14.62,2.2-29.07,4.54-43.43,6.93-54.26,9-107.67,18.82-167.19,24.49-84.17,8-178.92,7.07-261.21-2.23C-24.9,246.25-31.35,245.46-37.26,244.76Z"/><path class="cls-7" d="M1017.93,58.47V256.81a52.49,52.49,0,0,1-18.37,5.37A91.92,91.92,0,0,1,940.4,249C915.27,233,901.22,206.16,880,186a139.17,139.17,0,0,0-59.19-33c-14.59-4-29.95-5.67-43.89-11.27-19.84-8-36.2-24.85-38.85-44.7s10.88-41.49,31.88-46.28c17.67-4,36,3.59,54.18,3,15.44-.49,29.66-6.84,42.45-14.39,11.49-6.79,19-14.7,34-14.35,11.08.26,21.79,4.61,30.41,11,10.56,7.89,18.82,19.14,31.64,23.29C980,65,996.5,53.13,1013.42,56.93A22.55,22.55,0,0,1,1017.93,58.47Z"/><rect class="cls-8" x="810.77" y="44.45" width="156.18" height="92.25"/><rect class="cls-3" x="815.1" y="46.25" width="147.51" height="88.65"/><rect class="cls-9" x="825.92" y="50.36" width="124.87" height="5.92"/><rect class="cls-10" x="830.45" y="106.69" width="6.79" height="17.05"/><rect class="cls-11" x="845.76" y="91.72" width="6.79" height="32.02"/><rect class="cls-10" x="861.06" y="95.03" width="6.79" height="28.71"/><rect class="cls-11" x="876.37" y="78.82" width="6.79" height="44.92"/><g class="cls-12"><rect class="cls-13" x="845.76" y="91.72" width="3.12" height="32.02"/></g><g class="cls-12"><rect class="cls-13" x="830.45" y="106.69" width="3.12" height="17.05"/></g><g class="cls-14"><rect class="cls-13" x="876.37" y="78.82" width="3.12" height="44.92"/></g><g class="cls-12"><rect class="cls-13" x="861.06" y="95.03" width="3.12" height="28.71"/></g><polygon class="cls-8" points="886.75 128.43 825.97 128.43 825.97 63.7 826.89 63.7 826.89 127.5 886.75 127.5 886.75 128.43"/><polygon class="cls-8" points="832.21 98.7 831.59 98.01 847.49 83.73 862.22 86.93 878.17 69.18 878.86 69.8 862.55 87.95 847.76 84.74 832.21 98.7"/><polygon class="cls-8" points="880.11 72.42 875.61 68.11 881.42 66.56 880.11 72.42"/><rect class="cls-11" x="892.51" y="102.63" width="5.7" height="5.7"/><rect class="cls-10" x="892.51" y="112.61" width="5.7" height="5.7"/><rect class="cls-9" x="899.78" y="115.08" width="18.07" height="3.24"/><rect class="cls-9" x="899.78" y="105.09" width="18.07" height="3.24"/><rect class="cls-11" x="926.03" y="102.63" width="5.7" height="5.7"/><rect class="cls-10" x="926.03" y="112.61" width="5.7" height="5.7"/><rect class="cls-9" x="933.3" y="115.08" width="18.07" height="3.24"/><rect class="cls-9" x="933.3" y="105.09" width="18.07" height="3.24"/><rect class="cls-9" x="897.38" y="67.62" width="53.41" height="1.22"/><rect class="cls-9" x="893.18" y="70.56" width="57.61" height="1.22"/><rect class="cls-9" x="893.18" y="73.51" width="57.61" height="1.22"/><rect class="cls-9" x="893.18" y="76.46" width="57.61" height="1.22"/><rect class="cls-9" x="893.18" y="79.4" width="57.61" height="1.22"/><rect class="cls-9" x="893.18" y="82.35" width="57.61" height="1.22"/><rect class="cls-9" x="893.18" y="85.3" width="57.61" height="1.22"/><rect class="cls-9" x="893.18" y="88.24" width="57.61" height="1.22"/><rect class="cls-9" x="901.4" y="91.19" width="49.39" height="1.22"/><path class="cls-15" d="M970.29,43.7a1.2,1.2,0,0,1-1.2,1.2H808.62a1.2,1.2,0,0,1-1.2-1.2h0a1.2,1.2,0,0,1,1.2-1.2H969.09a1.2,1.2,0,0,1,1.2,1.2Z"/><path class="cls-15" d="M970.29,137.45a1.2,1.2,0,0,1-1.2,1.2H808.62a1.2,1.2,0,0,1-1.2-1.2h0a1.2,1.2,0,0,1,1.2-1.2H969.09a1.2,1.2,0,0,1,1.2,1.2Z"/><path class="cls-16" d="M784.16,243.29l.87-46.56h-3.1l.87,46.56a.7.7,0,1,0,1.36,0Z"/><path class="cls-16" d="M755.7,237.85l18-43-2.88-1.14-16.37,43.59a.7.7,0,1,0,1.26.5Z"/><path class="cls-16" d="M811.27,237.85l-18-43,2.88-1.14,16.37,43.59a.7.7,0,1,1-1.26.5Z"/><g class="cls-17"><path d="M770.31,195.09l1.83.73-16.91,42.55a1,1,0,0,0,.47-.51l18-43-2.88-1.14Z"/><path d="M782,198h2.31l-.86,46.18h.08a.8.8,0,0,0,.68-.86l.87-46.56h-3.1Z"/><path d="M812.53,237.35l-16.37-43.59-2.88,1.14.33.79,1.78-.71,16.27,43.34a.61.61,0,0,0,.55.07A.8.8,0,0,0,812.53,237.35Z"/></g><path class="cls-18" d="M804.83,198.94c-3.14,2.56-7.8,4.91-19.62,5.14-15.55.31-23.69-1.46-28.11-9.48-7.38-13.39,1.85-56.67,16.42-47.08,12.18,8,14.62,33.59,16.22,37.13S812.45,192.73,804.83,198.94Z"/><path class="cls-19" d="M787.9,200.76c-15.55.31-23.69-1.46-28.11-9.48-5-9.14-2.33-32.2,4.52-42.88-8.77,8.13-12.87,35.93-7.22,46.19,4.42,8,12.56,9.79,28.11,9.48,11.82-.23,16.48-2.59,19.62-5.14a3.83,3.83,0,0,0,1.65-2.52C803.32,198.65,798.48,200.56,787.9,200.76Z"/><path class="cls-20" d="M794.54,98.38c1.06-3.07,2-6.29,3.71-4.66s1.61,1.51,1,3.88S793.64,101,794.54,98.38Z"/><path class="cls-20" d="M796.44,94a9.39,9.39,0,0,1,2.29-3.81c.89-.69-.46,1.73-.78,2.86S796,95.23,796.44,94Z"/><path class="cls-21" d="M795,110.62a83.18,83.18,0,0,0,1.87-10.81l-2.34-1.58s-4.76,9.79-7.34,17.22L773.93,112l-1.62-.33,4.32,8.63s12.79,1.86,13.57,1.42S793.73,115.39,795,110.62Z"/><path class="cls-22" d="M790.2,121.77c-.79.44-13.57-1.42-13.57-1.42l-4.32-8.63,1.62.33c1.19.5,3.13,2.44,4.69,4.49a6.43,6.43,0,0,0,3.47,2.65,31,31,0,0,0,6.45,1.75c1.77.12,1.94.2,2.32-.31A1.13,1.13,0,0,1,790.2,121.77Z"/><path class="cls-21" d="M758.94,137.77a11.69,11.69,0,0,1,.52,6.74c-1,4.47.14,4.77.14,4.77a57.48,57.48,0,0,0,11.1,5.42c3.61,1.12,6.69.93,6.6-3.05v-.05l0-.7c-.17-9,1.7-9.42,2.16-19.45.48-10.29-2.28-16-5-18.52S768,110.35,761,112c-5.26,1.24-7,2.64-7,6.53a30.55,30.55,0,0,0,.57,4.8A86.53,86.53,0,0,0,758.94,137.77Z"/><path class="cls-23" d="M771.66,115.73s5.46,17.9,4.37,26.48l-2,3.66-2.2-4s1.79-17.14-1.64-25.84Z"/><path class="cls-24" d="M758.94,137.77a11.69,11.69,0,0,1,.52,6.74c-1,4.47.14,4.77.14,4.77a57.48,57.48,0,0,0,11.1,5.42l4.71-.45,1.88-1.48V151.6l0-.7a34.88,34.88,0,0,1-7.11-.19,29.51,29.51,0,0,1-7-1.75,2.72,2.72,0,0,1-1.71-3,39,39,0,0,0,.65-6.25,33.29,33.29,0,0,0-1.67-7.71,15.55,15.55,0,0,1-.63-5.7,50.93,50.93,0,0,0,0-6.5l-3.73-2-2.08.77a30.55,30.55,0,0,0,.57,4.8A86.53,86.53,0,0,0,758.94,137.77Z"/><path class="cls-25" d="M758.87,156.79c-.43.07-1.53-1.86-1.53-1.86l.46-.61a2.06,2.06,0,0,1,1-.73l.07,0a.89.89,0,0,1,1,.34c.32.47.81,1,1.37,1h.07C761.85,154.91,759.3,156.72,758.87,156.79Z"/><path class="cls-26" d="M775.87,94.51a2.85,2.85,0,0,1-.24,2.34l-2.89-3.91,2,0Z"/><path class="cls-20" d="M760.18,99.68c.13,5,4.48,8,4.48,8l-.29,4.59,2.94,1.9,2,1.3,1.16-2.42.16-3a1.53,1.53,0,0,1,1.21-1.41,5.55,5.55,0,0,0,2.86-1.73,1.92,1.92,0,0,0,.18-.23h0c1.91-2.6,2.63-12.55-3.9-15.38C764.25,88.4,760,94.63,760.18,99.68Z"/><path class="cls-27" d="M767.5,111.39l-.2,2.75,2,1.3,1.16-2.42.16-3a1.53,1.53,0,0,1,1.21-1.41,5.55,5.55,0,0,0,2.86-1.73,1.92,1.92,0,0,0,.18-.23,10.85,10.85,0,0,1-4.11,1.27A3.7,3.7,0,0,0,767.5,111.39Z"/><path class="cls-28" d="M767.22,101.24c-.26.1-.5-.29-.5-.29a27,27,0,0,0-1.9-3.67c-.87-.88-2.92-.8-3.09,1.93-.13,2.11,2.37,6.61,3.13,7.94a.5.5,0,0,1-.13.64.63.63,0,0,1-.28.1h0a.49.49,0,0,1-.33-.12c-1.61-1.42-8.72-8.23-3.08-14.63,0,0,4.48.29,5.16,2.45a45.11,45.11,0,0,1,1.17,5.09S767.49,101.12,767.22,101.24Z"/><path class="cls-28" d="M775.87,94.51s-3.92-3.06-9.87.67l-4.87-1.24s-.21-.07-.1-.8.65-7.9,9.19-6.29C775.12,87.78,778.13,91.18,775.87,94.51Z"/><path class="cls-29" d="M772,114.21l0,.23a4.66,4.66,0,0,1-.35,1.29h0l-1.48.3-1.29-1,1.48-1.72.23.06a3.27,3.27,0,0,1,1.42.77Z"/><path class="cls-24" d="M764.4,110.1a4.69,4.69,0,0,0-1.41,1.46,18.65,18.65,0,0,1,1.81.95c.77.47,4.48,3.09,4.48,3.09l1.09-2.24S766.5,110.69,764.4,110.1Z"/><path class="cls-24" d="M770.37,113.36a3.1,3.1,0,0,1,1.69,1.41,4.58,4.58,0,0,0-.18-3.53,5.85,5.85,0,0,0-1.26-.91Z"/><path class="cls-30" d="M760.06,153.63a7.71,7.71,0,0,0,.89,1c.2.11.24-.13.16-.3S760.09,153.4,760.06,153.63Z"/><path class="cls-26" d="M764.46,107.89h0a.49.49,0,0,1-.33-.12c-1.61-1.42-8.72-8.23-3.08-14.63a6.6,6.6,0,0,0-.16,2S757.27,101,764.46,107.89Z"/><ellipse class="cls-31" cx="767.95" cy="244.37" rx="23.41" ry="1.78"/><path class="cls-28" d="M756.39,237.58a14.32,14.32,0,0,1,.31,2.38c.15,1,1,1.3,1.54,2.09s1.44,2.25-2,2.32c-3.68.07-5.86-.18-5.23-2.26a10.89,10.89,0,0,0,.7-3.67,2.31,2.31,0,0,1,.42-1.79C752.55,236.23,755.85,235.5,756.39,237.58Z"/><path class="cls-23" d="M757.17,171.46s-5.81-9.27,2.44-22.18c0,0,6.43,2.88,11.57,3.22a25.45,25.45,0,0,0,6.11-.15s.34,12.41.36,19.1Z"/><path class="cls-23" d="M761.08,198.4c1.59-6.7-5-7.88-7.09-3-2.94,6.86-2.71,37-2.55,41.34,0,.57.32.47.64.35a4.76,4.76,0,0,1,2.1-.39,12.65,12.65,0,0,1,2.17.9C757,231.61,759.54,204.89,761.08,198.4Z"/><path class="cls-23" d="M767,172.37c.7-8.32-2.48-14.79-7.45-12-2.09,1.16-2.86,3.47-3.14,5.65s-1.82,24.82-2.36,28.91c-1.22,9.22,5.8,6.74,6.56,4.18C762.54,192.62,766.63,176.9,767,172.37Z"/><path class="cls-23" d="M778.73,198c.26-6.25-5-5.88-7.07-1-4.55,10.48,0,32.81,1,43.33A4.78,4.78,0,0,1,776,238a1.62,1.62,0,0,1,1.14.64C777,225.76,778.45,204.64,778.73,198Z"/><path class="cls-23" d="M771.89,198.64c.78,2.55,7.49,5.5,6.79-3.78-.31-4.12-1.14-26.85-1.3-29s-.53-5.39-1.59-5.79c-5.3-2-10.43,4.54-9,12.77C767.69,178.29,770.28,193.35,771.89,198.64Z"/><path class="cls-28" d="M777.15,238.86a8.32,8.32,0,0,0,3.45,2.61c1.84.82,5.75,1.21,3.58,1.93a13,13,0,0,1-6,.08,25.79,25.79,0,0,0-4-.24c-2,0-2-.14-1.74-2.38C772.8,237.77,776.26,237.12,777.15,238.86Z"/><path class="cls-20" d="M758.5,151.78l1,1.44a2.67,2.67,0,0,1,2.7,1.41c.87,1.7-2.2,3.82-3.07,3a27.39,27.39,0,0,1-2.77-4.4Z"/><path class="cls-21" d="M750.84,147.21a73.2,73.2,0,0,1,5.67,6.72l.53-.36,2-1.37s-4.15-8.69-5.33-12.93a15.08,15.08,0,0,0-2.44-4.93l.23-.23c3-3.2,5.35-7.33,7.13-9.86a10.16,10.16,0,0,0,1.71-4.08,9.14,9.14,0,0,0,0-3c-.25-1.59-.92-3-2.46-3.42a2.73,2.73,0,0,0-1.69.13,3.06,3.06,0,0,0-1.44,1.22c-2.34,3.79-9,14.06-10,16.59a5.32,5.32,0,0,0-.36,1.3,4.43,4.43,0,0,0-.07.44C744,137.57,748.08,144.42,750.84,147.21Z"/><path class="cls-22" d="M750.84,147.21a73.2,73.2,0,0,1,5.67,6.72l.53-.36s-3-4.24-4.48-6a42.41,42.41,0,0,1-5.07-7.1c-1.32-2.42-1.93-7.07-1.24-8.38s4.57-7.08,5.41-8.19,7.65-7.91,5.69-9.8a1.38,1.38,0,0,0-1.1-.27,3.06,3.06,0,0,0-1.44,1.22c-2.34,3.79-9,14.06-10,16.59a5.32,5.32,0,0,0-.36,1.3,4.43,4.43,0,0,0-.07.44C744,137.57,748.08,144.42,750.84,147.21Z"/><path class="cls-23" d="M761.71,153.3a9.13,9.13,0,0,1-5.1,5.2c-3.59,1.64,5.75,2.58,6,2.21s2-6.39,2-6.39Z"/><path class="cls-16" d="M833.25,240.68l.88-46.84H831l.88,46.84a.7.7,0,1,0,1.36,0Z"/><path class="cls-16" d="M804.61,235.2,822.71,192l-2.9-1.15-16.47,43.86a.7.7,0,1,0,1.27.5Z"/><path class="cls-16" d="M860.52,235.2,842.42,192l2.9-1.15,16.47,43.86a.7.7,0,1,1-1.27.5Z"/><g class="cls-17"><path d="M819.31,192.17l1.84.73-17,42.81a1,1,0,0,0,.47-.51L822.71,192l-2.9-1.15Z"/><path d="M831,195.07h2.32l-.87,46.46h.08a.8.8,0,0,0,.68-.86l.88-46.84H831Z"/><path d="M861.79,234.69l-16.47-43.86-2.9,1.15.33.79,1.79-.71,16.37,43.61a.62.62,0,0,0,.55.07A.8.8,0,0,0,861.79,234.69Z"/></g><path class="cls-18" d="M855.25,177.8c0,18-10.16,22.27-22.69,22.27s-22.69-4.3-22.69-22.27,10.16-35.33,22.69-35.33S855.25,159.84,855.25,177.8Z"/><path class="cls-19" d="M834.39,196c-12.53,0-22.69-4.3-22.69-22.27A49.14,49.14,0,0,1,815,156.1a48.25,48.25,0,0,0-5.12,21.71c0,18,10.16,22.27,22.69,22.27,9.82,0,18.19-2.65,21.34-12.45C850,194.14,842.69,196,834.39,196Z"/><path class="cls-32" d="M821.69,173.1s-2.91,6.21-3.51,10.36c-.87,6.06.41,8.68,8.15,8.93s10-1.27,13.69-1.27,8-7,3.23-15.31Z"/><path class="cls-20" d="M825,224l-.14,2.35s-2.29,6.74-2.4,8.44c-.2,3,1.11,6.28,2.38,6.26,1.45,0,3.45-1.88,4.34-5.59.6-2.52-.37-7.44,0-8.6s1-3.4,1-3.4Z"/><path class="cls-28" d="M829.38,234c-1,1-3,3.14-3.85,3.1s-2.31-2.62-2.8-3.69a9.29,9.29,0,0,0-.25,1.36c-.2,3,1.11,6.28,2.38,6.26,1.45,0,3.45-1.88,4.34-5.59A8,8,0,0,0,829.38,234Z"/><path class="cls-33" d="M830.11,225.12s9.25-29.2,10.4-32.8,2.09-10.42-3.27-11.62c-4.62-1-6.56,5.87-7.41,10.11s-5.11,32.59-5.11,32.59-.5,1.59,2.26,2.05S830.11,225.12,830.11,225.12Z"/><g class="cls-34"><path d="M835.62,180.68c-2,2.75-3,7.87-3.6,10.72-.85,4.25-5.06,33.17-5.06,33.17s.71.36,2.25,1.05a5.4,5.4,0,0,0-.74,0c-3,.21-3.7-1.63-3.7-1.63s4.22-28.93,5.06-33.17C830.57,187.11,832.15,181.38,835.62,180.68Z"/></g><path class="cls-20" d="M813.42,222.85l-.31,2.33s-2.76,6.56-3,8.25c-.41,2.94.66,6.34,1.93,6.42,1.45.08,3.57-1.63,4.73-5.27.78-2.47.16-7.45.59-8.58s1.29-3.31,1.29-3.31Z"/><path class="cls-28" d="M817.06,233.15c-1.07.94-3.26,2.92-4.06,2.82s-2.12-2.78-2.53-3.88a9.28,9.28,0,0,0-.35,1.34c-.41,2.94.66,6.34,1.93,6.42,1.45.08,3.57-1.63,4.73-5.27A8,8,0,0,0,817.06,233.15Z"/><path class="cls-33" d="M818.41,224.35s11.3-28.47,12.71-32,2.82-10.25-2.43-11.82c-4.54-1.36-7,5.39-8.11,9.56s-7.41,32.15-7.41,32.15-.61,1.55,2.11,2.21S818.41,224.35,818.41,224.35Z"/><g class="cls-34"><path d="M827.07,180.42c-2.2,2.6-3.58,7.63-4.35,10.44-1.15,4.17-7.41,32.73-7.41,32.73s.68.41,2.17,1.21a5.42,5.42,0,0,0-.73-.05c-3,0-3.58-1.89-3.58-1.89s6.26-28.55,7.41-32.73C821.58,186.47,823.56,180.87,827.07,180.42Z"/></g><path id="_路徑_" data-name="&lt;路徑&gt;" class="cls-35" d="M826.68,114s1-4.4,8.36-3c7,1.35,6.56,11.11,7.37,13.77a61.74,61.74,0,0,0,2.5,6.25.53.53,0,0,1-.31.73c-2.59.86-13.57,4.08-21.06-.41A3.56,3.56,0,0,1,822,129.7a2.52,2.52,0,0,1-.2-1,17.63,17.63,0,0,0,.2-6C821.54,119.24,822.15,113.95,826.68,114Z"/><path id="_路徑_2" data-name="&lt;路徑&gt;" class="cls-20" d="M824.52,123.48a4,4,0,0,0-.59,3.09,2.07,2.07,0,0,0,2.06,1.87l.23-1.92-.51-3.38Z"/><path id="_路徑_3" data-name="&lt;路徑&gt;" class="cls-20" d="M840.9,123.48a4,4,0,0,1,.59,3.09,2.07,2.07,0,0,1-2.06,1.87l-.23-1.92.51-3.38Z"/><path id="_路徑_4" data-name="&lt;路徑&gt;" class="cls-10" d="M842.09,160.85a28,28,0,0,0,.13,5.25c.21,2.23,1,10.41,1,10.41a27.25,27.25,0,0,1-4.63,1.25c-3.93.75-10.7-1.26-17-3.4,0,0,2.31-5.66,2.34-10.32,0-.64,0-1.29,0-2a41.4,41.4,0,0,0-.67-4.29q-.1-.53-.2-1.1c-.24-1.36-.47-2.86-.64-4.39a34.18,34.18,0,0,1-.23-4.58,21.2,21.2,0,0,1,.68-8.13s5.18-2.16,7.36-2.46c0,0,3.88-.89,6.6,0a44.38,44.38,0,0,1,7.11,2.74,11,11,0,0,1,.75,5.81c-.67,3.92-1.65,9.3-2.18,12.53C842.25,159.52,842.11,160.47,842.09,160.85Z"/><path id="_路徑_5" data-name="&lt;路徑&gt;" class="cls-36" d="M843.17,177.46a15.76,15.76,0,0,0-4.63.29c-1.09-2.81-.75-13-.75-13a49.48,49.48,0,0,1-7.7-2.34A44.74,44.74,0,0,1,823.9,164c0-.64,0-1.29,0-2a41.4,41.4,0,0,0-.67-4.29c1.43-1,4.08,1.21,4.08,1.21l13.41-2.11a10.76,10.76,0,0,1,1.78,1.35c-.21,1.29-.35,2.24-.37,2.62a28,28,0,0,0,.13,5.25C842.43,168.33,843.17,177.46,843.17,177.46Z"/><path id="_路徑_6" data-name="&lt;路徑&gt;" class="cls-20" d="M840.32,121.28a30.17,30.17,0,0,1-1.63,9.57,8.52,8.52,0,0,1-3.47,4.15c0,.79,0,1.82.52,1.91.16.35.36.44.25,1-.37,2-2.65,4.12-3.2,4.66s-.91,0-.91,0a12.53,12.53,0,0,1-1.66-2.46c-.28-.53-.5-1-.64-1.35a1.69,1.69,0,0,1,.15-1.56c.6-.07.38-1.37.33-2.06a10.59,10.59,0,0,1-3.08-3.92c-1.64-3.35-1.73-7.61-1.73-9.93a7.53,7.53,0,1,1,15.07,0Z"/><path id="_路徑_7" data-name="&lt;路徑&gt;" class="cls-27" d="M835.12,135c-.44.16-2.26.87-2.61,1.63a19.14,19.14,0,0,1-1,2.69,4.39,4.39,0,0,1-1.31.74c-.28-.53-.5-1-.64-1.35a1.69,1.69,0,0,1,.15-1.56c.6-.07.38-1.37.33-2.06a6.18,6.18,0,0,0,2.38.44A14.05,14.05,0,0,0,835.12,135Z"/><path id="_路徑_8" data-name="&lt;路徑&gt;" class="cls-20" d="M837.87,155a15,15,0,0,1,1.58-.23c.38,0-.71,3.42-.71,3.42a1.79,1.79,0,0,0-.87-.5c-.47-.08-.29-2.66-.29-2.66Z"/><path id="_路徑_9" data-name="&lt;路徑&gt;" class="cls-37" d="M843.89,139.89s3.41,1.75,3.2,4.4-4.19,17.11-4.88,19-18.06-3.87-18.06-3.87a13.1,13.1,0,0,1,1-3s11.88,1.26,13.44,1.87c0,0,2.41-11.47,3.16-13.51S843.89,139.89,843.89,139.89Z"/><path id="_路徑_10" data-name="&lt;路徑&gt;" class="cls-38" d="M838.11,157.9c-1.8,1-15.52,6.72-16.79,6.37s-2.8-1.48-3-4.84c-.18-3,1.55-14.73,2-17.45a2.41,2.41,0,0,1,.51-1.17,3.05,3.05,0,0,1,.26-.25,7.06,7.06,0,0,1,1.77-1c.17.39.13,2,.34,4.76a3.34,3.34,0,0,1-.06.94,27.92,27.92,0,0,0-.73,4.87,1.8,1.8,0,0,0,0,.2c.12,1.18,1,3.42,1,4.37,0,2.23,0,2.55,0,2.58l4.29-.76,10.23-1.84A7.22,7.22,0,0,1,838.11,157.9Z"/><path id="_路徑_11" data-name="&lt;路徑&gt;" class="cls-35" d="M823.73,124.23a6.65,6.65,0,0,0,3.76-2.19,12.45,12.45,0,0,0,1.67-3.32,7.32,7.32,0,0,0,3.63,3.06,29,29,0,0,0,8.67,2.44s.19-6.52-2-9.16-7.69-4.17-11.45-1.88S823.73,124.23,823.73,124.23Z"/><path id="_路徑_12" data-name="&lt;路徑&gt;" class="cls-39" d="M829.76,137.14s.39,3.51,2.12,5.41c0,0-.57-.19-1.64,1.09a.28.28,0,0,1-.48-.11c-.33-1.43-1.42-4.92-.81-6.14A.86.86,0,0,1,829.76,137.14Z"/><path id="_路徑_13" data-name="&lt;路徑&gt;" class="cls-39" d="M835.69,136.88a23.13,23.13,0,0,1-1.06,3,10.66,10.66,0,0,1-1.93,2.74,3.45,3.45,0,0,1,2,1.13.22.22,0,0,0,.38,0,14.93,14.93,0,0,0,1.08-3.06,9.66,9.66,0,0,0,.47-3.56A.77.77,0,0,0,835.69,136.88Z"/><path id="_路徑_14" data-name="&lt;路徑&gt;" class="cls-36" d="M822.42,158.25c-1.39-1.19.27-3.45.15-4.24s-.11-.92-.22-1.72a6.64,6.64,0,0,1,0-1.93c.12,1.18,1,3.42,1,4.37,0,2.23,0,2.55,0,2.58l7.18-1.28C831.06,156.29,823.35,159,822.42,158.25Z"/><path id="_路徑_15" data-name="&lt;路徑&gt;" class="cls-20" d="M824.86,157.05l-1.47.26a23.54,23.54,0,0,0-2.76-.08,8.83,8.83,0,0,0-2.11.45c-.17.06-.29-.07-.35-.24a4.2,4.2,0,0,1-.18-1.51,5.48,5.48,0,0,1,.38-1.45.59.59,0,0,1,.35-.32,5.26,5.26,0,0,1,2.15-.09,2.77,2.77,0,0,1,2.16,1.12l.6.72a1.37,1.37,0,0,0,.76.45l.73.15s-.08.13-.15.26A2.54,2.54,0,0,0,824.86,157.05Z"/><polygon class="cls-40" points="795.34 171.35 796.02 158.19 789.58 158.19 790.26 171.35 795.34 171.35"/><polygon class="cls-41" points="790.84 170.73 790.24 158.81 795.36 158.81 794.76 170.73 790.84 170.73"/><polygon class="cls-42" points="790.44 161.72 790.84 170.73 794.76 170.73 795.16 161.72 790.44 161.72"/><g class="cls-43"><path class="cls-3" d="M791.25,169.44h1.07l-.63-9.4c-.13-1.14-1.19-1.2-1,.1Z"/></g><rect class="cls-44" x="774.64" y="173.15" width="29.85" height="1.87"/><rect class="cls-45" x="774.93" y="171.29" width="27.04" height="1.5"/><rect class="cls-46" x="773.52" y="172.43" width="29.85" height="0.72"/><rect class="cls-47" x="775.48" y="171.87" width="25.93" height="0.15"/><rect class="cls-47" x="775.48" y="172.2" width="25.93" height="0.15"/><rect class="cls-47" x="775.48" y="171.52" width="25.93" height="0.15"/><rect class="cls-48" x="909.38" y="171.61" width="12.33" height="3.06"/><rect class="cls-49" x="917.82" y="171.61" width="3.89" height="3.06"/><rect class="cls-49" x="908.62" y="171.61" width="12.33" height="0.35"/><rect class="cls-49" x="908.62" y="174.32" width="12.33" height="0.35"/><rect class="cls-50" x="918.15" y="171.61" width="16.09" height="3.06"/><rect class="cls-49" x="919.88" y="172.32" width="8.61" height="1.64"/><rect class="cls-51" x="920.35" y="172.41" width="7.68" height="1.46"/><ellipse class="cls-49" cx="931.99" cy="173.14" rx="1.01" ry="0.82"/><rect class="cls-49" x="910.12" y="172.16" width="7.03" height="0.31"/><rect class="cls-49" x="910.12" y="173.36" width="7.03" height="0.31"/><rect class="cls-49" x="910.12" y="173.8" width="7.03" height="0.31"/><rect class="cls-49" x="912.32" y="172.85" width="4.38" height="0.31"/><rect class="cls-49" x="910.12" y="172.85" width="1.85" height="0.31"/><rect class="cls-48" x="907.06" y="168.62" width="12.33" height="3.06"/><rect class="cls-49" x="915.5" y="168.62" width="3.89" height="3.06"/><rect class="cls-49" x="906.3" y="168.62" width="12.33" height="0.35"/><rect class="cls-49" x="906.3" y="171.33" width="12.33" height="0.35"/><rect class="cls-52" x="915.83" y="168.62" width="16.09" height="3.06"/><rect class="cls-49" x="917.56" y="169.33" width="8.61" height="1.64"/><rect class="cls-51" x="918.03" y="169.42" width="7.68" height="1.46"/><ellipse class="cls-49" cx="929.67" cy="170.15" rx="1.01" ry="0.82"/><rect class="cls-49" x="907.79" y="169.18" width="7.03" height="0.31"/><rect class="cls-49" x="907.79" y="170.37" width="7.03" height="0.31"/><rect class="cls-49" x="907.79" y="170.81" width="7.03" height="0.31"/><rect class="cls-49" x="910" y="169.86" width="4.38" height="0.31"/><rect class="cls-49" x="907.79" y="169.86" width="1.85" height="0.31"/><rect class="cls-48" x="909.38" y="165.64" width="12.33" height="3.06"/><rect class="cls-49" x="917.82" y="165.64" width="3.89" height="3.06"/><rect class="cls-49" x="908.62" y="165.64" width="12.33" height="0.35"/><rect class="cls-49" x="908.62" y="168.34" width="12.33" height="0.35"/><rect class="cls-53" x="918.15" y="165.64" width="16.09" height="3.06"/><rect class="cls-49" x="919.88" y="166.35" width="8.61" height="1.64"/><rect class="cls-51" x="920.35" y="166.44" width="7.68" height="1.46"/><ellipse class="cls-49" cx="931.99" cy="167.17" rx="1.01" ry="0.82"/><rect class="cls-49" x="910.12" y="166.19" width="7.03" height="0.31"/><rect class="cls-49" x="910.12" y="167.38" width="7.03" height="0.31"/><rect class="cls-49" x="910.12" y="167.83" width="7.03" height="0.31"/><rect class="cls-49" x="912.32" y="166.88" width="4.38" height="0.31"/><rect class="cls-49" x="910.12" y="166.88" width="1.85" height="0.31"/><polygon class="cls-40" points="935.3 174.58 935.99 164.46 929.54 164.46 930.22 174.58 935.3 174.58"/><polygon class="cls-41" points="930.8 173.97 930.2 165.08 935.32 165.08 934.73 173.97 930.8 173.97"/><polygon class="cls-42" points="930.4 167.99 930.8 173.97 934.73 173.97 935.13 167.99 930.4 167.99"/><g class="cls-43"><path class="cls-3" d="M931.22,172.68h1.07l-.63-6.36c-.13-1.14-1.19-1.2-1,.1Z"/></g><path class="cls-54" d="M805.16,164.3a6.08,6.08,0,0,0,3.91,5.06.08.08,0,0,0,.06-.15,6.51,6.51,0,0,1-3.83-4.91c0-.09-.15-.09-.14,0Z"/><path class="cls-54" d="M808.86,160.91a7.66,7.66,0,0,1-1.39,8.09c-.07.09,0,.21.12.12a7.35,7.35,0,0,0,1.39-8.26c0-.07-.15,0-.12,0Z"/><path class="cls-54" d="M814.76,162.19c1,1.37.51,3-.26,4.43a6,6,0,0,1-3,2.31c-.12.06,0,.26.09.22,2.62-.86,5.41-4.39,3.36-7.06-.07-.1-.24,0-.17.1Z"/><path class="cls-54" d="M814.17,166.67a2.7,2.7,0,0,0,2.79-1.13c.06-.08-.07-.18-.14-.11a3.36,3.36,0,0,1-1.24.9,5.44,5.44,0,0,1-1.39.21.06.06,0,0,0,0,.12Z"/><path class="cls-54" d="M811.28,161.38c-.2,1.56-.62,3.94-2.1,4.81a.09.09,0,0,0,.07.17c1.67-.51,2-3.55,2.17-5,0-.1-.14-.09-.15,0Z"/><path class="cls-54" d="M802.38,163.51a3.37,3.37,0,0,0,3.58,3,.06.06,0,0,0,0-.12,3.58,3.58,0,0,1-3.45-2.91c0-.09-.14,0-.13,0Z"/><path class="cls-10" d="M816.68,167.59H803.9a18.12,18.12,0,0,0-1,3.11c0,.62,1.41,1.88,2.93,1.88h9c1.52,0,2.93-1.26,2.93-1.88A18.12,18.12,0,0,0,816.68,167.59Z"/><polygon class="cls-38" points="815.32 173.22 805.26 173.22 805.61 172.58 814.97 172.58 815.32 173.22"/><path class="cls-38" d="M806.75,170.7a18.12,18.12,0,0,1,1-3.11H803.9a18.12,18.12,0,0,0-1,3.11c0,.62,1.41,1.88,2.93,1.88h3.88C808.16,172.58,806.75,171.32,806.75,170.7Z"/><polygon class="cls-55" points="805.61 172.58 805.26 173.22 809.14 173.22 809.5 172.58 805.61 172.58"/><path class="cls-56" d="M809.81,162.95a2.29,2.29,0,0,1,2.2-.15,3.29,3.29,0,0,1,1.59,2.58,8.11,8.11,0,0,1-2.11.2C809.1,165.39,809.27,163.37,809.81,162.95Z"/><path class="cls-56" d="M815.64,161.67a1.58,1.58,0,0,1,1.51-.17,2.27,2.27,0,0,1,1.18,1.73,5.6,5.6,0,0,1-1.45.21C815.22,163.38,815.28,162,815.64,161.67Z"/><path class="cls-56" d="M815.11,160.85a1.07,1.07,0,0,0-1,.08,1.57,1.57,0,0,0-.57,1.32,3.81,3.81,0,0,0,1,0C815.61,162,815.39,161,815.11,160.85Z"/><path class="cls-56" d="M803.75,162a1.44,1.44,0,0,0-.81-.12,1.1,1.1,0,0,0-.82,1.47,1,1,0,0,0,.85.5c.65.08,1.44-.43,2.09-.64A2.78,2.78,0,0,0,803.75,162Z"/><path class="cls-56" d="M805.44,163.72a.88.88,0,0,0-.48.72.79.79,0,0,0,.8.64c.37,0,1.71-.35,2.28-.06C807.06,163.15,806.06,163.33,805.44,163.72Z"/><path class="cls-56" d="M816.71,164.37a.77.77,0,0,0-.47.54.62.62,0,0,0,.48.66c.27.07,1.31,0,1.68.29C818.4,164.44,817.23,164.13,816.71,164.37Z"/><path class="cls-56" d="M809.6,166.21c.3-.09,1.46-.19,1.93.43a2.15,2.15,0,0,1,0,2.44,7.33,7.33,0,0,1-1.78-.5C807.89,167.69,808.57,166.37,809.6,166.21Z"/><path class="cls-56" d="M805.43,166.41a1.62,1.62,0,0,0-1.61.52,2.84,2.84,0,0,0-.31,2.47,5.67,5.67,0,0,0,1.56-.45A1.41,1.41,0,0,0,805.43,166.41Z"/><path class="cls-56" d="M808.48,160.79a.89.89,0,0,1,.67.5.72.72,0,0,1-.39.87c-.29.15-1.51.28-1.85.74C807,160.82,807.83,160.64,808.48,160.79Z"/><g class="cls-57"><path class="cls-58" d="M802.06,162.82a6.41,6.41,0,0,1,3,.52s.06,0,0-.06a5.49,5.49,0,0,0-3-.51s0,.06,0,.06Z"/><path class="cls-58" d="M802.41,162.58a3.16,3.16,0,0,1,2.24.23,0,0,0,0,0,0-.06,2.47,2.47,0,0,0-2.29-.23s0,.06,0,.05Z"/><path class="cls-58" d="M802.23,162.94c.34.72,1.47.64,2.11.47a.05.05,0,0,0,0-.1c-.6.14-1.68.26-2-.4,0,0-.07,0-.05,0Z"/><path class="cls-58" d="M805.26,164a2.08,2.08,0,0,1,2.58.88,0,0,0,0,0,0,0,2,2,0,0,0-2.65-.9s0,.06,0,.05Z"/><path class="cls-58" d="M805.38,164.14a10,10,0,0,1,2.33.64s0,0,0,0a6,6,0,0,0-2.34-.67s0,.05,0,.06Z"/><path class="cls-58" d="M805.12,164.36a4,4,0,0,0,2.5.58c.05,0,.06-.09,0-.09a5,5,0,0,1-2.47-.53,0,0,0,0,0,0,0Z"/><path class="cls-58" d="M807,162.81a5.26,5.26,0,0,1,1.78-1.65c.06,0,0-.11,0-.09a3.82,3.82,0,0,0-1.78,1.71,0,0,0,0,0,.05,0Z"/><path class="cls-58" d="M807.75,162.46a2.56,2.56,0,0,0,1.41-1.24,0,0,0,0,0-.07,0,3.19,3.19,0,0,1-1.36,1.23s0,.06,0,0Z"/><path class="cls-58" d="M807,162.3a1.86,1.86,0,0,1,1.65-1.33c.05,0,.06-.09,0-.09a1.8,1.8,0,0,0-1.72,1.4,0,0,0,0,0,.06,0Z"/><path class="cls-58" d="M813.65,162.28a4.16,4.16,0,0,1,1.32-1.22,0,0,0,0,0,0-.09,2.78,2.78,0,0,0-1.32,1.27,0,0,0,0,0,.05,0Z"/><path class="cls-58" d="M814.2,162a1.9,1.9,0,0,0,1-.92,0,0,0,0,0-.07,0,2.46,2.46,0,0,1-1,.91s0,.06,0,0Z"/><path class="cls-58" d="M813.67,161.91a1.4,1.4,0,0,1,1.23-1s0-.09,0-.08a1.34,1.34,0,0,0-1.28,1,0,0,0,0,0,.06,0Z"/><path class="cls-58" d="M803.63,169.22a10.31,10.31,0,0,1,2.15-2.63s0-.08,0-.06a6.37,6.37,0,0,0-2.15,2.65s0,.07.05,0Z"/><path class="cls-58" d="M803.52,169.26a2.51,2.51,0,0,1,2-2.79s0-.08,0-.08a2.48,2.48,0,0,0-2,2.88s.08,0,.07,0Z"/><path class="cls-58" d="M803.73,169.21a2.38,2.38,0,0,0,2.22-2.28s-.06,0-.06,0a2.48,2.48,0,0,1-2.16,2.22s0,.08,0,.07Z"/><path class="cls-58" d="M809.18,166.47a3.61,3.61,0,0,1,2,2.42s.06,0,.06,0a3.35,3.35,0,0,0-2-2.45s-.06,0,0,0Z"/><path class="cls-58" d="M809.32,166.53c1.11.17,2.27.55,2.27,1.88,0,.05.07,0,.08,0,.14-1.39-1.23-1.8-2.34-1.94,0,0,0,.05,0,.06Z"/><path class="cls-58" d="M809.25,166.69c-.21,1,.76,1.67,1.64,1.93a0,0,0,0,0,0-.05c-.74-.39-1.8-.81-1.6-1.86,0,0-.05-.06-.06,0Z"/><path class="cls-58" d="M809.73,163.34c0,1.5,2.22,2,3.39,2a0,0,0,0,0,0-.06c-1.17-.08-3.26-.44-3.36-1.93a0,0,0,0,0,0,0Z"/><path class="cls-58" d="M810,163.53a14.85,14.85,0,0,0,3.32,1.8s.06,0,0-.07a17,17,0,0,1-3.31-1.77s0,0,0,0Z"/><path class="cls-58" d="M810.05,163.3a5.9,5.9,0,0,1,3.32,2s.11,0,.07-.06a5.29,5.29,0,0,0-3.38-2s0,0,0,.05Z"/><path class="cls-58" d="M810.2,162.94a3.49,3.49,0,0,1,2.19.43,2.64,2.64,0,0,1,1.05,1.91s.06,0,.06,0a2.32,2.32,0,0,0-.89-1.87,3.24,3.24,0,0,0-2.42-.52s0,.06,0,.06Z"/><path class="cls-58" d="M815.46,162c.09,1.08,1.73,1.33,2.57,1.23,0,0,0-.06,0-.06-.85,0-2.35-.1-2.54-1.17a0,0,0,0,0,0,0Z"/><path class="cls-58" d="M815.68,162.14a10.78,10.78,0,0,0,2.51,1.09,0,0,0,0,0,0-.07,12.92,12.92,0,0,1-2.5-1.06,0,0,0,0,0,0,0Z"/><path class="cls-58" d="M815.7,162a4.42,4.42,0,0,1,2.5,1.21,0,0,0,0,0,.07-.07,3.83,3.83,0,0,0-2.57-1.19s0,0,0,.05Z"/><path class="cls-58" d="M815.78,161.72a2.65,2.65,0,0,1,1.61.19,1.89,1.89,0,0,1,.87,1.28,0,0,0,0,0,.06,0,1.59,1.59,0,0,0-.75-1.29,2.42,2.42,0,0,0-1.8-.23s0,.06,0,.06Z"/><path class="cls-58" d="M816.25,165a.83.83,0,0,0,.54.4c.23.06.47,0,.7.07a2.62,2.62,0,0,1,.87.35s0,0,0,0a2.47,2.47,0,0,0-.94-.4c-.42-.07-.88,0-1.14-.43a0,0,0,0,0,0,0Z"/><path class="cls-58" d="M816.4,164.8a2.54,2.54,0,0,1,1.89.93s0,0,0,0a2.33,2.33,0,0,0-1.92-1,0,0,0,0,0,0,0Z"/><path class="cls-58" d="M816.63,164.67a1.28,1.28,0,0,1,1.64.9,0,0,0,0,0,.05,0,1.28,1.28,0,0,0-1.7-.93,0,0,0,0,0,0,0Z"/></g><path class="cls-58" d="M802.61,164.16a1.92,1.92,0,0,0-2-.15,3.8,3.8,0,0,0-1.57,2.68,7.54,7.54,0,0,0,2,.1C803.25,166.6,803.1,164.58,802.61,164.16Z"/><path class="cls-58" d="M814.68,161.89a1.49,1.49,0,0,0-1.55,0,2.62,2.62,0,0,0-.91,2.1,5.22,5.22,0,0,0,1.5,0A1.3,1.3,0,0,0,814.68,161.89Z"/><path class="cls-58" d="M809.43,159.49a.77.77,0,0,0-.47.54.62.62,0,0,0,.48.66c.27.07,1.31,0,1.68.29C811.12,159.56,809.95,159.25,809.43,159.49Z"/><path class="cls-58" d="M814.3,166.32a2,2,0,0,1,1.8-.05,1.79,1.79,0,0,1,.6,2,7,7,0,0,1-1.68,0C813.15,167.91,813.43,166.67,814.3,166.32Z"/><path class="cls-56" d="M799.18,166.63a6.32,6.32,0,0,0,1.25-1,6.75,6.75,0,0,1,1.9-1.21s0-.09,0-.08c-1.35.33-2,1.57-3.16,2.23a0,0,0,0,0,0,.08Z"/><path class="cls-56" d="M799.18,166.47c.37-.48.64-1,1.06-1.47a2.57,2.57,0,0,1,2-.74.07.07,0,0,0,0-.13c-1.65-.43-2.46,1.14-3.12,2.33,0,0,0,0,0,0Z"/><path class="cls-56" d="M799.59,166.7a4.26,4.26,0,0,0,2.63-.64,1.55,1.55,0,0,0,.44-1.5c0-.05-.11-.07-.12,0a2.12,2.12,0,0,1-.44,1.38,4.54,4.54,0,0,1-2.51.68c-.06,0-.06.09,0,.09Z"/><path class="cls-56" d="M799.3,166.65c.65-.21,1.35-.33,2-.6a2.57,2.57,0,0,0,1.2-1.41,0,0,0,0,0-.08,0,3.1,3.1,0,0,1-1.53,1.47c-.52.2-1.07.33-1.6.51-.05,0,0,.1,0,.08Z"/><path class="cls-56" d="M809.34,159.9a4.14,4.14,0,0,1,1.62.93,0,0,0,0,0,0,0,2.79,2.79,0,0,0-1.65-.94,0,0,0,0,0,0,0Z"/><path class="cls-56" d="M809.08,160.07a.53.53,0,0,0,.36.33,6.23,6.23,0,0,0,1.23.35s.06,0,0-.06c-.38-.17-1.33-.27-1.53-.66,0,0-.1,0-.08,0Z"/><path class="cls-56" d="M809.35,159.81a1.6,1.6,0,0,1,1.67,1,0,0,0,0,0,.06,0,1.46,1.46,0,0,0-1.74-1c-.05,0,0,.1,0,.09Z"/><path class="cls-56" d="M812.4,164a20.06,20.06,0,0,0,2.22-1.62s0,0,0,0a20.09,20.09,0,0,0-2.22,1.61s0,.05,0,0Z"/><path class="cls-56" d="M812.59,164a2.73,2.73,0,0,0,2.14-1.48s0-.05-.05,0a2.89,2.89,0,0,1-2.1,1.48s0,0,0,0Z"/><path class="cls-56" d="M812.37,163.89a3.48,3.48,0,0,1,2-1.66,0,0,0,0,0,0-.06,3.07,3.07,0,0,0-2.05,1.68s0,.08.06,0Z"/><path class="cls-56" d="M812.75,164c.67,0,2.56-.31,2-1.41,0,0-.06,0-.06,0,.28,1.11-1.22,1.32-2,1.35a0,0,0,0,0,0,0Z"/><path class="cls-56" d="M812.31,163.73a2,2,0,0,1,2-1.7s.06-.08,0-.09a2,2,0,0,0-2.05,1.77,0,0,0,0,0,.07,0Z"/><path class="cls-56" d="M814.57,166.43a9.38,9.38,0,0,1,2,1.79s.06,0,0,0a7.84,7.84,0,0,0-2-1.79s0,0,0,0Z"/><path class="cls-56" d="M814.66,166.38a2.43,2.43,0,0,1,1.94,1.73,0,0,0,0,0,.06,0,2.29,2.29,0,0,0-2-1.75s0,0,0,0Z"/><path class="cls-56" d="M814.86,166.32a1.77,1.77,0,0,1,1.33.4,1.44,1.44,0,0,1,.42,1.13,0,0,0,0,0,.07,0,1.48,1.48,0,0,0-1.81-1.56s0,0,0,0Z"/><path class="cls-56" d="M814.49,166.42c-.62.82,1.47,1.73,2,1.82a0,0,0,0,0,0-.07c-.47-.15-2.47-.91-2-1.72,0,0,0-.05,0,0Z"/><path class="cls-56" d="M814.27,166.5a.69.69,0,0,0,0,1.11,2.62,2.62,0,0,0,1.89.64,0,0,0,0,0,0-.08,4.28,4.28,0,0,1-1.12-.22c-.48-.18-1.49-.83-.71-1.4,0,0,0-.06,0,0Z"/><rect class="cls-59" x="781.24" y="177.2" width="3.56" height="70.1"/><rect class="cls-59" x="927.91" y="177.2" width="3.56" height="70.1"/><rect class="cls-59" x="774.01" y="175.16" width="164.7" height="3.09"/><rect class="cls-15" x="772.28" y="174.54" width="168.15" height="1.39"/><rect class="cls-46" x="801.49" y="173.82" width="35.54" height="0.72"/><path class="cls-45" d="M835.54,172.9s-14.05-.83-16.12.62c-2.83-1.29-16.43-.62-16.43-.62v.92h32.54Z"/><path class="cls-47" d="M835.54,173.52c-1.35-.11-2.7-.19-4-.27s-2.7-.14-4-.18-2.7,0-4.05,0c-.67,0-1.35.07-2,.15a9.88,9.88,0,0,0-1,.17,2.91,2.91,0,0,0-.92.34l0,0,0,0a5.12,5.12,0,0,0-1-.28c-.33-.07-.67-.11-1-.15-.68-.08-1.37-.12-2.05-.15-1.37-.06-2.75-.05-4.12,0s-2.75.08-4.12.15-2.75.14-4.12.24c2.74-.25,5.49-.42,8.24-.49,1.38,0,2.75,0,4.13,0,.69,0,1.38.06,2.06.13.34,0,.69.08,1,.15a5,5,0,0,1,1,.29h-.08a3,3,0,0,1,1-.36,10.07,10.07,0,0,1,1-.16c.67-.08,1.35-.11,2-.14,1.35,0,2.71,0,4.06,0C830.15,173.06,832.84,173.25,835.54,173.52Z"/><path class="cls-47" d="M835.54,173.52l-4-.08-4-.06c-1.34,0-2.69,0-4,0-.67,0-1.34,0-2,.08-.33,0-.67,0-1,.08a5,5,0,0,0-1,.18h0a8.37,8.37,0,0,0-1-.11l-1,0-2,0c-1.36,0-2.72,0-4.08,0l-8.17.12,4.08-.14,4.08-.08c1.36,0,2.72,0,4.09,0l2,0,1,0a7.78,7.78,0,0,1,1,.11h0a5.06,5.06,0,0,1,1-.18c.34,0,.67-.06,1-.08.67,0,1.35-.05,2-.07,1.35,0,2.69,0,4,0s2.69,0,4,.08Z"/><rect class="cls-46" x="852.42" y="173.82" width="35.54" height="0.72"/><path class="cls-45" d="M886.47,172.9s-14.05-.83-16.12.62c-2.83-1.29-16.43-.62-16.43-.62v.92h32.54Z"/><path class="cls-47" d="M886.47,173.52c-1.35-.11-2.7-.19-4-.27s-2.7-.14-4-.18-2.7,0-4.05,0c-.67,0-1.35.07-2,.15a9.88,9.88,0,0,0-1,.17,2.91,2.91,0,0,0-.92.34l0,0,0,0a5.12,5.12,0,0,0-1-.28c-.33-.07-.67-.11-1-.15-.68-.08-1.37-.12-2.05-.15-1.37-.06-2.75-.05-4.12,0s-2.75.08-4.12.15-2.75.14-4.12.24c2.74-.25,5.49-.42,8.24-.49,1.38,0,2.75,0,4.13,0,.69,0,1.38.06,2.06.13.34,0,.69.08,1,.15a5,5,0,0,1,1,.29h-.08a3,3,0,0,1,1-.36,10.06,10.06,0,0,1,1-.16c.67-.08,1.35-.11,2-.14,1.35,0,2.71,0,4.06,0C881.08,173.06,883.78,173.25,886.47,173.52Z"/><path class="cls-47" d="M886.47,173.52l-4-.08-4-.06c-1.34,0-2.69,0-4,0-.67,0-1.34,0-2,.08-.33,0-.67,0-1,.08a5,5,0,0,0-1,.18h0a8.37,8.37,0,0,0-1-.11l-1,0-2,0c-1.36,0-2.72,0-4.08,0l-8.17.12,4.08-.14,4.08-.08c1.36,0,2.72,0,4.09,0l2,0,1,0a7.78,7.78,0,0,1,1,.11h0a5.05,5.05,0,0,1,1-.18c.34,0,.67-.06,1-.08.67,0,1.35-.05,2-.07,1.35,0,2.69,0,4,0s2.69,0,4,.08Z"/><polygon class="cls-20" points="905.08 234.56 905.67 238.11 908.37 238.11 909.54 237.91 908.69 232.4 905.08 234.56"/><path id="_路徑_16" data-name="&lt;路徑&gt;" class="cls-60" d="M909.05,233.55c-.26.12-.53.22-.82.32a22.83,22.83,0,0,1-3.51.78c-3.24-5.31-11.63-31.16-11.63-31.16-.77-3.27,4.13.92,6.17.79a4.33,4.33,0,0,1,1.88.27c2,.83,4.81,6.35,4.81,6.35a34,34,0,0,1,1.78,5.85C908.67,220.69,909.05,233.55,909.05,233.55Z"/><path id="_路徑_17" data-name="&lt;路徑&gt;" class="cls-61" d="M909.05,233.55c-.26.12-.53.22-.82.32-.2-1.57-.51-4.08-1-8.08-1-9-6.68-19.22-8-21.51a4.33,4.33,0,0,1,1.88.27c2,.83,4.81,6.35,4.81,6.35a34,34,0,0,1,1.78,5.85C908.67,220.69,909.05,233.55,909.05,233.55Z"/><path id="_路徑_18" data-name="&lt;路徑&gt;" class="cls-60" d="M905.49,237.6a6.57,6.57,0,0,0,2.07-.32,4.93,4.93,0,0,0,1.74-1.1,6.26,6.26,0,0,1,2.87,4.9.4.4,0,0,1-.26.37s-6.89,3.06-9.26,3.9a35.33,35.33,0,0,1-3.8,1,.33.33,0,0,1-.4-.18,1.17,1.17,0,0,1,.52-1.42c1.07-.82,2.24-1.49,3-2.17s1.64-2.55,2.29-3.08A4.34,4.34,0,0,0,905.49,237.6Z"/><g class="cls-62"><path class="cls-16" d="M919.76,253.25l1-53.76h-3.58l1,53.76a.8.8,0,1,0,1.57,0Z"/><path class="cls-16" d="M886.89,247l20.77-49.6L904.34,196l-18.9,50.34a.8.8,0,1,0,1.45.58Z"/><path class="cls-16" d="M951.06,247l-20.77-49.6,3.32-1.32,18.9,50.34a.8.8,0,1,1-1.45.58Z"/><g class="cls-17"><path d="M903.76,197.58l2.12.84-19.52,49.13a1.14,1.14,0,0,0,.54-.59l20.77-49.6L904.34,196Z"/><path d="M917.21,200.9h2.66l-1,53.32H919a.92.92,0,0,0,.78-1l1-53.76h-3.58Z"/><path d="M952.51,246.38,933.61,196l-3.32,1.32.38.91,2.06-.82,18.79,50a.71.71,0,0,0,.63.08A.92.92,0,0,0,952.51,246.38Z"/></g></g><path id="_路徑_19" data-name="&lt;路徑&gt;" class="cls-3" d="M893.78,172.22H860.92l-6.51-20.45a1.6,1.6,0,0,1,1.52-2.08h29.51a1.6,1.6,0,0,1,1.52,1.11Z"/><path id="_路徑_20" data-name="&lt;路徑&gt;" class="cls-63" d="M893.25,172.22H861.78l-6.44-20.08a1.57,1.57,0,0,1,1.51-2H885a1.58,1.58,0,0,1,1.51,1.09Z"/><path id="_路徑_21" data-name="&lt;路徑&gt;" class="cls-64" d="M873.51,153.89H859.17a.39.39,0,0,1-.39-.39h0a.39.39,0,0,1,.39-.39h14.34a.39.39,0,0,1,.39.39h0A.39.39,0,0,1,873.51,153.89Z"/><path id="_路徑_22" data-name="&lt;路徑&gt;" class="cls-64" d="M875.73,155.68h-16a.39.39,0,0,1-.39-.39h0a.39.39,0,0,1,.39-.39h16a.39.39,0,0,1,.39.39h0A.39.39,0,0,1,875.73,155.68Z"/><path id="_路徑_23" data-name="&lt;路徑&gt;" class="cls-64" d="M874.25,157.47H860.33a.39.39,0,0,1-.39-.39h0a.39.39,0,0,1,.39-.39h13.92a.39.39,0,0,1,.39.39h0A.39.39,0,0,1,874.25,157.47Z"/><path id="_路徑_24" data-name="&lt;路徑&gt;" class="cls-64" d="M871.93,159.26h-11a.39.39,0,0,1-.39-.39h0a.39.39,0,0,1,.39-.39h11a.39.39,0,0,1,.39.39h0A.39.39,0,0,1,871.93,159.26Z"/><path id="_路徑_25" data-name="&lt;路徑&gt;" class="cls-64" d="M877.46,161h-16a.39.39,0,0,1-.39-.39h0a.39.39,0,0,1,.39-.39h16a.39.39,0,0,1,.39.39h0A.39.39,0,0,1,877.46,161Z"/><path id="_路徑_26" data-name="&lt;路徑&gt;" class="cls-64" d="M876,162.83H862a.39.39,0,0,1-.39-.39h0a.39.39,0,0,1,.39-.39H876a.39.39,0,0,1,.39.39h0A.39.39,0,0,1,876,162.83Z"/><path id="_路徑_27" data-name="&lt;路徑&gt;" class="cls-64" d="M879.18,166.41h-16a.39.39,0,0,1-.39-.39h0a.39.39,0,0,1,.39-.39h16a.39.39,0,0,1,.39.39h0A.39.39,0,0,1,879.18,166.41Z"/><path id="_路徑_28" data-name="&lt;路徑&gt;" class="cls-64" d="M879.76,168.19h-16a.39.39,0,0,1-.39-.39h0a.39.39,0,0,1,.39-.39h16a.39.39,0,0,1,.39.39h0A.39.39,0,0,1,879.76,168.19Z"/><path id="_路徑_29" data-name="&lt;路徑&gt;" class="cls-64" d="M888.26,168.19h-5.16a1.1,1.1,0,0,1-1.05-.77l-4.3-13.63a1.1,1.1,0,0,1,1.05-1.44H884a1.1,1.1,0,0,1,1.05.77l4.3,13.63A1.1,1.1,0,0,1,888.26,168.19Z"/><path id="_路徑_30" data-name="&lt;路徑&gt;" class="cls-3" d="M896.54,173.71H860.8a1.06,1.06,0,0,1-1.06-1.06h0a1.06,1.06,0,0,1,1.06-1.06h35.74a1.06,1.06,0,0,1,1.06,1.06h0A1.06,1.06,0,0,1,896.54,173.71Z"/><g id="_群組_" data-name="&lt;群組&gt;"><path id="_複合路徑_" data-name="&lt;複合路徑&gt;" class="cls-60" d="M906.85,145.44a.9.9,0,0,1-.78-.45l-1.19-2.09a.89.89,0,0,1,.36-1.23l3.31-1.75a.9.9,0,0,1,1.2.36l1.13,2.07a.89.89,0,0,1-.36,1.21l-3.25,1.76A.89.89,0,0,1,906.85,145.44Zm2.11-5.21a.47.47,0,0,0-.22.06L905.44,142a.48.48,0,0,0-.19.66h0l1.19,2.09a.48.48,0,0,0,.65.18l3.25-1.77a.48.48,0,0,0,.19-.65l-1.13-2.07A.48.48,0,0,0,909,140.23Z"/></g><path id="_路徑_31" data-name="&lt;路徑&gt;" class="cls-20" d="M893.29,167.06a6.25,6.25,0,0,1-.42.49,14.41,14.41,0,0,0-2.22-1.44,10.94,10.94,0,0,0-2.1.29c-.59,0-.63-.31-.63-.31s-2.24.93-2.6,1-.6,0-.38-.6a2.42,2.42,0,0,1,.41-.56h0a15.42,15.42,0,0,1,2.9-2.51,3.54,3.54,0,0,1,2.49-.55,27.38,27.38,0,0,1,3.35,2.22A3.19,3.19,0,0,1,893.29,167.06Z"/><path id="_路徑_32" data-name="&lt;路徑&gt;" class="cls-65" d="M893.82,165.21l-.53,1.85a6.25,6.25,0,0,1-.42.49,14.41,14.41,0,0,0-2.22-1.44,10.94,10.94,0,0,0-2.1.29c-.59,0-.63-.31-.63-.31s-2.24.93-2.6,1-.6,0-.38-.6a2.42,2.42,0,0,1,.41-.56c-.19.26-.4.53-.28.87s2.55-.74,4.29-1.78c0,0,.17-.09.21,0s-.07.17-.1.19c-.29.31-1.74.42-1.45.88.41.65,1.91-.54,2.72-.28a8.41,8.41,0,0,1,1.84,1S893.08,165.45,893.82,165.21Z"/><path id="_路徑_33" data-name="&lt;路徑&gt;" class="cls-66" d="M892.61,167.55s8.5,7.43,14.86,8.19,17.09-11.31,17.09-11.31-.67-6.43-4.64-5.67-9.28,10.31-11.59,10.76-14.28-4.63-14.28-4.63a3.11,3.11,0,0,0-.74.91A8,8,0,0,0,892.61,167.55Z"/><path id="_路徑_34" data-name="&lt;路徑&gt;" class="cls-20" d="M921.53,130.91c-2.33-2.66-5.76-2.95-8.42-2.66a8.79,8.79,0,0,0-7.52,6.09,7.83,7.83,0,0,0,.16,5c2.17,6,4.43,9.8,6.55,10.93.81.43,2.35.14,4-.43a.46.46,0,0,1,.57.22l.7,1.3,6.12-1.32a20.85,20.85,0,0,1-1.2-3.49C923.37,145.44,925.79,135.78,921.53,130.91Z"/><path id="_路徑_35" data-name="&lt;路徑&gt;" class="cls-35" d="M909.17,139.45a1.75,1.75,0,0,1,1.78,1,12.35,12.35,0,0,0,1.89,3.42.62.62,0,0,0,.67,0,.53.53,0,0,0,.31-.52,14.19,14.19,0,0,0-.71-2.38,1.61,1.61,0,0,1,1.21-2.22,2.72,2.72,0,0,1,1,.06c1.81.55.56,3.39.53,4.87,0,1,1.22,3.47,1.78,3.68a5.68,5.68,0,0,0,6-1.74c1.46-1.8,1.78-7.84,1-11.45s-3.69-5.65-4.64-5.88a3.36,3.36,0,0,0-1.13-.09,1.05,1.05,0,0,1-.8-.26c-1-.84-3.84-2.75-8.38-.79a10.54,10.54,0,0,0-6.52,10.06c.07,1.54,1.28,1.43,2.12,1.16a1.4,1.4,0,0,1,1.33.29A3.4,3.4,0,0,0,909.17,139.45Z"/><path id="_路徑_36" data-name="&lt;路徑&gt;" class="cls-67" d="M917.37,152.36s-.53-.59-.33-.95a8.57,8.57,0,0,1,6.07-2.46c.49,0,1.08,0,1.67,1.29a9.19,9.19,0,0,1,.72,2.11Z"/><path id="_路徑_37" data-name="&lt;路徑&gt;" class="cls-67" d="M929.3,203.77l-.61.13a53,53,0,0,1-7,.55c-8.53-.15-12.84-8.1-14.23-10.47a8.86,8.86,0,0,1-.68-1.39c.49-.26,6.28-3.38,6-14.06-.06-2.21,0-7.16-1.13-9.08A63.83,63.83,0,0,1,908.1,164c-.92-1.86-1.4-3.79-.39-5.27a19,19,0,0,1,6.46-5.64s7.26-2.91,13.44-2.25c3.92.41,7.42,2.26,8.35,7.2C938.38,170.75,929.3,203.77,929.3,203.77Z"/><path id="_路徑_38" data-name="&lt;路徑&gt;" class="cls-68" d="M915.14,175.74A21.09,21.09,0,0,1,907.47,194a8.86,8.86,0,0,1-.68-1.39c.49-.26,5.93-5,6-14.06,0-2.21,0-7.16-1.13-9.08A63.83,63.83,0,0,1,908.1,164l.48-.19,2.91-.48,1.48,1.2A56.27,56.27,0,0,1,915.14,175.74Z"/><path id="_路徑_39" data-name="&lt;路徑&gt;" class="cls-69" d="M929.3,203.77l-.61.13c.54-2.87,4-20.87,5.11-27.4,2.22-12.89-.09-19.42-1.39-21.76-1.05-1.89-3.07-2.89-4.79-3.9,3.92.41,7.42,2.26,8.35,7.2C938.38,170.75,929.3,203.77,929.3,203.77Z"/><path id="_路徑_40" data-name="&lt;路徑&gt;" class="cls-20" d="M887.44,242.24a5.66,5.66,0,0,1-2,.39c-1.25,0-1.62-.47-1.62-.47V239.3l4.13-.53Z"/><path id="_路徑_41" data-name="&lt;路徑&gt;" class="cls-70" d="M919.87,202.29c0,1.86-.52,4.82-3.3,5.66-4.15,1.24-7.22.54-12-.29-4-.69-14.65-3-16.6-3.72a.34.34,0,0,0-.45.38c.92,4.5,1.66,6.45,2.25,13.2.5,5.67-1.68,21.74-1.68,21.74a11.52,11.52,0,0,1-1.37.32,5.56,5.56,0,0,1-.79.07,18,18,0,0,1-2.31-.19s-4.31-23.65-4.89-33.24.33-10.38,4.69-12.41,23.83-1.28,23.83-1.28h0a14.86,14.86,0,0,0,4.38,5.87A18.47,18.47,0,0,0,919.87,202.29Z"/><path class="cls-71" d="M908,194.18a11,11,0,0,1-.81-1.65h0l-.62,0A16.18,16.18,0,0,0,908,194.18Z"/><path class="cls-71" d="M917.18,201.54a4.43,4.43,0,0,1-3,3.3c-4.15,1.24-7.22.54-12-.29-4-.69-14.65-3-16.6-3.72a.34.34,0,0,0-.45.38c.92,4.5,1.66,6.45,2.25,13.2.39,4.42.22,18.82.13,25l.56-.15s2.18-16.06,1.68-21.74c-.6-6.75-1.33-8.7-2.25-13.2a.34.34,0,0,1,.45-.38c2,.74,12.57,3,16.6,3.72,4.81.83,7.88,1.54,12,.29,2.78-.84,3.28-3.8,3.3-5.66A20.88,20.88,0,0,1,917.18,201.54Z"/><path id="_路徑_42" data-name="&lt;路徑&gt;" class="cls-60" d="M883.73,241.76a6.57,6.57,0,0,0,2,.43,4.93,4.93,0,0,0,2-.43,6.26,6.26,0,0,1,1,5.6.4.4,0,0,1-.38.25H874.46a.31.31,0,0,1-.32-.3,1.17,1.17,0,0,1,1-1.15c1.29-.39,2.61-.61,3.61-1s2.43-1.82,3.23-2.08A4.34,4.34,0,0,0,883.73,241.76Z"/><path id="_路徑_43" data-name="&lt;路徑&gt;" class="cls-20" d="M877.41,171.91s-1.24-.32-1.88-.46a6.84,6.84,0,0,0-.69-.1,3.58,3.58,0,0,0-.82,0l-6.66.92a.35.35,0,0,1-.4-.3.77.77,0,0,1,.26-.69l.65-.56,1.95-1.68a4.23,4.23,0,0,1,3-1,11.65,11.65,0,0,1,1.37.28c1.31.24,1.6.39,2.47.57a5.77,5.77,0,0,0,.73.12.69.69,0,0,0,.29,0A4,4,0,0,1,877.41,171.91Z"/><path id="_路徑_44" data-name="&lt;路徑&gt;" class="cls-21" d="M887.58,172.57a0,0,0,0,1,0,0c-.17-.07-1.21-.5-1.78-.7-.21-.07-.41-.13-.58-.17a4.49,4.49,0,0,0-.91-.11h-6.69a.38.38,0,0,1-.39-.37.77.77,0,0,1,.35-.63l.72-.47c-.68.52-.79.91-.45,1a8.57,8.57,0,0,0,2.56-.5s.05,0,0,.07a.37.37,0,0,0,.23.69l1.72-.1c1-.06,2.58-.16,2.87-.1a5,5,0,0,1,1.47.51c.29.15.56-.18.67-.48a12.52,12.52,0,0,1,.59-1.47.69.69,0,0,0,.29,0A4.06,4.06,0,0,1,887.58,172.57Z"/><path id="_路徑_45" data-name="&lt;路徑&gt;" class="cls-67" d="M913.91,156.52c-.88-.54-3.55-2-7,3.34s-6.19,9.38-7.39,10.11-4.16.21-5.23.21S877.64,169,877.64,169a11,11,0,0,0-.88,3s14.3,3.75,23.16,3.78,15.6-13.37,15.91-15S916,157.8,913.91,156.52Z"/><g id="_群組_2" data-name="&lt;群組&gt;"><path id="_路徑_46" data-name="&lt;路徑&gt;" class="cls-60" d="M905.36,144a.21.21,0,0,1-.09-.39l7.69-3.94c.87-.45,2.65-1.36,4,.58a.21.21,0,0,1-.34.23c-1-1.51-2.26-1.05-3.43-.45l-7.7,3.95Z"/></g><path id="_路徑_47" data-name="&lt;路徑&gt;" class="cls-20" d="M913.08,140.19l.93,3a.94.94,0,0,0,1.42-.1c.7-.8,1.3-3.58,0-4A1.68,1.68,0,0,0,913.08,140.19Z"/><path class="cls-18" d="M948,183.13c0-15-.35-25.53-9.84-27.11-12.91-2.16-23,9-20.93,30.42,1.18,12.27-3.85,16.48-8.13,18.87-2.77,1.55-8.13,1.22-8.13,1.22s-2.48-.29-4.15-.45c1,.48,23.13,11.36,38.89,3.32C949.7,202.27,948,191.94,948,183.13Z"/><path class="cls-19" d="M948,183.13c0-15-.35-25.53-9.84-27.11-.46-.08-.91-.13-1.36-.18-10.34,1-17.11,11.91-15.31,30.61,1.18,12.27-3.85,16.48-8.13,18.87-2.77,1.55-8.13,1.22-8.13,1.22l-.36-.11a26.68,26.68,0,0,1-3.91.1s-2.48-.29-4.15-.45c1,.48,23.13,11.36,38.89,3.32C949.7,202.27,948,191.94,948,183.13Z"/></g></g></g></svg>